{
.formatVersion = 3;
axes = (
{
name = Weight;
tag = wght;
}
);
classes = (
{
code = "periodcentered.loclCAT at dieresiscomb dotaccentcomb gravecomb acutecomb hungarumlautcomb circumflexcomb caroncomb brevecomb ringcomb tildecomb macroncomb hookabovecomb dblgravecomb breveinvertedcomb commaturnedabovecomb slashlongcomb";
name = case;
},
{
code = "periodcentered.loclCAT.case at.case dieresiscomb.case dotaccentcomb.case gravecomb.case acutecomb.case hungarumlautcomb.case circumflexcomb.case caroncomb.case brevecomb.case ringcomb.case tildecomb.case macroncomb.case hookabovecomb.case dblgravecomb.case breveinvertedcomb.case commaturnedabovecomb.case slashlongcomb.case";
name = case2;
},
{
code = "gravecomb acutecomb circumflexcomb tildecomb macroncomb brevecomb dotaccentcomb dieresiscomb ringcomb hungarumlautcomb caroncomb commaturnedabovecomb hookabovecomb gravetonecomb acutetonecomb dblgravecomb breveinvertedcomb";
name = ccmp;
},
{
code = "dieresiscomb dotaccentcomb gravecomb acutecomb hungarumlautcomb circumflexcomb caroncomb brevecomb ringcomb tildecomb macroncomb hookabovecomb dblgravecomb breveinvertedcomb commaturnedabovecomb slashlongcomb";
name = ccmp2;
},
{
code = "dieresiscomb.case dotaccentcomb.case gravecomb.case acutecomb.case hungarumlautcomb.case circumflexcomb.case caroncomb.case brevecomb.case ringcomb.case tildecomb.case macroncomb.case hookabovecomb.case dblgravecomb.case breveinvertedcomb.case commaturnedabovecomb.case slashlongcomb.case";
name = ccmp3;
},
{

glyphs = (
{
glyphname = .notdef;
layers = (
{
layerId = "CF1FEFF6-0598-468F-902F-1EDAA234C103";
shapes = (
{
closed = 1;
nodes = (
(401,165,l),
(210,165,l),
(257,553,l),
(448,553,l)
);
},
{
closed = 1;
nodes = (
(118,718,l),
(30,0,l),
(540,0,l),
(628,718,l)
);
},
{
closed = 1;
nodes = (
(47,143,l),
(163,37,l),
(611,575,l),
(495,681,l)
);
}
);
width = 631;
},
{
layerId = "E454AF73-A037-40C8-8E6D-4D661AF510B7";
shapes = (
{
closed = 1;
nodes = (
(496,82,l),
(120,82,l),
(188,636,l),
(564,636,l)
);
},
{
closed = 1;
nodes = (
(131,718,l),
(43,0,l),
(553,0,l),
(641,718,l)
);
},
{
closed = 1;
nodes = (
(64,80,l),
(114,28,l),
(621,638,l),
(571,690,l)
);
}
);
width = 658;
},
{
layerId = "E7A4057C-21B9-4802-88F9-F6F08CC0F8D4";
shapes = (
{
closed = 1;
nodes = (
(523,34,l),
(89,34,l),
(169,684,l),
(603,684,l)
);
},
{
closed = 1;
nodes = (
(135,718,l),
(47,0,l),
(557,0,l),
(645,718,l)
);
},
{
closed = 1;
nodes = (
(52,32,l),
(82,10,l),
(641,686,l),
(611,708,l)
);
}
);
width = 666;
}
);
},
{
glyphname = A;
layers = (
{
anchors = (
{
name = m.uni0324_3;
position = "{317, 0}";
},
{
name = t.uni0308_1_3;
position = "{401, 694}";
},
{
name = m.uni0328_2;
position = "{657, 0}";
}
);
layerId = "CF1FEFF6-0598-468F-902F-1EDAA234C103";
shapes = (
{
closed = 1;
nodes = (
(360,684,l),
(-25,0,l),
(158,0,l),
(293,257,l),
(178,146,l),
(488,146,l),
(402,257,l),
(480,0,l),
(656,0,l),
(446,684,l)
);
},
{
closed = 1;
nodes = (
(254,288,l),
(302,268,l),
(397,470,l),
(373,474,l),
(348,470,l),
(398,272,l),
(445,288,l)
);
}
);
width = 693;
},
{
anchors = (
{
name = m.uni0324_3;
position = "{319, 2}";
},
{
name = t.uni0308_1_3;
position = "{405, 700}";
},
{
name = m.uni0328_2;
position = "{668, -2}";
}
);
layerId = "E454AF73-A037-40C8-8E6D-4D661AF510B7";
shapes = (
{
closed = 1;
nodes = (
(358,684,l),
(-20,0,l),
(71,0,l),
(206,253,l),
(149,210,l),
(482,210,l),
(438,253,l),
(514,0,l),
(601,0,l),
(391,684,l)
);
},
{
closed = 1;
nodes = (
(190,284,l),
(213,260,l),
(342,493,l),
(357,535,l),
(363,493,l),
(433,260,l),
(461,284,l)
);
}
);
width = 643;
},
{
anchors = (
{
name = m.uni0324_3;
position = "{319, 2}";
},
{
name = t.uni0308_1_3;
position = "{405, 700}";
},
{
name = m.uni0328_2;
position = "{668, -2}";
}
);
layerId = "E7A4057C-21B9-4802-88F9-F6F08CC0F8D4";
shapes = (
{
closed = 1;
nodes = (
(368,684,l),
(-12,0,l),
(29,0,l),
(164,251,l),
(141,236,l),
(494,236,l),
(475,251,l),
(550,0,l),
(591,0,l),
(377,684,l)
);
},
{
closed = 1;
nodes = (
(160,272,l),
(168,257,l),
(345,570,l),
(365,616,l),
(373,572,l),
(473,257,l),
(485,272,l)
);
}
);
width = 641;
}
);
leftKerningGroup = A2;
rightKerningGroup = A;
unicode = 65;
},
{
glyphname = AE;
layers = (
{
anchors = (
{
name = m.uni0324_3;
position = "{418, 0}";
},
{
name = t.uni0308_1_3;
position = "{585, 684}";
}
);
layerId = "CF1FEFF6-0598-468F-902F-1EDAA234C103";
shapes = (
{
closed = 1;
nodes = (
(432,684,l),
(-25,0,l),
(174,1,l),
(342,256,l),
(236,146,l),
(505,146,l),
(449,264,l),
(418,0,l),
(882,0,l),
(900,148,l),
(601,148,l),
(618,281,l),
(857,281,l),
(875,429,l),
(636,429,l),
(649,536,l),
(928,536,l),
(946,684,l)
);
},
{
closed = 1;
nodes = (
(473,449,l),
(452,275,l),
(525,296,l),
(337,296,l),
(373,279,l),
(480,488,l)
);
}
);
width = 942;
},
{
anchors = (
{
name = m.uni0324_3;
position = "{455, 0}";
},
{
name = t.uni0308_1_3;
position = "{559, 673}";
}
);
layerId = "E454AF73-A037-40C8-8E6D-4D661AF510B7";
shapes = (
{
closed = 1;
nodes = (
(457,686,l),
(-20,-1,l),
(82,0,l),
(250,252,l),
(191,210,l),
(460,210,l),
(429,256,l),
(398,-1,l),
(826,-1,l),
(835,75,l),
(490,75,l),
(521,325,l),
(798,325,l),
(807,401,l),
(530,401,l),
(556,610,l),
(881,610,l),
(890,686,l)
);
},
{
closed = 1;
nodes = (
(471,593,l),
(430,260,l),
(471,286,l),
(240,286,l),
(257,264,l),
(455,561,l)
);
}
);
width = 880;
},
{
anchors = (
{
name = m.uni0324_3;
position = "{455, 0}";
},
{
name = t.uni0308_1_3;
position = "{559, 673}";
}
);
layerId = "E7A4057C-21B9-4802-88F9-F6F08CC0F8D4";
shapes = (
{
closed = 1;
nodes = (
(443,685,l),
(-12,1,l),
(33,1,l),
(197,250,l),
(161,236,l),
(423,236,l),
(408,252,l),
(377,1,l),
(798,1,l),
(803,37,l),
(420,37,l),
(457,346,l),
(767,346,l),
(772,382,l),
(462,382,l),
(495,649,l),
(858,649,l),
(862,685,l)
);
},
{
closed = 1;
nodes = (
(457,650,l),
(409,256,l),
(428,272,l),
(182,272,l),
(203,257,l),
(429,601,l)
);
}
);
width = 853;
}
);
leftKerningGroup = A2;
rightKerningGroup = E;
unicode = 198;
},
{
glyphname = B;
layers = (
{
anchors = (
{
name = m.uni0324_3;
position = "{261, 0}";
},
{
name = t.uni0308_1_3;
position = "{345, 684}";
},
{
name = t.uni0335_4;
position = "{305, 356}";
}
);
layerId = "CF1FEFF6-0598-468F-902F-1EDAA234C103";
shapes = (
{
closed = 1;
nodes = (
(329,-12,o),
(289,-14,o),
(241,-13,cs),
(193,-12,o),
(143,-8,o),
(91,-1,cs),
(37,6,l),
(104,552,l),
(269,551,l),
(215,136,l),
(226,134,o),
(236,133,o),
(245,133,c),
(254,132,o),
(264,132,o),
(273,132,cs),
(350,132,o),
(394,162,o),
(401,219,c),
(402,233,o),
(400,245,o),
(395,256,c),
(383,277,o),
(358,289,o),
(326,289,cs),
(206,289,l),
(223,424,l),
(345,424,ls),
(378,424,o),
(401,453,o),
(405,486,cs),
(409,517,o),
(391,536,o),
(359,536,cs),
(102,535,l),
(120,686,l),
(371,686,ls),
(414,686,o),
(452,679,o),
(484,664,cs),
(547,634,o),
(578,579,o),
(570,512,c),
(562,455,o),
(547,411,o),
(496,386,cs),
(479,377,o),
(461,370,o),
(442,367,cs),
(422,364,l),
(445,360,o),
(459,355,o),
(487,339,cs),
(509,327,o),
(526,307,o),
(539,278,cs),
(552,249,o),
(556,218,o),
(552,187,cs),
(540,90,o),
(469,18,o),
(362,-5,cs)
);
}
);
width = 586;
},
{
anchors = (
{
name = m.uni0324_3;
position = "{268, 0}";
},
{
name = t.uni0308_1_3;
position = "{352, 684}";
},
{
name = t.uni0335_4;
position = "{328, 363}";
}
);
layerId = "E454AF73-A037-40C8-8E6D-4D661AF510B7";
shapes = (
{
closed = 1;
nodes = (
(215,-10,o),
(192,-10,o),
(169,-9,cs),
(146,-8,o),
(126,-6,o),
(111,-5,c),
(49,2,l),
(128,642,l),
(212,642,l),
(140,71,l),
(158,68,o),
(177,66,o),
(196,65,cs),
(215,64,o),
(234,63,o),
(252,64,cs),
(381,68,o),
(445,105,o),
(456,192,cs),
(459,219,o),
(456,243,o),
(447,263,c),
(427,303,o),
(384,324,o),
(323,324,cs),
(129,325,l),
(138,401,l),
(321,401,ls),
(398,401,o),
(455,445,o),
(463,513,cs),
(470,570,o),
(433,601,o),
(352,606,c),
(123,606,l),
(133,684,l),
(357,684,ls),
(399,684,o),
(435,677,o),
(465,663,cs),
(525,634,o),
(553,579,o),
(545,507,c),
(537,448,o),
(510,402,o),
(465,383,cs),
(452,378,o),
(436,374,o),
(417,371,cs),
(406,369,l),
(419,368,o),
(448,359,o),
(471,346,cs),
(496,331,o),
(514,310,o),
(526,283,c),
(537,255,o),
(541,223,o),
(536,186,cs),
(520,59,o),
(418,-10,o),
(237,-10,cs)
);
}
);
width = 580;
},
{
anchors = (
{
name = m.uni0324_3;
position = "{268, 0}";
},
{
name = t.uni0308_1_3;
position = "{352, 684}";
},
{
name = t.uni0335_4;
position = "{328, 363}";
}
);
layerId = "E7A4057C-21B9-4802-88F9-F6F08CC0F8D4";
shapes = (
{
closed = 1;
nodes = (
(258,-9,o),
(228,-9,o),
(187,-9,cs),
(146,-8,o),
(117,-7,o),
(100,-4,cs),
(55,3,l),
(134,654,l),
(175,654,l),
(98,32,l),
(111,31,o),
(131,29,o),
(160,28,cs),
(188,27,o),
(213,26,o),
(234,26,cs),
(393,26,o),
(469,68,o),
(484,181,cs),
(488,213,o),
(484,242,o),
(471,267,cs),
(446,317,o),
(391,347,o),
(319,347,cs),
(130,347,l),
(134,382,l),
(315,382,ls),
(414,382,o),
(483,437,o),
(492,522,cs),
(501,598,o),
(458,641,o),
(366,648,c),
(134,648,l),
(138,684,l),
(353,684,ls),
(393,684,o),
(427,677,o),
(455,663,cs),
(511,635,o),
(538,583,o),
(530,514,c),
(523,465,o),
(503,427,o),
(467,402,cs),
(444,386,o),
(419,375,o),
(393,368,c),
(375,365,l),
(404,360,o),
(425,354,o),
(444,345,c),
(472,330,o),
(493,308,o),
(508,278,cs),
(522,248,o),
(527,214,o),
(522,175,cs),
(507,59,o),
(414,-9,o),
(278,-9,cs)
);
}
);
width = 573;
}
);
rightKerningGroup = B;
unicode = 66;
},
{
glyphname = C;
layers = (
{
anchors = (
{
name = m.uni0324_3;
position = "{361, -12}";
},
{
name = t.uni0308_1_3;
position = "{436, 696}";
}
);
layerId = "CF1FEFF6-0598-468F-902F-1EDAA234C103";
shapes = (
{
closed = 1;
nodes = (
(482,-28,o),
(593,25,o),
(656,117,c),
(535,199,l),
(502,150,o),
(438,116,o),
(369,116,cs),
(298,116,o),
(242,154,o),
(217,218,cs),
(204,250,o),
(200,286,o),
(205,325,cs),
(216,416,o),
(262,494,o),
(326,536,cs),
(357,557,o),
(391,567,o),
(427,567,cs),
(498,567,o),
(549,535,o),
(556,484,c),
(699,518,l),
(690,591,o),
(639,653,o),
(562,686,cs),
(523,703,o),
(480,711,o),
(432,711,cs),
(301,711,o),
(182,644,o),
(107,534,cs),
(70,479,o),
(47,417,o),
(39,349,cs),
(22,208,o),
(75,88,o),
(180,22,cs),
(232,-12,o),
(293,-28,o),
(362,-28,cs)
);
}
);
width = 685;
},
{
anchors = (
{
name = m.uni0324_3;
position = "{372, -16}";
},
{
name = t.uni0308_1_3;
position = "{438, 691}";
}
);
layerId = "E454AF73-A037-40C8-8E6D-4D661AF510B7";
shapes = (
{
closed = 1;
nodes = (
(473,-21,o),
(581,30,o),
(642,118,c),
(582,160,l),
(535,93,o),
(453,53,o),
(360,53,cs),
(263,53,o),
(185,101,o),
(149,186,cs),
(131,228,o),
(125,276,o),
(132,331,cs),
(145,444,o),
(207,539,o),
(296,591,cs),
(340,616,o),
(388,629,o),
(441,629,cs),
(541,629,o),
(600,579,o),
(617,514,c),
(685,529,l),
(674,593,o),
(630,648,o),
(559,680,c),
(523,695,o),
(482,703,o),
(437,703,cs),
(310,703,o),
(192,639,o),
(117,528,cs),
(80,473,o),
(57,410,o),
(48,340,cs),
(31,195,o),
(82,83,o),
(182,24,cs),
(231,-6,o),
(290,-21,o),
(357,-21,cs)
);
}
);
width = 679;
},
{
anchors = (
{
name = m.uni0324_3;
position = "{372, -16}";
},
{
name = t.uni0308_1_3;
position = "{438, 691}";
}
);
layerId = "E7A4057C-21B9-4802-88F9-F6F08CC0F8D4";
shapes = (
{
closed = 1;
nodes = (
(467,-12,o),
(572,36,o),
(635,123,c),
(605,143,l),
(550,66,o),
(462,23,o),
(355,23,cs),
(244,23,o),
(155,74,o),
(114,168,cs),
(93,215,o),
(87,270,o),
(95,335,cs),
(110,460,o),
(182,563,o),
(280,618,cs),
(329,645,o),
(379,659,o),
(432,659,cs),
(555,659,o),
(631,602,o),
(644,523,c),
(679,530,l),
(668,594,o),
(626,645,o),
(555,673,cs),
(520,687,o),
(479,694,o),
(434,694,cs),
(310,694,o),
(195,631,o),
(123,523,cs),
(86,468,o),
(64,407,o),
(55,338,cs),
(38,199,o),
(89,90,o),
(186,32,cs),
(234,3,o),
(289,-12,o),
(352,-12,cs)
);
}
);
width = 680;
}
);
leftKerningGroup = C2;
rightKerningGroup = C;
unicode = 67;
},
{
glyphname = D;
layers = (
{
anchors = (
{
name = m.uni0324_3;
position = "{258, -10}";
},
{
name = t.uni0308_1_3;
position = "{333, 686}";
},
{
name = t.uni0335_4;
position = "{195, 360}";
}
);
layerId = "CF1FEFF6-0598-468F-902F-1EDAA234C103";
shapes = (
{
closed = 1;
nodes = (
(416,-11,o),
(536,47,o),
(608,152,cs),
(644,205,o),
(667,267,o),
(676,338,cs),
(692,459,o),
(646,572,o),
(550,636,cs),
(501,668,o),
(443,684,o),
(376,684,cs),
(120,684,l),
(101,532,l),
(361,532,l),
(440,529,o),
(486,496,o),
(502,444,cs),
(510,417,o),
(512,386,o),
(508,351,cs),
(492,219,o),
(405,141,o),
(285,141,cs),
(277,141,ls),
(252,141,o),
(233,142,o),
(219,145,c),
(284,655,l),
(116,655,l),
(37,3,l),
(129,-5,l),
(131,-5,o),
(133,-5,o),
(134,-5,c),
(171,-8,o),
(215,-9,o),
(264,-10,cs)
);
}
);
width = 692;
},
{
anchors = (
{
name = m.uni0324_3;
position = "{316, -9}";
},
{
name = t.uni0308_1_3;
position = "{312, 681}";
},
{
name = t.uni0335_4;
position = "{235, 369}";
}
);
layerId = "E454AF73-A037-40C8-8E6D-4D661AF510B7";
shapes = (
{
closed = 1;
nodes = (
(414,-10,o),
(529,43,o),
(600,147,cs),
(635,199,o),
(657,263,o),
(666,338,cs),
(681,467,o),
(637,578,o),
(548,639,cs),
(503,669,o),
(450,684,o),
(387,684,cs),
(132,685,l),
(123,608,l),
(370,608,ls),
(474,608,o),
(543,563,o),
(571,483,cs),
(585,443,o),
(589,396,o),
(582,343,cs),
(559,164,o),
(440,65,o),
(247,65,cs),
(234,65,l),
(190,66,o),
(158,68,o),
(138,70,c),
(211,651,l),
(128,651,l),
(48,1,l),
(105,-4,ls),
(112,-5,o),
(118,-5,o),
(125,-6,cs),
(154,-9,o),
(205,-10,o),
(277,-10,cs)
);
}
);
width = 692;
},
{
anchors = (
{
name = m.uni0324_3;
position = "{316, -9}";
},
{
name = t.uni0308_1_3;
position = "{312, 681}";
},
{
name = t.uni0335_4;
position = "{235, 369}";
}
);
layerId = "E7A4057C-21B9-4802-88F9-F6F08CC0F8D4";
shapes = (
{
closed = 1;
nodes = (
(419,-9,o),
(528,45,o),
(596,149,cs),
(629,201,o),
(651,265,o),
(661,340,cs),
(678,472,o),
(636,581,o),
(547,640,cs),
(502,669,o),
(448,684,o),
(385,684,cs),
(137,685,l),
(133,649,l),
(374,649,ls),
(490,649,o),
(572,595,o),
(607,503,cs),
(624,456,o),
(629,402,o),
(621,341,cs),
(594,134,o),
(468,26,o),
(261,26,cs),
(234,26,l),
(157,27,o),
(110,29,o),
(95,31,c),
(172,649,l),
(133,649,l),
(53,0,l),
(93,-3,ls),
(108,-4,o),
(118,-5,o),
(125,-5,c),
(170,-8,o),
(222,-9,o),
(283,-9,cs)
);
}
);
width = 694;
}
);
rightKerningGroup = D;
unicode = 68;
},
{
glyphname = E;
layers = (
{
anchors = (
{
name = m.uni0324_3;
position = "{292, 0}";
},
{
name = t.uni0308_1_3;
position = "{363, 687}";
},
{
name = m.uni0328_2;
position = "{527, 0}";
}
);
layerId = "CF1FEFF6-0598-468F-902F-1EDAA234C103";
shapes = (
{
closed = 1;
nodes = (
(119,684,l),
(35,0,l),
(527,0,l),
(545,148,l),
(219,148,l),
(235,273,l),
(515,273,l),
(533,421,l),
(253,421,l),
(267,536,l),
(578,536,l),
(596,684,l)
);
}
);
width = 587;
},
{
anchors = (
{
name = m.uni0324_3;
position = "{296, -2}";
},
{
name = t.uni0308_1_3;
position = "{371, 688}";
},
{
name = m.uni0328_2;
position = "{540, -2}";
}
);
layerId = "E454AF73-A037-40C8-8E6D-4D661AF510B7";
shapes = (
{
closed = 1;
nodes = (
(132,684,l),
(48,-1,l),
(517,-1,l),
(526,75,l),
(139,75,l),
(170,323,l),
(491,323,l),
(500,399,l),
(179,399,l),
(205,608,l),
(573,608,l),
(582,684,l)
);
}
);
width = 571;
},
{
anchors = (
{
name = m.uni0324_3;
position = "{296, -2}";
},
{
name = t.uni0308_1_3;
position = "{371, 688}";
},
{
name = m.uni0328_2;
position = "{540, -2}";
}
);
layerId = "E7A4057C-21B9-4802-88F9-F6F08CC0F8D4";
shapes = (
{
closed = 1;
nodes = (
(137,685,l),
(53,0,l),
(504,0,l),
(508,36,l),
(96,36,l),
(134,346,l),
(473,346,l),
(478,382,l),
(138,382,l),
(171,649,l),
(564,649,l),
(568,685,l)
);
}
);
width = 559;
}
);
rightKerningGroup = E;
unicode = 69;
},
{
glyphname = Schwa;
layers = (
{
anchors = (
{
name = m.uni0324_3;
position = "{287, -10}";
},
{
name = t.uni0308_1_3;
position = "{371, 700}";
},
{
name = m.uni0328_2;
position = "{82, 610}";
}
);
layerId = "CF1FEFF6-0598-468F-902F-1EDAA234C103";
shapes = (
{
closed = 1;
nodes = (
(523,301,l),
(502,303,o),
(483,304,o),
(464,304,cs),
(445,304,o),
(426,304,o),
(409,303,c),
(398,303,o),
(388,303,o),
(377,302,c),
(260,299,o),
(205,268,o),
(196,199,c),
(195,184,o),
(197,171,o),
(204,158,cs),
(217,133,o),
(244,116,o),
(275,116,cs),
(312,116,o),
(344,126,o),
(373,145,cs),
(430,184,o),
(470,269,o),
(482,402,cs),
(493,511,o),
(444,571,o),
(343,571,cs),
(276,571,o),
(201,542,o),
(141,494,c),
(67,611,l),
(150,678,o),
(256,716,o),
(356,715,cs),
(422,714,o),
(479,699,o),
(526,669,cs),
(620,608,o),
(663,495,o),
(646,348,cs),
(637,275,o),
(615,210,o),
(580,153,cs),
(509,38,o),
(396,-29,o),
(272,-28,cs),
(219,-27,o),
(173,-17,o),
(134,5,cs),
(57,47,o),
(18,124,o),
(29,215,cs),
(34,261,o),
(52,301,o),
(82,335,cs),
(142,403,o),
(246,441,o),
(377,441,c),
(407,440,o),
(429,440,o),
(444,439,cs),
(459,438,o),
(481,438,o),
(510,437,c)
);
}
);
width = 664;
},
{
anchors = (
{
name = m.uni0324_3;
position = "{299, -11}";
},
{
name = t.uni0308_1_3;
position = "{391, 696}";
},
{
name = m.uni0328_2;
position = "{80, 606}";
}
);
layerId = "E454AF73-A037-40C8-8E6D-4D661AF510B7";
shapes = (
{
closed = 1;
nodes = (
(553,332,l),
(534,334,o),
(520,335,o),
(511,336,cs),
(502,337,o),
(488,338,o),
(469,340,cs),
(461,341,o),
(434,342,o),
(387,343,cs),
(224,346,o),
(131,291,o),
(119,191,cs),
(116,164,o),
(119,141,o),
(129,121,cs),
(149,80,o),
(193,56,o),
(250,56,cs),
(293,56,o),
(335,65,o),
(374,84,cs),
(453,121,o),
(517,217,o),
(534,386,cs),
(549,539,o),
(477,628,o),
(336,628,cs),
(259,628,o),
(186,601,o),
(114,550,c),
(77,609,l),
(157,672,o),
(246,702,o),
(341,702,cs),
(406,702,o),
(460,688,o),
(505,660,cs),
(594,604,o),
(634,497,o),
(617,360,cs),
(606,277,o),
(584,208,o),
(550,151,cs),
(482,38,o),
(375,-18,o),
(250,-18,cs),
(204,-18,o),
(164,-9,o),
(130,10,cs),
(61,47,o),
(26,117,o),
(37,200,cs),
(42,245,o),
(60,283,o),
(90,316,cs),
(150,381,o),
(253,417,o),
(388,417,cs),
(404,417,o),
(433,415,o),
(476,412,cs),
(519,409,o),
(540,406,o),
(539,405,c)
);
}
);
width = 644;
},
{
anchors = (
{
name = m.uni0324_3;
position = "{299, -11}";
},
{
name = t.uni0308_1_3;
position = "{391, 696}";
},
{
name = m.uni0328_2;
position = "{80, 606}";
}
);
layerId = "E7A4057C-21B9-4802-88F9-F6F08CC0F8D4";
shapes = (
{
closed = 1;
nodes = (
(567,353,l),
(562,354,o),
(559,354,o),
(556,354,cs),
(553,354,o),
(550,354,o),
(545,355,c),
(477,359,o),
(417,362,o),
(365,363,cs),
(202,366,o),
(97,300,o),
(82,187,cs),
(78,157,o),
(82,130,o),
(93,105,cs),
(116,56,o),
(168,25,o),
(237,25,cs),
(290,25,o),
(340,40,o),
(388,71,cs),
(483,132,o),
(551,242,o),
(564,367,cs),
(585,556,o),
(502,666,o),
(333,666,cs),
(248,666,o),
(175,638,o),
(102,587,c),
(83,616,l),
(167,675,o),
(239,701,o),
(334,701,cs),
(397,701,o),
(451,688,o),
(494,662,cs),
(581,609,o),
(620,504,o),
(603,360,cs),
(594,291,o),
(573,228,o),
(539,172,cs),
(471,59,o),
(361,-10,o),
(240,-10,cs),
(196,-10,o),
(158,-2,o),
(127,16,c),
(63,50,o),
(33,114,o),
(42,191,cs),
(47,235,o),
(64,273,o),
(92,304,cs),
(147,367,o),
(242,399,o),
(366,399,cs),
(395,399,o),
(435,398,o),
(484,395,cs),
(533,392,o),
(562,389,o),
(571,386,c)
);
}
);
width = 635;
}
);
leftKerningGroup = C2;
rightKerningGroup = D;
unicode = 399;
},
{
glyphname = F;
layers = (
{
anchors = (
{
name = m.uni0324_3;
position = "{268, -11}";
},
{
name = t.uni0308_1_3;
position = "{355, 684}";
}
);
layerId = "CF1FEFF6-0598-468F-902F-1EDAA234C103";
shapes = (
{
closed = 1;
nodes = (
(119,684,l),
(591,684,l),
(573,536,l),
(267,536,l),
(251,411,l),
(521,411,l),
(503,263,l),
(233,263,l),
(202,1,l),
(35,1,l)
);
}
);
width = 561;
},
{
anchors = (
{
name = m.uni0324_3;
position = "{279, -11}";
},
{
name = t.uni0308_1_3;
position = "{365, 684}";
}
);
layerId = "E454AF73-A037-40C8-8E6D-4D661AF510B7";
shapes = (
{
closed = 1;
nodes = (
(133,686,l),
(561,686,l),
(552,610,l),
(207,610,l),
(180,393,l),
(507,393,l),
(498,317,l),
(171,317,l),
(132,-1,l),
(49,-1,l)
);
}
);
width = 526;
},
{
anchors = (
{
name = m.uni0324_3;
position = "{279, -11}";
},
{
name = t.uni0308_1_3;
position = "{365, 684}";
}
);
layerId = "E7A4057C-21B9-4802-88F9-F6F08CC0F8D4";
shapes = (
{
closed = 1;
nodes = (
(137,685,l),
(544,685,l),
(540,648,l),
(171,648,l),
(137,372,l),
(484,372,l),
(479,337,l),
(132,337,l),
(91,1,l),
(53,1,l)
);
}
);
width = 510;
}
);
rightKerningGroup = F;
unicode = 70;
},
{
glyphname = G;
layers = (
{
anchors = (
{
name = m.uni0324_3;
position = "{342, -12}";
},
{
name = t.uni0308_1_3;
position = "{443, 698}";
}
);
layerId = "CF1FEFF6-0598-468F-902F-1EDAA234C103";
shapes = (
{
closed = 1;
nodes = (
(283,-31,o),
(224,-15,o),
(174,17,cs),
(73,80,o),
(22,200,o),
(39,348,cs),
(48,418,o),
(71,481,o),
(108,536,cs),
(183,647,o),
(304,711,o),
(440,711,cs),
(486,711,o),
(528,704,o),
(567,689,cs),
(644,660,o),
(699,602,o),
(712,523,c),
(567,489,l),
(564,502,o),
(558,515,o),
(547,527,cs),
(526,551,o),
(487,567,o),
(439,567,cs),
(398,567,o),
(360,557,o),
(327,536,cs),
(259,495,o),
(214,419,o),
(203,330,cs),
(198,285,o),
(201,247,o),
(213,214,cs),
(236,149,o),
(291,112,o),
(367,112,cs),
(406,112,o),
(440,121,o),
(471,138,cs),
(531,172,o),
(569,236,o),
(578,317,c),
(644,249,l),
(402,249,l),
(419,387,l),
(736,387,l),
(729,336,ls),
(720,262,o),
(699,197,o),
(664,142,cs),
(595,31,o),
(483,-31,o),
(351,-31,cs)
);
}
);
width = 746;
},
{
anchors = (
{
name = m.uni0324_3;
position = "{345, -29}";
},
{
name = t.uni0308_1_3;
position = "{438, 706}";
}
);
layerId = "E454AF73-A037-40C8-8E6D-4D661AF510B7";
shapes = (
{
closed = 1;
nodes = (
(288,-19,o),
(229,-4,o),
(180,28,cs),
(81,90,o),
(32,204,o),
(49,344,cs),
(58,413,o),
(80,474,o),
(117,529,cs),
(189,637,o),
(307,702,o),
(439,702,cs),
(484,702,o),
(525,695,o),
(562,680,cs),
(637,651,o),
(686,596,o),
(697,529,c),
(624,511,l),
(619,534,o),
(609,555,o),
(592,573,cs),
(558,608,o),
(502,628,o),
(438,628,cs),
(387,628,o),
(339,616,o),
(295,591,cs),
(206,541,o),
(144,448,o),
(131,337,cs),
(124,282,o),
(130,234,o),
(147,191,cs),
(181,106,o),
(258,55,o),
(359,55,cs),
(406,55,o),
(450,66,o),
(489,88,cs),
(567,132,o),
(618,214,o),
(630,318,c),
(665,278,l),
(396,278,l),
(405,354,l),
(713,354,l),
(708,314,ls),
(700,247,o),
(680,189,o),
(648,139,cs),
(584,38,o),
(479,-19,o),
(355,-19,cs)
);
}
);
width = 737;
},
{
anchors = (
{
name = m.uni0324_3;
position = "{345, -29}";
},
{
name = t.uni0308_1_3;
position = "{438, 706}";
}
);
layerId = "E7A4057C-21B9-4802-88F9-F6F08CC0F8D4";
shapes = (
{
closed = 1;
nodes = (
(291,-11,o),
(234,4,o),
(185,34,cs),
(88,94,o),
(39,205,o),
(55,341,cs),
(64,411,o),
(86,473,o),
(123,527,cs),
(196,635,o),
(315,696,o),
(443,696,cs),
(488,696,o),
(528,689,o),
(563,675,cs),
(633,646,o),
(677,594,o),
(689,534,c),
(657,525,l),
(652,549,o),
(641,571,o),
(623,592,cs),
(587,633,o),
(525,661,o),
(442,661,cs),
(385,661,o),
(331,648,o),
(281,621,cs),
(180,567,o),
(110,464,o),
(95,337,cs),
(88,276,o),
(94,222,o),
(115,175,cs),
(155,79,o),
(243,24,o),
(358,24,cs),
(411,24,o),
(460,36,o),
(505,61,cs),
(593,110,o),
(652,203,o),
(667,320,c),
(682,300,l),
(398,300,l),
(402,336,l),
(702,336,l),
(700,318,ls),
(693,253,o),
(673,195,o),
(642,146,cs),
(579,46,o),
(477,-11,o),
(357,-11,cs)
);
}
);
width = 736;
}
);
leftKerningGroup = C2;
rightKerningGroup = D;
unicode = 71;
},
{
glyphname = H;
layers = (
{
anchors = (
{
name = m.uni0324_3;
position = "{330, 0}";
},
{
name = t.uni0308_1_3;
position = "{414, 684}";
},
{
name = t.uni0335_4;
position = "{393, 508}";
}
);
layerId = "CF1FEFF6-0598-468F-902F-1EDAA234C103";
shapes = (
{
closed = 1;
nodes = (
(123,685,l),
(289,684,l),
(257,422,l),
(507,422,l),
(539,684,l),
(704,684,l),
(620,0,l),
(455,0,l),
(488,270,l),
(238,270,l),
(205,0,l),
(39,0,l)
);
}
);
width = 717;
},
{
anchors = (
{
name = m.uni0324_3;
position = "{350, 0}";
},
{
name = t.uni0308_1_3;
position = "{433, 684}";
},
{
name = t.uni0335_4;
position = "{411, 522}";
}
);
layerId = "E454AF73-A037-40C8-8E6D-4D661AF510B7";
shapes = (
{
closed = 1;
nodes = (
(140,685,l),
(222,684,l),
(184,394,l),
(561,394,l),
(597,684,l),
(679,684,l),
(595,-1,l),
(513,-1,l),
(552,318,l),
(175,318,l),
(136,-1,l),
(53,-1,l)
);
}
);
width = 705;
},
{
anchors = (
{
name = m.uni0324_3;
position = "{350, 0}";
},
{
name = t.uni0308_1_3;
position = "{433, 684}";
},
{
name = t.uni0335_4;
position = "{411, 522}";
}
);
layerId = "E7A4057C-21B9-4802-88F9-F6F08CC0F8D4";
shapes = (
{
closed = 1;
nodes = (
(146,684,l),
(184,684,l),
(143,376,l),
(568,376,l),
(606,684,l),
(644,684,l),
(560,0,l),
(522,0,l),
(563,340,l),
(138,340,l),
(94,0,l),
(56,0,l)
);
}
);
width = 675;
}
);
unicode = 72;
},
{
glyphname = I;
layers = (
{
anchors = (
{
name = m.uni0324_3;
position = "{119, -1}";
},
{
name = t.uni0308_1_3;
position = "{202, 684}";
},
{
name = t.uni0335_4;
position = "{161, 339}";
},
{
name = m.uni0328_2;
position = "{201, 0}";
}
);
layerId = "CF1FEFF6-0598-468F-902F-1EDAA234C103";
shapes = (
{
closed = 1;
nodes = (
(119,684,l),
(285,684,l),
(201,0,l),
(35,0,l)
);
}
);
width = 298;
},
{
anchors = (
{
name = m.uni0324_3;
position = "{139, -1}";
},
{
name = t.uni0308_1_3;
position = "{218, 683}";
},
{
name = t.uni0335_4;
position = "{180, 336}";
},
{
name = m.uni0328_2;
position = "{241, -2}";
}
);
layerId = "E454AF73-A037-40C8-8E6D-4D661AF510B7";
shapes = (
{
closed = 1;
nodes = (
(132,684,l),
(215,684,l),
(131,-1,l),
(48,-1,l)
);
}
);
width = 241;
},
{
anchors = (
{
name = m.uni0324_3;
position = "{139, -1}";
},
{
name = t.uni0308_1_3;
position = "{218, 683}";
},
{
name = t.uni0335_4;
position = "{180, 336}";
},
{
name = m.uni0328_2;
position = "{241, -2}";
}
);
layerId = "E7A4057C-21B9-4802-88F9-F6F08CC0F8D4";
shapes = (
{
closed = 1;
nodes = (
(137,684,l),
(175,684,l),
(91,1,l),
(53,1,l)
);
}
);
width = 206;
}
);
unicode = 73;
},
{
glyphname = IJ;
layers = (
{
anchors = (
{
name = m.uni0324_3;
position = "{153, 274}";
},
{
name = t.uni0308_1_3;
position = "{206, 684}";
},
{
name = t.uni0335_4;
position = "{180, 477}";
},
{
name = m.uni0328_2;
position = "{235, 275}";
}
);
layerId = "CF1FEFF6-0598-468F-902F-1EDAA234C103";
shapes = (
{
closed = 1;
nodes = (
(380,-22,o),
(446,1,o),
(496,46,cs),
(546,91,o),
(576,154,o),
(586,235,cs),
(641,684,l),
(476,684,l),
(422,246,l),
(419,215,o),
(407,188,o),
(386,165,cs),
(365,142,o),
(337,130,o),
(304,130,cs),
(263,130,o),
(238,146,o),
(228,174,cs),
(223,188,o),
(221,205,o),
(224,226,c),
(69,221,l),
(53,130,o),
(84,53,o),
(159,10,cs),
(196,-11,o),
(243,-22,o),
(299,-22,cs)
);
},
{
closed = 1;
nodes = (
(123,683,l),
(69,275,l),
(235,275,l),
(289,683,l)
);
}
);
width = 647;
},
{
anchors = (
{
name = m.uni0324_3;
position = "{172, 281}";
},
{
name = t.uni0308_1_3;
position = "{222, 684}";
},
{
name = t.uni0335_4;
position = "{198, 478}";
},
{
name = m.uni0328_2;
position = "{274, 280}";
}
);
layerId = "E454AF73-A037-40C8-8E6D-4D661AF510B7";
shapes = (
{
closed = 1;
nodes = (
(341,-13,o),
(399,7,o),
(445,47,cs),
(490,87,o),
(517,141,o),
(526,210,cs),
(584,684,l),
(503,684,l),
(445,217,ls),
(440,170,o),
(422,133,o),
(391,105,cs),
(360,77,o),
(321,63,o),
(275,63,cs),
(219,63,o),
(182,87,o),
(166,121,cs),
(158,138,o),
(155,155,o),
(157,174,c),
(77,167,l),
(70,103,o),
(101,44,o),
(162,12,c),
(192,-5,o),
(228,-13,o),
(270,-13,cs)
);
},
{
closed = 1;
nodes = (
(133,684,l),
(84,240,l),
(167,240,l),
(216,684,l)
);
}
);
width = 602;
},
{
anchors = (
{
name = m.uni0324_3;
position = "{172, 281}";
},
{
name = t.uni0308_1_3;
position = "{222, 684}";
},
{
name = t.uni0335_4;
position = "{198, 478}";
},
{
name = m.uni0328_2;
position = "{274, 280}";
}
);
layerId = "E7A4057C-21B9-4802-88F9-F6F08CC0F8D4";
shapes = (
{
closed = 1;
nodes = (
(358,-6,o),
(413,14,o),
(456,53,cs),
(499,92,o),
(525,146,o),
(533,213,cs),
(591,685,l),
(553,684,l),
(496,218,ls),
(489,160,o),
(468,114,o),
(431,81,cs),
(394,47,o),
(348,30,o),
(293,30,cs),
(233,30,o),
(186,54,o),
(161,98,cs),
(148,120,o),
(142,146,o),
(143,176,c),
(105,173,l),
(102,101,o),
(132,45,o),
(190,16,cs),
(219,1,o),
(253,-6,o),
(293,-6,cs)
);
},
{
closed = 1;
nodes = (
(138,684,l),
(90,235,l),
(128,235,l),
(176,684,l)
);
}
);
width = 614;
}
);
rightKerningGroup = J;
unicode = 306;
},
{
glyphname = J;
layers = (
{
anchors = (
{
name = m.uni0324_3;
position = "{215, -5}";
},
{
name = t.uni0308_1_3;
position = "{446, 684}";
}
);
layerId = "CF1FEFF6-0598-468F-902F-1EDAA234C103";
shapes = (
{
closed = 1;
nodes = (
(286,-22,o),
(346,0,o),
(393,43,cs),
(440,86,o),
(468,146,o),
(477,223,cs),
(533,686,l),
(367,686,l),
(312,234,l),
(309,201,o),
(299,174,o),
(282,154,cs),
(265,133,o),
(244,123,o),
(219,123,cs),
(164,123,o),
(147,164,o),
(158,228,c),
(9,228,l),
(-11,137,o),
(17,57,o),
(85,12,cs),
(119,-11,o),
(161,-22,o),
(212,-22,cs)
);
}
);
width = 539;
},
{
anchors = (
{
name = m.uni0324_3;
position = "{232, -8}";
},
{
name = t.uni0308_1_3;
position = "{449, 684}";
}
);
layerId = "E454AF73-A037-40C8-8E6D-4D661AF510B7";
shapes = (
{
closed = 1;
nodes = (
(268,-11,o),
(322,9,o),
(365,50,cs),
(408,91,o),
(434,149,o),
(443,224,cs),
(499,684,l),
(417,684,l),
(361,231,ls),
(354,177,o),
(337,136,o),
(310,107,cs),
(283,78,o),
(251,64,o),
(214,64,cs),
(115,64,o),
(73,106,o),
(88,214,c),
(13,214,l),
(0,122,o),
(23,53,o),
(84,17,cs),
(115,-2,o),
(154,-11,o),
(202,-11,cs)
);
}
);
width = 517;
},
{
anchors = (
{
name = m.uni0324_3;
position = "{232, -8}";
},
{
name = t.uni0308_1_3;
position = "{449, 684}";
}
);
layerId = "E7A4057C-21B9-4802-88F9-F6F08CC0F8D4";
shapes = (
{
closed = 1;
nodes = (
(247,-6,o),
(299,14,o),
(340,53,cs),
(381,92,o),
(405,144,o),
(413,210,cs),
(471,685,l),
(431,684,l),
(377,214,ls),
(370,157,o),
(349,112,o),
(314,79,cs),
(279,46,o),
(235,29,o),
(184,29,cs),
(89,29,o),
(38,82,o),
(47,191,c),
(12,191,l),
(3,112,o),
(28,51,o),
(84,19,c),
(111,2,o),
(145,-6,o),
(184,-6,cs)
);
}
);
width = 494;
}
);
leftKerningGroup = J2;
rightKerningGroup = J;
unicode = 74;
},
{
glyphname = K;
layers = (
{
anchors = (
{
name = m.uni0324_3;
position = "{321, 0}";
},
{
name = t.uni0308_1_3;
position = "{388, 684}";
}
);
layerId = "CF1FEFF6-0598-468F-902F-1EDAA234C103";
shapes = (
{
closed = 1;
nodes = (
(119,684,l),
(285,684,l),
(201,0,l),
(35,0,l)
);
},
{
closed = 1;
nodes = (
(467,0,l),
(317,312,l),
(441,416,l),
(660,0,l)
);
},
{
closed = 1;
nodes = (
(159,275,l),
(516,684,l),
(704,684,l),
(131,37,l)
);
}
);
width = 667;
},
{
anchors = (
{
name = m.uni0324_3;
position = "{340, 0}";
},
{
name = t.uni0308_1_3;
position = "{408, 684}";
}
);
layerId = "E454AF73-A037-40C8-8E6D-4D661AF510B7";
shapes = (
{
closed = 1;
nodes = (
(132,684,l),
(215,684,l),
(131,0,l),
(48,0,l)
);
},
{
closed = 1;
nodes = (
(482,0,l),
(297,385,l),
(361,437,l),
(578,0,l)
);
},
{
closed = 1;
nodes = (
(138,270,l),
(533,684,l),
(643,684,l),
(125,142,l)
);
}
);
width = 618;
},
{
anchors = (
{
name = m.uni0324_3;
position = "{340, 0}";
},
{
name = t.uni0308_1_3;
position = "{408, 684}";
}
);
layerId = "E7A4057C-21B9-4802-88F9-F6F08CC0F8D4";
shapes = (
{
closed = 1;
nodes = (
(137,684,l),
(175,684,l),
(91,1,l),
(53,1,l)
);
},
{
closed = 1;
nodes = (
(491,0,l),
(301,400,l),
(328,434,l),
(543,0,l)
);
},
{
closed = 1;
nodes = (
(113,258,l),
(529,684,l),
(584,684,l),
(107,196,l)
);
}
);
width = 601;
}
);
rightKerningGroup = K;
unicode = 75;
},
{
glyphname = L;
layers = (
{
anchors = (
{
name = m.uni0324_3;
position = "{279, -5}";
},
{
name = t.uni0308_1_3;
position = "{202, 684}";
},
{
name = t.uni0335_4;
position = "{165, 370}";
},
{
name = t.uni030C.alt_4;
position = "{341, 436}";
}
);
layerId = "CF1FEFF6-0598-468F-902F-1EDAA234C103";
shapes = (
{
closed = 1;
nodes = (
(119,684,l),
(285,684,l),
(219,148,l),
(533,148,l),
(515,0,l),
(35,0,l)
);
}
);
width = 561;
},
{
anchors = (
{
name = m.uni0324_3;
position = "{301, 1}";
},
{
name = t.uni0308_1_3;
position = "{220, 685}";
},
{
name = t.uni0335_4;
position = "{176, 353}";
},
{
name = t.uni030C.alt_4;
position = "{365, 414}";
}
);
layerId = "E454AF73-A037-40C8-8E6D-4D661AF510B7";
shapes = (
{
closed = 1;
nodes = (
(132,684,l),
(215,684,l),
(140,75,l),
(486,75,l),
(477,-1,l),
(48,-1,l)
);
}
);
width = 521;
},
{
anchors = (
{
name = m.uni0324_3;
position = "{301, 1}";
},
{
name = t.uni0308_1_3;
position = "{220, 685}";
},
{
name = t.uni0335_4;
position = "{176, 353}";
},
{
name = t.uni030C.alt_4;
position = "{365, 414}";
}
);
layerId = "E7A4057C-21B9-4802-88F9-F6F08CC0F8D4";
shapes = (
{
closed = 1;
nodes = (
(138,684,l),
(176,684,l),
(96,36,l),
(473,36,l),
(469,0,l),
(53,0,l)
);
}
);
width = 517;
}
);
rightKerningGroup = L;
unicode = 76;
},
{
glyphname = M;
leftMetricsKey = "=23";
rightMetricsKey = "=13";
layers = (
{
anchors = (
{
name = b.uni0324_2;
position = "{369, 0}";
},
{
name = t.uni0308_1;
position = "{449, 684}";
}
);
layerId = "CF1FEFF6-0598-468F-902F-1EDAA234C103";
leftMetricsKey = "=9";
shapes = (
{
closed = 1;
nodes = (
(434,4,l),
(626,443,l),
(615,495,l),
(601,439,l),
(595,0,l),
(767,0,l),
(748,684,l),
(601,684,l),
(414,302,l),
(400,256,l),
(396,302,l),
(306,684,l),
(158,684,l),
(-21,0,l),
(152,0,l,{name = cr01;}),
(248,418,l),
(238,466,l),
(224,418,l),
(313,4,l)
);
}
);
width = 810;
},
{
anchors = (
{
name = b.uni0324_2;
position = "{373, 0}";
},
{
name = t.uni0308_1;
position = "{495, 684}";
}
);
layerId = "E454AF73-A037-40C8-8E6D-4D661AF510B7";
rightMetricsKey = "=23";
shapes = (
{
closed = 1;
nodes = (
(380,-1,l),
(629,537,l),
(636,562,l),
(634,537,l),
(613,0,l),
(696,0,l),
(710,684,l),
(630,684,l),
(370,147,l),
(355,101,l),
(351,147,l),
(225,684,l),
(144,684,l),
(-7,-1,l),
(75,-1,l,{name = cr01;}),
(185,531,l),
(191,556,l),
(193,531,l),
(308,-1,l)
);
}
);
width = 749;
},
{
anchors = (
{
name = b.uni0324_2;
position = "{386, 1}";
},
{
name = t.uni0308_1;
position = "{507, 685}";
}
);
layerId = "E7A4057C-21B9-4802-88F9-F6F08CC0F8D4";
leftMetricsKey = "=27";
rightMetricsKey = "=29";
shapes = (
{
closed = 1;
nodes = (
(370,1,l),
(639,572,l),
(676,649,l),
(672,572,l),
(651,0,l),
(689,0,l),
(711,685,l),
(663,685,l),
(376,103,l),
(349,35,l),
(338,103,l),
(196,685,l),
(150,685,l),
(-3,0,l),
(39,0,l,{name = cr01;}),
(158,571,l),
(175,651,l),
(193,571,l),
(320,1,l)
);
}
);
width = 748;
}
);
leftKerningGroup = M;
rightKerningGroup = M;
unicode = 77;
},
{
glyphname = N;
layers = (
{
anchors = (
{
name = m.uni0324_3;
position = "{335, 0}";
},
{
name = t.uni0308_1_3;
position = "{421, 684}";
}
);
layerId = "CF1FEFF6-0598-468F-902F-1EDAA234C103";
shapes = (
{
closed = 1;
nodes = (
(278,338,l),
(517,0,l),
(620,0,l),
(703,684,l),
(536,684,l),
(499,361,l),
(497,298,l),
(442,384,l),
(226,684,l),
(121,684,l),
(39,0,l),
(205,0,l),
(247,330,l),
(242,398,l)
);
}
);
width = 717;
},
{
anchors = (
{
name = m.uni0324_3;
position = "{339, 0}";
},
{
name = t.uni0308_1_3;
position = "{425, 684}";
}
);
layerId = "E454AF73-A037-40C8-8E6D-4D661AF510B7";
shapes = (
{
closed = 1;
nodes = (
(244,454,l),
(547,0,l),
(596,0,l),
(680,684,l),
(597,684,l),
(543,244,l),
(537,142,l),
(483,230,l),
(192,684,l),
(133,684,l),
(49,-1,l),
(131,-1,l),
(186,440,l),
(192,542,l)
);
}
);
width = 706;
},
{
anchors = (
{
name = m.uni0324_3;
position = "{339, 0}";
},
{
name = t.uni0308_1_3;
position = "{425, 684}";
}
);
layerId = "E7A4057C-21B9-4802-88F9-F6F08CC0F8D4";
shapes = (
{
closed = 1;
nodes = (
(182,590,l),
(554,0,l),
(581,0,l),
(665,685,l),
(627,685,l),
(556,108,l),
(555,67,l),
(533,98,l),
(158,685,l),
(137,685,l),
(53,0,l),
(92,0,l),
(162,585,l),
(161,620,l)
);
}
);
width = 696;
}
);
unicode = 78;
},
{
glyphname = Nj;
layers = (
{
anchors = (
{
name = m.uni0324_3;
position = "{866, -260}";
},
{
name = t.uni0308_1_3;
position = "{915, 732}";
}
);
layerId = "CF1FEFF6-0598-468F-902F-1EDAA234C103";
shapes = (
{
closed = 1;
nodes = (
(471,53,l),
(517,-5,l),
(620,-5,l),
(703,684,l),
(536,684,l),
(499,356,l),
(497,293,l),
(442,379,l),
(276,636,l),
(226,694,l),
(121,694,l),
(39,0,l),
(205,0,l),
(247,340,l),
(242,408,l),
(278,348,l)
);
},
{
closed = 1;
nodes = (
(972,498,l),
(807,498,l),
(736,-85,ls),
(731,-128,o),
(716,-146,o),
(689,-146,cs),
(672,-146,o),
(664,-135,o),
(665,-122,c),
(524,-126,l),
(521,-186,o),
(549,-237,o),
(600,-266,cs),
(625,-281,o),
(655,-289,o),
(688,-290,cs),
(743,-293,o),
(790,-277,o),
(829,-242,cs),
(868,-207,o),
(892,-155,o),
(901,-84,cs)
);
},
{
closed = 1;
nodes = (
(921,541,o),
(944,550,o),
(964,567,cs),
(983,584,o),
(995,604,o),
(998,627,cs),
(1001,656,o),
(994,680,o),
(976,700,cs),
(958,720,o),
(935,730,o),
(906,730,cs),
(882,730,o),
(861,721,o),
(842,704,cs),
(823,687,o),
(811,666,o),
(808,643,cs),
(805,616,o),
(812,592,o),
(829,572,cs),
(846,551,o),
(869,541,o),
(896,541,cs)
);
}
);
width = 993;
},
{
anchors = (
{
name = m.uni0324_3;
position = "{812, -260}";
},
{
name = t.uni0308_1_3;
position = "{948, 752}";
}
);
layerId = "E454AF73-A037-40C8-8E6D-4D661AF510B7";
shapes = (
{
closed = 1;
nodes = (
(471,91,l),
(546,-11,l),
(595,-11,l),
(680,684,l),
(597,684,l),
(542,233,l),
(536,131,l),
(482,219,l),
(257,594,l),
(193,696,l),
(134,696,l),
(49,-1,l),
(131,-1,l),
(187,452,l),
(193,554,l),
(245,466,l)
);
},
{
closed = 1;
nodes = (
(890,500,l),
(809,500,l),
(733,-114,ls),
(728,-154,o),
(704,-175,o),
(672,-174,cs),
(647,-173,o),
(635,-158,o),
(632,-135,c),
(560,-141,l),
(560,-181,o),
(581,-214,o),
(614,-233,cs),
(630,-242,o),
(648,-247,o),
(668,-248,cs),
(701,-249,o),
(732,-239,o),
(761,-218,cs),
(790,-197,o),
(807,-164,o),
(814,-120,c)
);
},
{
closed = 1;
nodes = (
(875,563,o),
(887,568,o),
(898,578,cs),
(909,587,o),
(916,598,o),
(917,611,cs),
(919,626,o),
(915,639,o),
(905,651,cs),
(895,662,o),
(883,668,o),
(868,668,cs),
(855,668,o),
(843,663,o),
(832,653,cs),
(821,643,o),
(814,632,o),
(813,619,cs),
(812,604,o),
(816,591,o),
(826,580,cs),
(835,569,o),
(847,563,o),
(862,563,cs)
);
}
);
width = 927;
},
{
anchors = (
{
name = m.uni0324_3;
position = "{812, -260}";
},
{
name = t.uni0308_1_3;
position = "{948, 752}";
}
);
layerId = "E7A4057C-21B9-4802-88F9-F6F08CC0F8D4";
shapes = (
{
closed = 1;
nodes = (
(499,82,l),
(554,-1,l),
(581,-1,l),
(665,685,l),
(627,685,l),
(556,107,l),
(555,66,l),
(533,97,l),
(215,601,l),
(158,683,l),
(137,683,l),
(53,0,l),
(92,0,l),
(162,583,l),
(161,618,l),
(182,588,l)
);
},
{
closed = 1;
nodes = (
(840,500,l),
(802,500,l),
(726,-123,l),
(721,-174,o),
(689,-200,o),
(646,-200,cs),
(610,-200,o),
(588,-174,o),
(589,-138,c),
(554,-141,l),
(553,-176,o),
(569,-206,o),
(598,-223,cs),
(612,-232,o),
(628,-236,o),
(647,-236,cs),
(676,-236,o),
(702,-226,o),
(725,-206,c),
(747,-185,o),
(760,-158,o),
(764,-125,cs)
);
},
{
closed = 1;
nodes = (
(840,579,o),
(849,582,o),
(856,588,cs),
(863,594,o),
(867,602,o),
(868,612,cs),
(869,623,o),
(866,631,o),
(860,638,cs),
(854,645,o),
(846,648,o),
(835,648,cs),
(826,648,o),
(818,645,o),
(811,639,cs),
(804,633,o),
(800,625,o),
(799,616,cs),
(798,605,o),
(800,596,o),
(806,589,cs),
(811,582,o),
(819,579,o),
(830,579,cs)
);
}
);
width = 883;
}
);
unicode = 459;
},
{
glyphname = O;
layers = (
{
anchors = (
{
name = m.uni0324_3;
position = "{358, -15}";
},
{
name = t.uni0308_1_3;
position = "{449, 699}";
},
{
name = t.uni0335_4;
position = "{400, 337}";
},
{
name = t.uni031B_4;
position = "{583, 687}";
},
{
name = m.uni0328_2;
position = "{574, 37}";
},
{
name = t.uni030C.alt_4;
position = "{805, 643}";
}
);
layerId = "CF1FEFF6-0598-468F-902F-1EDAA234C103";
shapes = (
{
closed = 1;
nodes = (
(497,-32,o),
(619,30,o),
(695,141,cs),
(733,196,o),
(756,260,o),
(765,333,cs),
(773,400,o),
(764,462,o),
(739,520,cs),
(713,578,o),
(674,624,o),
(623,659,cs),
(572,694,o),
(514,711,o),
(449,711,cs),
(308,711,o),
(185,646,o),
(109,533,cs),
(71,476,o),
(47,411,o),
(38,338,cs),
(30,274,o),
(39,214,o),
(65,157,cs),
(91,100,o),
(130,54,o),
(182,20,cs),
(233,-15,o),
(291,-32,o),
(354,-32,cs)
);
},
{
closed = 1;
nodes = (
(301,115,o),
(243,157,o),
(216,223,cs),
(203,256,o),
(198,292,o),
(203,332,cs),
(214,420,o),
(259,494,o),
(324,534,c),
(357,553,o),
(392,563,o),
(430,563,cs),
(505,563,o),
(563,525,o),
(589,458,cs),
(602,425,o),
(605,387,o),
(600,344,cs),
(589,257,o),
(545,184,o),
(480,145,cs),
(447,125,o),
(412,115,o),
(373,115,cs)
);
}
);
width = 782;
},
{
anchors = (
{
name = m.uni0324_3;
position = "{368, -24}";
},
{
name = t.uni0308_1_3;
position = "{461, 711}";
},
{
name = t.uni0335_4;
position = "{409, 336}";
},
{
name = t.uni031B_4;
position = "{604, 692}";
},
{
name = m.uni0328_2;
position = "{606, 41}";
},
{
name = t.uni030C.alt_4;
position = "{818, 643}";
}
);
layerId = "E454AF73-A037-40C8-8E6D-4D661AF510B7";
shapes = (
{
closed = 1;
nodes = (
(477,-19,o),
(595,49,o),
(668,162,cs),
(704,218,o),
(726,281,o),
(735,352,cs),
(743,417,o),
(735,477,o),
(712,531,cs),
(689,584,o),
(653,627,o),
(605,658,cs),
(557,689,o),
(501,704,o),
(438,704,cs),
(306,704,o),
(188,638,o),
(116,527,cs),
(79,471,o),
(57,408,o),
(48,337,cs),
(40,272,o),
(48,212,o),
(71,158,cs),
(94,103,o),
(130,60,o),
(178,29,cs),
(225,-3,o),
(280,-19,o),
(342,-19,cs)
);
},
{
closed = 1;
nodes = (
(257,55,o),
(183,109,o),
(149,198,cs),
(132,242,o),
(126,291,o),
(133,344,cs),
(146,453,o),
(207,544,o),
(293,593,cs),
(336,618,o),
(381,630,o),
(430,630,cs),
(526,630,o),
(601,578,o),
(635,491,cs),
(652,448,o),
(657,399,o),
(650,346,cs),
(637,237,o),
(577,144,o),
(491,93,cs),
(448,68,o),
(401,55,o),
(352,55,cs)
);
}
);
width = 759;
},
{
anchors = (
{
name = m.uni0324_3;
position = "{368, -24}";
},
{
name = t.uni0308_1_3;
position = "{461, 711}";
},
{
name = t.uni0335_4;
position = "{409, 336}";
},
{
name = t.uni031B_4;
position = "{604, 692}";
},
{
name = m.uni0328_2;
position = "{606, 41}";
},
{
name = t.uni030C.alt_4;
position = "{818, 643}";
}
);
layerId = "E7A4057C-21B9-4802-88F9-F6F08CC0F8D4";
shapes = (
{
closed = 1;
nodes = (
(457,-10,o),
(568,53,o),
(637,155,cs),
(671,206,o),
(692,263,o),
(701,327,cs),
(710,396,o),
(705,459,o),
(684,515,cs),
(663,571,o),
(630,615,o),
(585,647,cs),
(539,678,o),
(485,694,o),
(424,694,cs),
(300,694,o),
(188,631,o),
(120,527,cs),
(85,474,o),
(64,415,o),
(56,350,cs),
(47,281,o),
(54,220,o),
(75,165,cs),
(96,110,o),
(129,67,o),
(174,36,cs),
(219,5,o),
(272,-10,o),
(333,-10,cs)
);
},
{
closed = 1;
nodes = (
(229,25,o),
(147,83,o),
(111,182,cs),
(93,231,o),
(88,287,o),
(96,349,cs),
(111,464,o),
(176,563,o),
(269,618,cs),
(316,645,o),
(366,659,o),
(420,659,cs),
(529,659,o),
(611,600,o),
(647,503,cs),
(664,454,o),
(669,399,o),
(662,338,cs),
(647,222,o),
(584,122,o),
(490,67,cs),
(443,39,o),
(392,25,o),
(337,25,cs)
);
}
);
width = 736;
}
);
leftKerningGroup = C2;
rightKerningGroup = D;
unicode = 79;
},
{
glyphname = OE;
layers = (
{
anchors = (
{
name = m.uni0324_3;
position = "{529, 0}";
},
{
name = t.uni0308_1_3;
position = "{515, 695}";
},
{
name = m.uni0328_2;
position = "{987, 6}";
}
);
layerId = "CF1FEFF6-0598-468F-902F-1EDAA234C103";
shapes = (
{
closed = 1;
nodes = (
(409,-12,o),
(455,-4,o),
(499,13,c),
(517,198,l),
(477,157,o),
(422,132,o),
(365,132,cs),
(297,132,o),
(242,170,o),
(218,234,cs),
(206,265,o),
(202,300,o),
(207,339,cs),
(218,424,o),
(264,497,o),
(329,537,cs),
(361,557,o),
(396,567,o),
(433,567,cs),
(488,567,o),
(530,547,o),
(559,506,c),
(581,684,l),
(538,702,o),
(490,711,o),
(437,711,cs),
(305,711,o),
(184,644,o),
(109,536,cs),
(71,482,o),
(48,422,o),
(40,355,cs),
(24,219,o),
(78,101,o),
(182,37,cs),
(234,4,o),
(294,-12,o),
(361,-12,cs)
);
},
{
closed = 1;
nodes = (
(579,690,l),
(495,6,l),
(987,6,l),
(1005,154,l),
(679,154,l),
(695,279,l),
(975,279,l),
(993,427,l),
(713,427,l),
(727,542,l),
(1038,542,l),
(1056,690,l)
);
}
);
width = 1046;
},
{
anchors = (
{
name = m.uni0324_3;
position = "{565, 12}";
},
{
name = t.uni0308_1_3;
position = "{452, 702}";
},
{
name = m.uni0328_2;
position = "{1001, 8}";
}
);
layerId = "E454AF73-A037-40C8-8E6D-4D661AF510B7";
shapes = (
{
closed = 1;
nodes = (
(401,-15,o),
(441,-8,o),
(477,5,c),
(485,91,l),
(444,71,o),
(401,59,o),
(357,59,cs),
(260,59,o),
(184,112,o),
(150,199,cs),
(133,242,o),
(127,290,o),
(133,341,cs),
(145,446,o),
(206,541,o),
(294,593,cs),
(337,619,o),
(384,632,o),
(434,632,cs),
(476,632,o),
(515,622,o),
(551,602,c),
(557,684,l),
(520,699,o),
(480,706,o),
(437,706,cs),
(308,706,o),
(189,638,o),
(116,529,cs),
(79,474,o),
(57,414,o),
(49,349,cs),
(33,216,o),
(84,98,o),
(183,34,cs),
(232,1,o),
(290,-15,o),
(356,-15,cs)
);
},
{
closed = 1;
nodes = (
(549,686,l),
(465,1,l),
(934,1,l),
(943,77,l),
(556,77,l),
(587,325,l),
(908,325,l),
(917,401,l),
(596,401,l),
(622,610,l),
(990,610,l),
(999,686,l)
);
}
);
width = 988;
},
{
anchors = (
{
name = m.uni0324_3;
position = "{565, 12}";
},
{
name = t.uni0308_1_3;
position = "{452, 702}";
},
{
name = m.uni0328_2;
position = "{1001, 8}";
}
);
layerId = "E7A4057C-21B9-4802-88F9-F6F08CC0F8D4";
shapes = (
{
closed = 1;
nodes = (
(395,-12,o),
(444,-2,o),
(492,17,c),
(495,59,l),
(450,35,o),
(401,23,o),
(346,23,cs),
(237,23,o),
(152,82,o),
(114,179,cs),
(95,228,o),
(89,282,o),
(96,343,cs),
(111,464,o),
(177,568,o),
(274,625,cs),
(322,653,o),
(374,667,o),
(429,667,cs),
(480,667,o),
(526,655,o),
(567,630,c),
(571,672,l),
(527,692,o),
(480,702,o),
(430,702,cs),
(303,702,o),
(191,637,o),
(121,529,cs),
(86,475,o),
(64,414,o),
(56,347,cs),
(40,210,o),
(86,95,o),
(180,34,cs),
(227,3,o),
(282,-12,o),
(346,-12,cs)
);
},
{
closed = 1;
nodes = (
(553,683,l),
(469,-2,l),
(920,-2,l),
(924,34,l),
(512,34,l),
(550,344,l),
(889,344,l),
(894,380,l),
(554,380,l),
(587,647,l),
(980,647,l),
(984,683,l)
);
}
);
width = 975;
}
);
leftKerningGroup = C2;
rightKerningGroup = E;
unicode = 338;
},
{
glyphname = P;
layers = (
{
anchors = (
{
name = m.uni0324_3;
position = "{259, -2}";
},
{
name = t.uni0308_1_3;
position = "{337, 684}";
}
);
layerId = "CF1FEFF6-0598-468F-902F-1EDAA234C103";
shapes = (
{
closed = 1;
nodes = (
(416,189,o),
(498,236,o),
(543,308,cs),
(565,344,o),
(579,383,o),
(584,426,cs),
(596,526,o),
(560,607,o),
(489,651,c),
(453,672,o),
(411,683,o),
(364,683,cs),
(120,683,l),
(101,531,l),
(337,531,ls),
(360,531,o),
(380,524,o),
(397,510,cs),
(414,496,o),
(421,473,o),
(417,442,cs),
(409,383,o),
(367,340,o),
(287,340,cs),
(278,340,o),
(269,341,o),
(258,342,cs),
(247,343,o),
(237,344,o),
(228,347,cs),
(223,348,o),
(219,350,o),
(217,351,c),
(205,203,l),
(213,200,o),
(225,197,o),
(242,194,cs),
(263,191,o),
(285,189,o),
(307,189,cs)
);
},
{
closed = 1;
nodes = (
(105,559,l),
(36,-1,l),
(203,-1,l),
(270,547,l)
);
}
);
width = 583;
},
{
anchors = (
{
name = m.uni0324_3;
position = "{282, -2}";
},
{
name = t.uni0308_1_3;
position = "{354, 684}";
}
);
layerId = "E454AF73-A037-40C8-8E6D-4D661AF510B7";
shapes = (
{
closed = 1;
nodes = (
(361,218,o),
(450,258,o),
(499,329,cs),
(524,364,o),
(539,406,o),
(545,453,cs),
(556,541,o),
(527,616,o),
(467,656,cs),
(437,676,o),
(401,686,o),
(359,686,cs),
(133,686,l),
(124,610,l),
(341,610,ls),
(384,610,o),
(416,597,o),
(438,572,cs),
(460,546,o),
(468,510,o),
(462,464,cs),
(449,359,o),
(377,298,o),
(254,294,c),
(243,293,o),
(229,294,o),
(211,296,cs),
(193,298,o),
(175,300,o),
(158,302,cs),
(151,303,o),
(143,304,o),
(136,305,c),
(130,228,l),
(134,228,o),
(149,227,o),
(176,224,cs),
(208,220,o),
(229,218,o),
(240,218,cs)
);
},
{
closed = 1;
nodes = (
(132,683,l),
(48,-1,l),
(131,-1,l),
(215,683,l)
);
}
);
width = 549;
},
{
anchors = (
{
name = m.uni0324_3;
position = "{282, -2}";
},
{
name = t.uni0308_1_3;
position = "{354, 684}";
}
);
layerId = "E7A4057C-21B9-4802-88F9-F6F08CC0F8D4";
shapes = (
{
closed = 1;
nodes = (
(347,236,o),
(436,276,o),
(485,344,cs),
(510,377,o),
(525,416,o),
(530,461,cs),
(541,552,o),
(513,621,o),
(452,658,cs),
(421,676,o),
(384,685,o),
(340,685,cs),
(139,685,l),
(135,649,l),
(324,649,ls),
(387,649,o),
(432,633,o),
(460,601,cs),
(488,569,o),
(498,524,o),
(491,467,cs),
(475,344,o),
(382,279,o),
(241,272,cs),
(230,271,o),
(213,272,o),
(191,273,cs),
(168,274,o),
(149,275,o),
(133,278,cs),
(126,279,o),
(119,280,o),
(113,283,c),
(110,248,l),
(116,245,o),
(133,242,o),
(162,239,cs),
(188,237,o),
(210,236,o),
(228,236,cs)
);
},
{
closed = 1;
nodes = (
(137,681,l),
(53,0,l),
(93,0,l),
(177,681,l)
);
}
);
width = 541;
}
);
rightKerningGroup = P;
unicode = 80;
},
{
glyphname = Thorn;
layers = (
{
anchors = (
{
name = m.uni0324_3;
position = "{246, 0}";
},
{
name = t.uni0308_1_3;
position = "{330, 684}";
}
);
layerId = "CF1FEFF6-0598-468F-902F-1EDAA234C103";
shapes = (
{
closed = 1;
nodes = (
(394,102,o),
(474,149,o),
(518,219,cs),
(540,254,o),
(554,292,o),
(559,334,cs),
(571,433,o),
(536,513,o),
(469,555,cs),
(435,576,o),
(396,586,o),
(351,586,cs),
(109,586,l),
(90,434,l),
(324,434,ls),
(363,434,o),
(399,409,o),
(392,350,cs),
(389,323,o),
(377,300,o),
(356,281,cs),
(335,262,o),
(305,253,o),
(266,253,cs),
(260,253,o),
(254,253,o),
(248,253,c),
(238,254,o),
(229,255,o),
(220,257,cs),
(211,258,o),
(203,261,o),
(196,264,c),
(183,116,l),
(190,113,o),
(201,111,o),
(215,109,cs),
(229,106,o),
(244,104,o),
(260,103,cs),
(266,102,o),
(275,102,o),
(286,102,cs)
);
},
{
closed = 1;
nodes = (
(120,688,l),
(36,-1,l),
(202,-1,l),
(286,684,l)
);
}
);
width = 570;
},
{
anchors = (
{
name = m.uni0324_3;
position = "{265, 0}";
},
{
name = t.uni0308_1_3;
position = "{349, 684}";
}
);
layerId = "E454AF73-A037-40C8-8E6D-4D661AF510B7";
shapes = (
{
closed = 1;
nodes = (
(336,132,o),
(417,163,o),
(469,228,cs),
(494,260,o),
(510,300,o),
(516,349,cs),
(527,433,o),
(499,500,o),
(443,538,cs),
(415,557,o),
(381,567,o),
(341,569,c),
(186,569,l),
(177,493,l),
(315,493,ls),
(400,493,o),
(444,447,o),
(433,360,cs),
(427,309,o),
(407,271,o),
(374,246,cs),
(341,221,o),
(299,208,o),
(249,208,cs),
(243,208,o),
(237,208,o),
(231,208,c),
(212,207,o),
(192,207,o),
(169,208,c),
(146,208,o),
(131,209,o),
(122,210,c),
(116,133,l),
(120,132,o),
(133,132,o),
(154,132,cs),
(175,132,o),
(196,132,o),
(216,132,cs),
(225,132,o),
(235,132,o),
(244,132,cs)
);
},
{
closed = 1;
nodes = (
(133,686,l),
(49,-1,l),
(132,-1,l),
(216,686,l)
);
}
);
width = 533;
},
{
anchors = (
{
name = m.uni0324_3;
position = "{265, 0}";
},
{
name = t.uni0308_1_3;
position = "{349, 684}";
}
);
layerId = "E7A4057C-21B9-4802-88F9-F6F08CC0F8D4";
shapes = (
{
closed = 1;
nodes = (
(323,143,o),
(399,172,o),
(447,234,cs),
(470,265,o),
(485,304,o),
(491,351,cs),
(500,435,o),
(478,497,o),
(426,531,cs),
(400,548,o),
(368,557,o),
(329,559,c),
(150,559,l),
(145,523,l),
(307,523,ls),
(410,523,o),
(464,464,o),
(451,351,cs),
(444,295,o),
(421,252,o),
(381,222,cs),
(340,192,o),
(291,177,o),
(234,177,cs),
(209,177,o),
(191,177,o),
(179,176,c),
(162,176,o),
(147,176,o),
(132,176,cs),
(117,176,o),
(108,176,o),
(104,177,c),
(102,144,l),
(105,143,o),
(118,143,o),
(143,143,cs),
(168,143,o),
(190,143,o),
(211,143,cs),
(218,143,o),
(224,143,o),
(230,143,cs)
);
},
{
closed = 1;
nodes = (
(137,685,l),
(53,1,l),
(91,1,l),
(175,685,l)
);
}
);
width = 516;
}
);
rightKerningGroup = D;
unicode = 222;
},
{
glyphname = Q;
layers = (
{
anchors = (
{
name = m.uni0324_3;
position = "{342, 0}";
},
{
name = t.uni0308_1_3;
position = "{426, 684}";
},
{
name = t.uni0335_4;
position = "{400, 337}";
},
{
name = t.uni031B_4;
position = "{583, 687}";
},
{
name = m.uni0328_2;
position = "{574, 37}";
},
{
name = t.uni030C.alt_4;
position = "{805, 643}";
}
);
layerId = "CF1FEFF6-0598-468F-902F-1EDAA234C103";
shapes = (
{
closed = 1;
nodes = (
(497,-32,o),
(619,30,o),
(695,141,cs),
(733,196,o),
(756,260,o),
(765,333,cs),
(773,400,o),
(764,462,o),
(739,520,cs),
(713,578,o),
(674,624,o),
(623,659,cs),
(572,694,o),
(514,711,o),
(449,711,cs),
(308,711,o),
(185,646,o),
(109,533,cs),
(71,476,o),
(47,411,o),
(38,338,cs),
(30,274,o),
(39,214,o),
(65,157,cs),
(91,100,o),
(130,54,o),
(182,20,cs),
(233,-15,o),
(291,-32,o),
(354,-32,cs)
);
},
{
closed = 1;
nodes = (
(301,115,o),
(243,157,o),
(216,223,cs),
(203,256,o),
(198,292,o),
(203,332,cs),
(214,420,o),
(259,494,o),
(324,534,c),
(357,553,o),
(392,563,o),
(430,563,cs),
(505,563,o),
(563,525,o),
(589,458,cs),
(602,425,o),
(605,387,o),
(600,344,cs),
(589,257,o),
(545,184,o),
(480,145,cs),
(447,125,o),
(412,115,o),
(373,115,cs)
);
},
{
closed = 1;
nodes = (
(637,-91,l),
(557,-45,o),
(541,1,o),
(534,61,c),
(367,34,l),
(385,-48,o),
(421,-123,o),
(502,-185,c)
);
}
);
width = 782;
},
{
anchors = (
{
name = m.uni0324_3;
position = "{348, 0}";
},
{
name = t.uni0308_1_3;
position = "{432, 684}";
},
{
name = t.uni0335_4;
position = "{409, 336}";
},
{
name = t.uni031B_4;
position = "{604, 692}";
},
{
name = m.uni0328_2;
position = "{606, 41}";
},
{
name = t.uni030C.alt_4;
position = "{818, 643}";
}
);
layerId = "E454AF73-A037-40C8-8E6D-4D661AF510B7";
shapes = (
{
closed = 1;
nodes = (
(477,-19,o),
(595,49,o),
(668,162,cs),
(704,218,o),
(726,281,o),
(735,352,cs),
(743,417,o),
(735,477,o),
(712,531,cs),
(689,584,o),
(653,627,o),
(605,658,cs),
(557,689,o),
(501,704,o),
(438,704,cs),
(306,704,o),
(188,638,o),
(116,527,cs),
(79,471,o),
(57,408,o),
(48,337,cs),
(40,272,o),
(48,212,o),
(71,158,cs),
(94,103,o),
(130,60,o),
(178,29,cs),
(225,-3,o),
(280,-19,o),
(342,-19,cs)
);
},
{
closed = 1;
nodes = (
(257,55,o),
(183,109,o),
(149,198,cs),
(132,242,o),
(126,291,o),
(133,344,cs),
(146,453,o),
(207,544,o),
(293,593,cs),
(336,618,o),
(381,630,o),
(430,630,cs),
(526,630,o),
(601,578,o),
(635,491,cs),
(652,448,o),
(657,399,o),
(650,346,cs),
(637,237,o),
(577,144,o),
(491,93,cs),
(448,68,o),
(401,55,o),
(352,55,cs)
);
},
{
closed = 1;
nodes = (
(602,-117,l),
(536,-87,o),
(508,-27,o),
(503,17,c),
(421,4,l),
(431,-51,o),
(473,-125,o),
(536,-164,c)
);
}
);
width = 759;
},
{
anchors = (
{
name = m.uni0324_3;
position = "{348, 0}";
},
{
name = t.uni0308_1_3;
position = "{432, 684}";
},
{
name = t.uni0335_4;
position = "{409, 336}";
},
{
name = t.uni031B_4;
position = "{604, 692}";
},
{
name = m.uni0328_2;
position = "{606, 41}";
},
{
name = t.uni030C.alt_4;
position = "{818, 643}";
}
);
layerId = "E7A4057C-21B9-4802-88F9-F6F08CC0F8D4";
shapes = (
{
closed = 1;
nodes = (
(457,-10,o),
(568,53,o),
(637,155,cs),
(671,206,o),
(692,263,o),
(701,327,cs),
(710,396,o),
(705,459,o),
(684,515,cs),
(663,571,o),
(630,615,o),
(585,647,cs),
(539,678,o),
(485,694,o),
(424,694,cs),
(300,694,o),
(188,631,o),
(120,527,cs),
(85,474,o),
(64,415,o),
(56,350,cs),
(47,281,o),
(54,220,o),
(75,165,cs),
(96,110,o),
(129,67,o),
(174,36,cs),
(219,5,o),
(272,-10,o),
(333,-10,cs)
);
},
{
closed = 1;
nodes = (
(229,25,o),
(147,83,o),
(111,182,cs),
(93,231,o),
(88,287,o),
(96,349,cs),
(111,464,o),
(176,563,o),
(269,618,cs),
(316,645,o),
(366,659,o),
(420,659,cs),
(529,659,o),
(611,600,o),
(647,503,cs),
(664,454,o),
(669,399,o),
(662,338,cs),
(647,222,o),
(584,122,o),
(490,67,cs),
(443,39,o),
(392,25,o),
(337,25,cs)
);
},
{
closed = 1;
nodes = (
(592,-122,l),
(525,-77,o),
(479,-29,o),
(462,16,c),
(419,9,l),
(438,-39,o),
(492,-95,o),
(559,-143,c)
);
}
);
width = 736;
}
);
leftKerningGroup = C2;
rightKerningGroup = D;
unicode = 81;
},
{
glyphname = R;
layers = (
{
anchors = (
{
name = m.uni0324_3;
position = "{303, 0}";
},
{
name = t.uni0308_1_3;
position = "{331, 684}";
}
);
layerId = "CF1FEFF6-0598-468F-902F-1EDAA234C103";
shapes = (
{
closed = 1;
nodes = (
(394,0,l),
(385,27,o),
(378,43,o),
(375,50,cs),
(365,73,o),
(355,97,o),
(345,120,cs),
(340,133,o),
(335,145,o),
(330,158,cs),
(325,170,o),
(320,182,o),
(315,193,cs),
(311,202,l),
(307,208,o),
(303,213,o),
(299,216,cs),
(290,222,o),
(280,222,o),
(273,222,c),
(294,389,l),
(335,389,ls),
(368,389,o),
(393,395,o),
(410,408,cs),
(427,421,o),
(437,439,o),
(440,463,cs),
(442,480,o),
(440,493,o),
(435,504,cs),
(424,525,o),
(400,536,o),
(357,536,cs),
(270,536,l),
(200,0,l),
(35,0,l),
(123,684,l),
(406,684,ls),
(451,684,o),
(490,676,o),
(522,659,cs),
(586,626,o),
(617,563,o),
(608,488,cs),
(605,461,o),
(597,435,o),
(584,412,c),
(559,364,o),
(515,329,o),
(459,314,cs),
(440,309,o),
(417,306,o),
(401,306,c),
(438,291,o),
(459,277,o),
(472,250,cs),
(480,233,o),
(488,217,o),
(495,200,c),
(500,191,o),
(504,181,o),
(508,171,cs),
(515,156,o),
(539,99,o),
(581,0,c)
);
},
{
closed = 1;
nodes = (
(182,389,l),
(311,389,l),
(311,222,l),
(182,222,l)
);
}
);
width = 631;
},
{
anchors = (
{
name = m.uni0324_3;
position = "{357, -2}";
},
{
name = t.uni0308_1_3;
position = "{363, 684}";
}
);
layerId = "E454AF73-A037-40C8-8E6D-4D661AF510B7";
shapes = (
{
closed = 1;
nodes = (
(434,0,l),
(423,21,o),
(415,34,o),
(411,40,cs),
(405,49,o),
(391,74,o),
(369,114,cs),
(359,132,o),
(352,145,o),
(347,154,cs),
(342,162,o),
(334,175,o),
(324,192,cs),
(315,208,ls),
(306,223,o),
(298,235,o),
(292,242,cs),
(280,256,o),
(260,265,o),
(220,268,c),
(230,345,l),
(306,345,ls),
(349,345,o),
(385,357,o),
(414,380,cs),
(443,403,o),
(459,434,o),
(464,474,cs),
(467,501,o),
(464,524,o),
(455,545,cs),
(438,586,o),
(400,611,o),
(349,611,cs),
(205,611,l),
(130,-1,l),
(48,-1,l),
(133,686,l),
(362,686,ls),
(403,686,o),
(439,677,o),
(468,658,cs),
(527,621,o),
(555,553,o),
(546,474,cs),
(543,451,o),
(536,430,o),
(525,409,cs),
(502,368,o),
(466,333,o),
(419,306,c),
(402,295,o),
(370,289,o),
(343,289,c),
(364,282,o),
(384,259,o),
(405,222,cs),
(422,192,o),
(438,162,o),
(455,131,c),
(464,117,o),
(472,103,o),
(480,89,cs),
(487,77,o),
(503,47,o),
(529,0,c)
);
},
{
closed = 1;
nodes = (
(132,345,l),
(311,345,l),
(311,268,l),
(132,268,l)
);
}
);
width = 571;
},
{
anchors = (
{
name = m.uni0324_3;
position = "{357, -2}";
},
{
name = t.uni0308_1_3;
position = "{363, 684}";
}
);
layerId = "E7A4057C-21B9-4802-88F9-F6F08CC0F8D4";
shapes = (
{
closed = 1;
nodes = (
(448,0,l),
(439,13,o),
(434,22,o),
(432,25,cs),
(418,48,o),
(401,78,o),
(381,117,cs),
(374,130,o),
(368,143,o),
(361,156,cs),
(354,169,o),
(346,182,o),
(338,195,cs),
(329,209,ls),
(320,223,o),
(310,235,o),
(299,246,cs),
(277,267,o),
(244,283,o),
(200,286,c),
(205,321,l),
(296,321,ls),
(347,321,o),
(391,336,o),
(426,367,cs),
(461,397,o),
(481,436,o),
(486,484,cs),
(489,515,o),
(486,543,o),
(475,568,cs),
(454,618,o),
(407,649,o),
(347,649,cs),
(171,649,l),
(91,1,l),
(53,1,l),
(137,685,l),
(355,685,ls),
(392,685,o),
(425,676,o),
(452,659,cs),
(507,623,o),
(533,560,o),
(524,484,cs),
(520,448,o),
(509,415,o),
(490,386,cs),
(453,327,o),
(394,292,o),
(330,292,cs),
(313,292,o),
(308,293,o),
(291,293,c),
(320,282,o),
(329,276,o),
(346,251,cs),
(365,224,o),
(390,181,o),
(420,124,cs),
(431,102,o),
(445,77,o),
(461,49,cs),
(465,43,o),
(475,27,o),
(491,0,c)
);
},
{
closed = 1;
nodes = (
(112,321,l),
(281,321,l),
(281,286,l),
(112,286,l)
);
}
);
width = 560;
}
);
rightKerningGroup = R;
unicode = 82;
},
{
glyphname = S;
layers = (
{
anchors = (
{
name = m.uni0324_3;
position = "{250, -15}";
},
{
name = t.uni0308_1_3;
position = "{338, 699}";
}
);
layerId = "CF1FEFF6-0598-468F-902F-1EDAA234C103";
shapes = (
{
closed = 1;
nodes = (
(348,-29,o),
(437,10,o),
(492,78,cs),
(519,112,o),
(535,150,o),
(540,193,cs),
(548,261,o),
(527,312,o),
(468,359,cs),
(438,382,o),
(397,406,o),
(344,429,c),
(295,452,o),
(266,471,o),
(254,490,cs),
(248,499,o),
(246,509,o),
(247,519,cs),
(250,539,o),
(265,554,o),
(286,562,c),
(297,565,o),
(309,567,o),
(322,567,cs),
(358,567,o),
(377,547,o),
(380,518,c),
(530,555,l),
(530,616,o),
(499,665,o),
(441,691,cs),
(412,704,o),
(377,710,o),
(338,710,cs),
(253,711,o),
(174,682,o),
(126,628,cs),
(102,601,o),
(88,569,o),
(83,533,cs),
(75,464,o),
(103,409,o),
(157,366,cs),
(184,345,o),
(217,325,o),
(258,307,cs),
(289,293,o),
(313,280,o),
(330,268,cs),
(347,255,o),
(358,243,o),
(364,231,cs),
(370,218,o),
(372,205,o),
(370,191,cs),
(367,162,o),
(348,138,o),
(318,126,cs),
(303,120,o),
(286,117,o),
(268,117,c),
(235,118,o),
(210,127,o),
(191,146,cs),
(172,164,o),
(162,189,o),
(161,222,c),
(9,184,l),
(14,104,o),
(53,38,o),
(124,1,cs),
(159,-18,o),
(201,-27,o),
(248,-28,cs)
);
}
);
width = 563;
},
{
anchors = (
{
name = m.uni0324_3;
position = "{264, -12}";
},
{
name = t.uni0308_1_3;
position = "{351, 704}";
}
);
layerId = "E454AF73-A037-40C8-8E6D-4D661AF510B7";
shapes = (
{
closed = 1;
nodes = (
(314,-22,o),
(395,12,o),
(448,75,cs),
(474,106,o),
(490,143,o),
(497,184,cs),
(510,265,o),
(474,316,o),
(418,348,cs),
(390,364,o),
(350,383,o),
(299,405,c),
(251,424,o),
(218,440,o),
(196,470,cs),
(185,485,o),
(181,503,o),
(184,524,cs),
(191,564,o),
(221,599,o),
(262,616,cs),
(282,625,o),
(303,629,o),
(324,628,cs),
(380,625,o),
(416,600,o),
(417,559,c),
(494,581,l),
(491,624,o),
(464,662,o),
(417,685,cs),
(393,696,o),
(365,702,o),
(334,702,cs),
(263,703,o),
(193,674,o),
(145,621,cs),
(121,594,o),
(106,562,o),
(100,525,cs),
(89,453,o),
(124,405,o),
(168,378,cs),
(190,365,o),
(216,352,o),
(246,340,cs),
(292,321,o),
(326,305,o),
(349,293,c),
(371,280,o),
(388,265,o),
(401,247,cs),
(413,229,o),
(417,207,o),
(413,181,cs),
(405,130,o),
(370,89,o),
(322,69,c),
(298,58,o),
(273,54,o),
(247,55,cs),
(208,56,o),
(173,69,o),
(142,94,cs),
(111,119,o),
(94,152,o),
(90,193,c),
(13,170,l),
(16,102,o),
(58,44,o),
(123,10,cs),
(156,-8,o),
(191,-17,o),
(230,-18,cs)
);
}
);
width = 533;
},
{
anchors = (
{
name = m.uni0324_3;
position = "{264, -12}";
},
{
name = t.uni0308_1_3;
position = "{351, 704}";
}
);
layerId = "E7A4057C-21B9-4802-88F9-F6F08CC0F8D4";
shapes = (
{
closed = 1;
nodes = (
(302,-23,o),
(378,9,o),
(428,69,cs),
(453,98,o),
(468,133,o),
(474,173,cs),
(486,249,o),
(448,302,o),
(400,335,c),
(375,351,o),
(342,370,o),
(300,391,cs),
(225,428,o),
(190,448,o),
(167,482,cs),
(155,499,o),
(150,518,o),
(153,541,cs),
(158,588,o),
(197,629,o),
(248,650,cs),
(273,661,o),
(299,665,o),
(324,664,cs),
(389,660,o),
(438,637,o),
(438,589,c),
(476,601,l),
(473,636,o),
(451,667,o),
(409,685,cs),
(388,694,o),
(363,698,o),
(334,699,cs),
(257,702,o),
(190,672,o),
(150,624,cs),
(130,600,o),
(118,573,o),
(113,544,cs),
(104,483,o),
(135,441,o),
(178,414,cs),
(199,401,o),
(233,382,o),
(279,359,cs),
(316,340,o),
(346,324,o),
(368,309,cs),
(390,294,o),
(408,276,o),
(421,255,cs),
(434,233,o),
(439,207,o),
(434,178,c),
(425,114,o),
(382,61,o),
(323,34,cs),
(293,20,o),
(262,14,o),
(229,15,cs),
(184,17,o),
(145,31,o),
(112,57,cs),
(79,82,o),
(58,116,o),
(49,158,c),
(14,146,l),
(23,85,o),
(66,32,o),
(127,4,c),
(157,-11,o),
(189,-19,o),
(223,-20,cs)
);
}
);
width = 518;
}
);
unicode = 83;
},
{
glyphname = Germandbls;
layers = (
{
anchors = (
{
name = m.uni0324_3;
position = "{477, 0}";
},
{
name = t.uni0308_1_3;
position = "{364, 684}";
}
);
layerId = "CF1FEFF6-0598-468F-902F-1EDAA234C103";
shapes = (
{
closed = 1;
nodes = (
(465,395,l),
(632,598,l),
(585,684,l),
(121,684,l),
(35,-5,l),
(201,-5,l),
(276,604,l),
(198,534,l),
(447,534,l),
(428,573,l),
(333,459,l),
(318,339,l),
(345,339,ls),
(402,339,o),
(442,331,o),
(465,302,cs),
(476,287,o),
(480,266,o),
(477,239,cs),
(472,203,o),
(457,178,o),
(432,165,cs),
(406,151,o),
(376,144,o),
(342,144,cs),
(312,144,o),
(287,146,o),
(266,149,c),
(246,3,l),
(265,-2,o),
(300,-4,o),
(350,-3,cs),
(466,0,o),
(550,35,o),
(599,106,cs),
(624,141,o),
(639,186,o),
(646,239,cs),
(653,294,o),
(643,339,o),
(618,374,cs),
(592,409,o),
(562,434,o),
(528,450,cs),
(494,465,o),
(474,472,o),
(467,469,c)
);
}
);
width = 673;
},
{
anchors = (
{
name = m.uni0324_3;
position = "{467, 0}";
},
{
name = t.uni0308_1_3;
position = "{354, 684}";
}
);
layerId = "E454AF73-A037-40C8-8E6D-4D661AF510B7";
shapes = (
{
closed = 1;
nodes = (
(370,413,l),
(579,650,l),
(558,684,l),
(132,684,l),
(48,-1,l),
(131,-1,l),
(210,644,l),
(170,608,l),
(479,608,l),
(467,637,l),
(302,445,l),
(293,372,l),
(331,373,l),
(402,373,o),
(457,347,o),
(484,303,c),
(497,280,o),
(502,255,o),
(499,226,cs),
(493,175,o),
(474,138,o),
(442,113,cs),
(410,88,o),
(363,75,o),
(302,76,cs),
(279,76,o),
(257,76,o),
(234,76,c),
(224,0,l),
(251,0,o),
(279,0,o),
(306,0,cs),
(415,0,o),
(494,35,o),
(540,103,cs),
(563,136,o),
(577,178,o),
(583,227,cs),
(588,268,o),
(581,306,o),
(564,340,c),
(546,373,o),
(519,399,o),
(484,418,cs),
(449,436,o),
(408,444,o),
(362,443,c)
);
}
);
width = 622;
},
{
anchors = (
{
name = m.uni0324_3;
position = "{467, 0}";
},
{
name = t.uni0308_1_3;
position = "{354, 684}";
}
);
layerId = "E7A4057C-21B9-4802-88F9-F6F08CC0F8D4";
shapes = (
{
closed = 1;
nodes = (
(333,425,l),
(544,679,l),
(539,684,l),
(138,686,l),
(54,0,l),
(92,0,l),
(174,665,l),
(156,649,l),
(490,649,l),
(484,662,l),
(298,438,l),
(294,404,l),
(327,405,l),
(418,405,o),
(477,379,o),
(503,321,cs),
(516,292,o),
(519,254,o),
(514,209,cs),
(507,156,o),
(481,114,o),
(436,83,cs),
(390,52,o),
(334,36,o),
(267,36,cs),
(252,36,o),
(236,36,o),
(221,36,c),
(217,0,l),
(236,0,o),
(256,0,o),
(275,0,cs),
(372,0,o),
(457,37,o),
(509,101,cs),
(534,133,o),
(550,170,o),
(555,213,cs),
(561,264,o),
(555,306,o),
(537,341,cs),
(519,375,o),
(492,400,o),
(457,417,c),
(421,433,o),
(379,440,o),
(332,438,c)
);
}
);
width = 601;
}
);
rightKerningGroup = B;
unicode = 7838;
},
{
glyphname = T;
layers = (
{
anchors = (
{
name = m.uni0324_3;
position = "{262, 0}";
},
{
name = t.uni0308_1_3;
position = "{345, 684}";
},
{
name = t.uni0335_4;
position = "{301, 343}";
}
);
layerId = "CF1FEFF6-0598-468F-902F-1EDAA234C103";
shapes = (
{
closed = 1;
nodes = (
(247,538,l),
(51,539,l),
(69,685,l),
(625,684,l),
(607,538,l),
(412,538,l),
(344,0,l),
(179,0,l)
);
}
);
width = 588;
},
{
anchors = (
{
name = m.uni0324_3;
position = "{268, 0}";
},
{
name = t.uni0308_1_3;
position = "{354, 684}";
},
{
name = t.uni0335_4;
position = "{316, 354}";
}
);
layerId = "E454AF73-A037-40C8-8E6D-4D661AF510B7";
shapes = (
{
closed = 1;
nodes = (
(279,608,l),
(60,608,l),
(69,684,l),
(591,684,l),
(582,608,l),
(362,608,l),
(287,0,l),
(204,0,l)
);
}
);
width = 554;
},
{
anchors = (
{
name = m.uni0324_3;
position = "{268, 0}";
},
{
name = t.uni0308_1_3;
position = "{354, 684}";
},
{
name = t.uni0335_4;
position = "{316, 354}";
}
);
layerId = "E7A4057C-21B9-4802-88F9-F6F08CC0F8D4";
shapes = (
{
closed = 1;
nodes = (
(299,648,l),
(69,648,l),
(73,684,l),
(571,684,l),
(567,648,l),
(337,648,l),
(257,0,l),
(219,0,l)
);
}
);
width = 538;
}
);
leftKerningGroup = T2;
rightKerningGroup = T;
unicode = 84;
},
{
glyphname = U;
layers = (
{
anchors = (
{
name = m.uni0324_3;
position = "{320, -10}";
},
{
name = t.uni0308_1_3;
position = "{396, 675}";
},
{
name = t.uni0335_4;
position = "{358, 366}";
},
{
name = t.uni031B_4;
position = "{630, 684}";
},
{
name = m.uni0328_2;
position = "{484, 21}";
},
{
name = t.uni030C.alt_4;
position = "{683, 684}";
}
);
layerId = "CF1FEFF6-0598-468F-902F-1EDAA234C103";
shapes = (
{
closed = 1;
nodes = (
(263,-30,o),
(212,-18,o),
(170,7,cs),
(86,55,o),
(46,147,o),
(61,266,cs),
(112,684,l),
(278,684,l),
(226,258,ls),
(223,228,o),
(224,202,o),
(231,181,cs),
(244,137,o),
(279,114,o),
(328,114,cs),
(355,114,o),
(379,120,o),
(400,133,cs),
(442,158,o),
(469,206,o),
(476,266,cs),
(527,684,l),
(693,684,l),
(641,258,ls),
(634,199,o),
(616,147,o),
(588,104,cs),
(532,17,o),
(439,-30,o),
(323,-30,cs)
);
}
);
width = 699;
},
{
anchors = (
{
name = m.uni0324_3;
position = "{336, 1}";
},
{
name = t.uni0308_1_3;
position = "{407, 665}";
},
{
name = t.uni0335_4;
position = "{373, 366}";
},
{
name = t.uni031B_4;
position = "{654, 682}";
},
{
name = m.uni0328_2;
position = "{528, 38}";
},
{
name = t.uni030C.alt_4;
position = "{706, 682}";
}
);
layerId = "E454AF73-A037-40C8-8E6D-4D661AF510B7";
shapes = (
{
closed = 1;
nodes = (
(265,-17,o),
(217,-5,o),
(177,20,cs),
(97,69,o),
(60,160,o),
(73,265,cs),
(124,684,l),
(207,684,l),
(155,261,ls),
(150,220,o),
(154,185,o),
(167,154,c),
(191,92,o),
(248,57,o),
(324,57,cs),
(364,57,o),
(401,66,o),
(434,84,cs),
(500,119,o),
(543,184,o),
(552,265,cs),
(603,684,l),
(686,684,l),
(634,261,ls),
(627,206,o),
(610,157,o),
(581,115,cs),
(523,31,o),
(429,-17,o),
(321,-17,cs)
);
}
);
width = 704;
},
{
anchors = (
{
name = m.uni0324_3;
position = "{336, 1}";
},
{
name = t.uni0308_1_3;
position = "{407, 665}";
},
{
name = t.uni0335_4;
position = "{373, 366}";
},
{
name = t.uni031B_4;
position = "{654, 682}";
},
{
name = m.uni0328_2;
position = "{528, 38}";
},
{
name = t.uni030C.alt_4;
position = "{706, 682}";
}
);
layerId = "E7A4057C-21B9-4802-88F9-F6F08CC0F8D4";
shapes = (
{
closed = 1;
nodes = (
(252,-11,o),
(208,1,o),
(171,25,cs),
(98,72,o),
(65,159,o),
(78,264,cs),
(130,685,l),
(168,685,l),
(116,262,ls),
(110,215,o),
(115,173,o),
(130,137,cs),
(160,65,o),
(224,24,o),
(308,24,cs),
(351,24,o),
(390,34,o),
(427,55,cs),
(500,95,o),
(550,171,o),
(562,264,cs),
(614,685,l),
(652,685,l),
(600,262,ls),
(593,207,o),
(577,159,o),
(550,118,cs),
(496,35,o),
(408,-11,o),
(305,-11,cs)
);
}
);
width = 675;
}
);
leftKerningGroup = U2;
rightKerningGroup = U;
unicode = 85;
},
{
glyphname = V;
leftMetricsKey = "=16";
layers = (
{
anchors = (
{
name = m.uni0324_3;
position = "{302, 0}";
},
{
name = t.uni0308_1_3;
position = "{390, 684}";
}
);
layerId = "CF1FEFF6-0598-468F-902F-1EDAA234C103";
leftMetricsKey = "=8";
shapes = (
{
closed = 1;
nodes = (
(62,684,l),
(233,-13,l),
(367,-13,l),
(695,684,l),
(505,684,l),
(346,288,l),
(330,223,l),
(325,288,l),
(233,684,l)
);
}
);
width = 651;
},
{
anchors = (
{
name = m.uni0324_3;
position = "{282, -4}";
},
{
name = t.uni0308_1_3;
position = "{370, 683}";
}
);
layerId = "E454AF73-A037-40C8-8E6D-4D661AF510B7";
shapes = (
{
closed = 1;
nodes = (
(70,684,l),
(220,-1,l),
(294,-1,l),
(616,685,l),
(534,685,l),
(292,163,l),
(272,120,l),
(267,161,l),
(152,684,l)
);
}
);
width = 578;
},
{
anchors = (
{
name = m.uni0324_3;
position = "{275, -4}";
},
{
name = t.uni0308_1_3;
position = "{363, 683}";
}
);
layerId = "E7A4057C-21B9-4802-88F9-F6F08CC0F8D4";
leftMetricsKey = "=22";
shapes = (
{
closed = 1;
nodes = (
(77,685,l),
(235,-1,l),
(273,1,l),
(590,685,l),
(549,685,l),
(276,91,l),
(260,45,l),
(253,90,l),
(115,685,l)
);
}
);
width = 559;
}
);
leftKerningGroup = V2;
rightKerningGroup = V;
unicode = 86;
},
{
glyphname = W;
leftMetricsKey = "=11";
layers = (
{
anchors = (
{
name = m.uni0324_3;
position = "{446, 0}";
},
{
name = t.uni0308_1_3;
position = "{530, 684}";
}
);
layerId = "CF1FEFF6-0598-468F-902F-1EDAA234C103";
leftMetricsKey = "=5";
shapes = (
{
closed = 1;
nodes = (
(60,685,l),
(183,0,l),
(335,0,l),
(485,348,l),
(497,389,l),
(504,348,l),
(575,0,l),
(734,0,l),
(1033,684,l),
(843,684,l),
(639,191,l),
(668,117,l),
(697,191,l),
(607,684,l),
(451,684,l),
(255,191,l),
(275,117,l),
(312,190,l),
(226,685,l)
);
}
);
width = 986;
},
{
anchors = (
{
name = m.uni0324_3;
position = "{426, 0}";
},
{
name = t.uni0308_1_3;
position = "{509, 684}";
}
);
layerId = "E454AF73-A037-40C8-8E6D-4D661AF510B7";
shapes = (
{
closed = 1;
nodes = (
(66,687,l),
(196,-1,l),
(276,-1,l),
(501,517,l),
(520,570,l),
(526,517,l),
(626,-1,l),
(706,-1,l),
(1011,686,l),
(929,686,l),
(686,126,l),
(676,84,l),
(674,126,l),
(572,687,l),
(498,687,l),
(255,126,l),
(246,87,l),
(246,126,l),
(148,687,l)
);
}
);
width = 968;
},
{
anchors = (
{
name = m.uni0324_3;
position = "{416, 0}";
},
{
name = t.uni0308_1_3;
position = "{499, 684}";
}
);
layerId = "E7A4057C-21B9-4802-88F9-F6F08CC0F8D4";
shapes = (
{
closed = 1;
nodes = (
(72,687,l),
(208,1,l),
(256,1,l),
(523,600,l),
(538,641,l),
(543,600,l),
(664,1,l),
(711,1,l),
(1017,686,l),
(975,686,l),
(711,91,l),
(691,31,l),
(685,91,l),
(565,686,l),
(521,686,l),
(255,91,l),
(235,34,l),
(230,91,l),
(110,686,l)
);
}
);
width = 982;
}
);
leftKerningGroup = V2;
rightKerningGroup = V;
unicode = 87;
},
{
glyphname = X;
layers = (
{
anchors = (
{
name = m.uni0324_3;
position = "{270, 0}";
},
{
name = t.uni0308_1_3;
position = "{360, 684}";
}
);
layerId = "CF1FEFF6-0598-468F-902F-1EDAA234C103";
shapes = (
{
closed = 1;
nodes = (
(276,427,l),
(276,306,l),
(83,684,l),
(274,684,l),
(381,448,l),
(311,439,l),
(474,684,l),
(669,684,l),
(388,311,l),
(401,432,l),
(617,0,l),
(444,0,l),
(295,285,l),
(350,296,l),
(165,0,l),
(-25,0,l)
);
}
);
width = 654;
},
{
anchors = (
{
name = m.uni0324_3;
position = "{287, -1}";
},
{
name = t.uni0308_1_3;
position = "{378, 684}";
}
);
layerId = "E454AF73-A037-40C8-8E6D-4D661AF510B7";
shapes = (
{
closed = 1;
nodes = (
(269,402,l),
(256,335,l),
(85,684,l),
(181,684,l),
(315,399,l),
(279,400,l),
(480,684,l),
(577,684,l),
(314,327,l),
(326,399,l),
(512,0,l),
(423,0,l),
(269,328,l),
(307,333,l),
(79,0,l),
(-17,0,l)
);
}
);
width = 555;
},
{
anchors = (
{
name = m.uni0324_3;
position = "{287, -1}";
},
{
name = t.uni0308_1_3;
position = "{378, 684}";
}
);
layerId = "E7A4057C-21B9-4802-88F9-F6F08CC0F8D4";
shapes = (
{
closed = 1;
nodes = (
(262,381,l),
(256,353,l),
(101,684,l),
(148,684,l),
(285,384,l),
(269,384,l),
(489,684,l),
(536,684,l),
(291,354,l),
(290,382,l),
(479,0,l),
(438,0,l),
(265,343,l),
(278,343,l),
(34,0,l),
(-12,0,l)
);
}
);
width = 529;
}
);
leftKerningGroup = X;
unicode = 88;
},
{
glyphname = Y;
leftMetricsKey = "=10";
layers = (
{
anchors = (
{
name = m.uni0324_3;
position = "{250, 0}";
},
{
name = t.uni0308_1_3;
position = "{327, 684}";
}
);
layerId = "CF1FEFF6-0598-468F-902F-1EDAA234C103";
shapes = (
{
closed = 1;
nodes = (
(204,292,l),
(58,684,l),
(237,684,l),
(294,489,l),
(299,445,l),
(313,489,l),
(429,684,l),
(617,684,l),
(370,294,l),
(334,0,l),
(166,0,l)
);
}
);
width = 570;
},
{
anchors = (
{
name = m.uni0324_3;
position = "{246, 0}";
},
{
name = t.uni0308_1_3;
position = "{312, 684}";
}
);
layerId = "E454AF73-A037-40C8-8E6D-4D661AF510B7";
shapes = (
{
closed = 1;
nodes = (
(219,296,l),
(64,684,l),
(149,684,l),
(255,418,l),
(267,369,l),
(291,418,l),
(471,684,l),
(566,684,l),
(302,298,l),
(266,0,l),
(185,0,l)
);
}
);
width = 523;
},
{
anchors = (
{
name = m.uni0324_3;
position = "{239, 0}";
},
{
name = t.uni0308_1_3;
position = "{305, 684}";
}
);
layerId = "E7A4057C-21B9-4802-88F9-F6F08CC0F8D4";
leftMetricsKey = "=16";
shapes = (
{
closed = 1;
nodes = (
(239,301,l),
(70,684,l),
(114,684,l),
(253,366,l),
(263,340,l),
(276,366,l),
(493,684,l),
(536,684,l),
(277,303,l),
(241,1,l),
(202,1,l)
);
}
);
width = 500;
}
);
leftKerningGroup = Y2;
rightKerningGroup = Y;
unicode = 89;
},
{
glyphname = Z;
layers = (
{
anchors = (
{
name = m.uni0324_3;
position = "{254, 0}";
},
{
name = t.uni0308_1_3;
position = "{343, 684}";
},
{
name = t.uni0335_4;
position = "{300, 342}";
}
);
layerId = "CF1FEFF6-0598-468F-902F-1EDAA234C103";
shapes = (
{
closed = 1;
nodes = (
(8,86,l),
(378,592,l),
(407,534,l),
(69,534,l),
(88,684,l),
(581,684,l),
(574,614,l),
(240,152,l),
(532,152,l),
(513,0,l),
(-1,0,l)
);
}
);
width = 569;
},
{
anchors = (
{
name = m.uni0324_3;
position = "{262, 0}";
},
{
name = t.uni0308_1_3;
position = "{352, 684}";
},
{
name = t.uni0335_4;
position = "{309, 342}";
}
);
layerId = "E454AF73-A037-40C8-8E6D-4D661AF510B7";
shapes = (
{
closed = 1;
nodes = (
(-4,28,l),
(427,637,l),
(443,608,l),
(77,608,l),
(86,684,l),
(543,684,l),
(535,659,l),
(123,75,l),
(482,75,l),
(473,-1,l),
(-7,-1,l)
);
}
);
width = 525;
},
{
anchors = (
{
name = m.uni0324_3;
position = "{262, 0}";
},
{
name = t.uni0308_1_3;
position = "{352, 684}";
},
{
name = t.uni0335_4;
position = "{309, 342}";
}
);
layerId = "E7A4057C-21B9-4802-88F9-F6F08CC0F8D4";
shapes = (
{
closed = 1;
nodes = (
(-7,3,l),
(457,662,l),
(464,649,l),
(83,649,l),
(87,685,l),
(520,685,l),
(516,682,l),
(61,37,l),
(463,37,l),
(458,1,l),
(-7,1,l)
);
}
);
width = 510;
}
);
leftKerningGroup = Z2;
rightKerningGroup = Z;
unicode = 90;
},
{
glyphname = Saltillo;
layers = (
{
layerId = "CF1FEFF6-0598-468F-902F-1EDAA234C103";
shapes = (
{
closed = 1;
nodes = (
(88,684,l),
(56,300,l),
(188,300,l),
(250,684,l)
);
}
);
width = 232;
},
{
layerId = "E454AF73-A037-40C8-8E6D-4D661AF510B7";
shapes = (
{
closed = 1;
nodes = (
(95,684,l),
(66,356,l),
(133,356,l),
(184,684,l)
);
}
);
width = 173;
},
{
layerId = "E7A4057C-21B9-4802-88F9-F6F08CC0F8D4";
shapes = (
{
closed = 1;
nodes = (
(99,684,l),
(72,382,l),
(101,382,l),
(148,684,l)
);
}
);
width = 141;
}
);
leftKerningGroup = degree2;
rightKerningGroup = degree;
unicode = 42891;
},
{
glyphname = Nhookleft;
layers = (
{
anchors = (
{
name = m.uni0324_3;
position = "{249, 0}";
},
{
name = t.uni0308_1_3;
position = "{603, 684}";
}
);
layerId = "CF1FEFF6-0598-468F-902F-1EDAA234C103";
shapes = (
{
closed = 1;
nodes = (
(259,684,l),
(171,-33,l),
(170,-33,l),
(167,-53,ls),
(164,-70,o),
(156,-79,o),
(140,-78,cs),
(125,-77,o),
(115,-65,o),
(116,-53,c),
(-25,-54,l),
(-26,-98,o),
(-11,-135,o),
(19,-166,cs),
(48,-197,o),
(87,-215,o),
(136,-221,cs),
(189,-228,o),
(234,-217,o),
(270,-188,cs),
(305,-159,o),
(326,-116,o),
(333,-60,cs),
(336,-30,l),
(375,281,l),
(378,388,l),
(444,266,l),
(665,0,l),
(768,0,l),
(855,704,l),
(690,704,l),
(653,398,l),
(648,285,l),
(590,379,l),
(363,684,l)
);
}
);
width = 865;
},
{
anchors = (
{
name = m.uni0324_3;
position = "{327, 8}";
},
{
name = t.uni0308_1_3;
position = "{695, 673}";
}
);
layerId = "E454AF73-A037-40C8-8E6D-4D661AF510B7";
shapes = (
{
closed = 1;
nodes = (
(228,684,l),
(134,-71,l),
(133,-71,l),
(132,-83,l),
(128,-115,o),
(111,-130,o),
(87,-127,cs),
(66,-124,o),
(54,-111,o),
(51,-91,c),
(-22,-94,l),
(-20,-122,o),
(-10,-146,o),
(10,-166,cs),
(29,-185,o),
(51,-197,o),
(78,-200,cs),
(109,-204,o),
(138,-197,o),
(165,-180,cs),
(192,-163,o),
(208,-134,o),
(213,-93,cs),
(216,-67,l),
(280,440,l),
(287,542,l),
(339,454,l),
(652,0,l),
(699,0,l),
(784,696,l),
(702,696,l),
(647,244,l),
(640,142,l),
(588,230,l),
(275,684,l)
);
}
);
width = 809;
},
{
anchors = (
{
name = m.uni0324_3;
position = "{327, 8}";
},
{
name = t.uni0308_1_3;
position = "{695, 673}";
}
);
layerId = "E7A4057C-21B9-4802-88F9-F6F08CC0F8D4";
shapes = (
{
closed = 1;
nodes = (
(243,685,l),
(147,-90,l),
(148,-90,l),
(146,-105,ls),
(141,-149,o),
(115,-168,o),
(79,-164,cs),
(47,-161,o),
(27,-135,o),
(27,-103,c),
(-7,-104,l),
(-8,-129,o),
(0,-150,o),
(16,-168,cs),
(32,-186,o),
(52,-196,o),
(77,-199,cs),
(104,-202,o),
(127,-196,o),
(148,-180,cs),
(169,-163,o),
(181,-140,o),
(184,-109,cs),
(186,-88,l),
(263,585,l),
(267,620,l),
(285,590,l),
(670,0,l),
(696,0,l),
(780,685,l),
(743,685,l),
(676,105,l),
(671,64,l),
(654,95,l),
(268,685,l)
);
}
);
width = 811;
}
);
leftKerningGroup = uni2116;
unicode = 413;
},
{
glyphname = Eng;
layers = (
{
anchors = (
{
name = m.uni0324_3;
position = "{335, 0}";
},
{
name = t.uni0308_1_3;
position = "{421, 684}";
}
);
layerId = "CF1FEFF6-0598-468F-902F-1EDAA234C103";
shapes = (
{
closed = 1;
nodes = (
(502,-227,o),
(552,-203,o),
(584,-160,c),
(599,-138,o),
(609,-113,o),
(612,-85,cs),
(648,215,l),
(482,215,l),
(450,-48,l),
(447,-64,o),
(444,-74,o),
(433,-74,cs),
(425,-74,o),
(418,-71,o),
(417,-63,c),
(306,-131,l),
(315,-156,o),
(333,-179,o),
(360,-198,cs),
(387,-217,o),
(418,-227,o),
(451,-227,cs)
);
},
{
alignment = -1;
ref = N;
}
);
width = 717;
},
{
anchors = (
{
name = m.uni0324_3;
position = "{339, 0}";
},
{
name = t.uni0308_1_3;
position = "{425, 684}";
}
);
layerId = "E454AF73-A037-40C8-8E6D-4D661AF510B7";
shapes = (
{
closed = 1;
nodes = (
(511,-215,o),
(544,-196,o),
(564,-167,cs),
(574,-152,o),
(580,-136,o),
(582,-118,cs),
(608,97,l),
(525,97,l),
(501,-104,ls),
(498,-127,o),
(486,-138,o),
(469,-138,cs),
(458,-138,o),
(449,-133,o),
(446,-121,c),
(382,-159,l),
(389,-176,o),
(401,-190,o),
(418,-200,cs),
(435,-210,o),
(453,-215,o),
(472,-215,cs)
);
},
{
alignment = -1;
ref = N;
}
);
width = 706;
},
{
anchors = (
{
name = m.uni0324_3;
position = "{339, 0}";
},
{
name = t.uni0308_1_3;
position = "{425, 684}";
}
);
layerId = "E7A4057C-21B9-4802-88F9-F6F08CC0F8D4";
shapes = (
{
closed = 1;
nodes = (
(507,-204,o),
(534,-189,o),
(551,-165,c),
(559,-152,o),
(564,-138,o),
(566,-122,cs),
(588,53,l),
(550,53,l),
(528,-120,ls),
(524,-151,o),
(506,-168,o),
(477,-168,cs),
(466,-168,o),
(456,-163,o),
(449,-154,c),
(417,-174,l),
(424,-184,o),
(433,-192,o),
(442,-197,cs),
(451,-202,o),
(462,-204,o),
(475,-204,cs)
);
},
{
alignment = -1;
ref = N;
}
);
width = 696;
}
);
unicode = 330;
},
{
glyphname = Ubar;
layers = (
{
anchors = (
{
name = m.uni0324_3;
position = "{336, -10}";
},
{
name = t.uni0308_1_3;
position = "{412, 675}";
},
{
name = t.uni0335_4;
position = "{374, 366}";
},
{
name = t.uni031B_4;
position = "{646, 684}";
},
{
name = m.uni0328_2;
position = "{500, 21}";
},
{
name = t.uni030C.alt_4;
position = "{699, 684}";
}
);
layerId = "CF1FEFF6-0598-468F-902F-1EDAA234C103";
shapes = (
{
closed = 1;
nodes = (
(455,-30,o),
(548,17,o),
(604,104,cs),
(632,147,o),
(650,199,o),
(657,258,cs),
(709,684,l),
(543,684,l),
(492,266,ls),
(485,206,o),
(458,158,o),
(416,133,cs),
(395,120,o),
(371,114,o),
(344,114,cs),
(295,114,o),
(260,137,o),
(247,181,cs),
(240,202,o),
(239,228,o),
(242,258,cs),
(294,684,l),
(128,684,l),
(77,266,ls),
(62,147,o),
(102,55,o),
(186,7,cs),
(228,-18,o),
(279,-30,o),
(339,-30,cs)
);
},
{
closed = 1;
nodes = (
(45,428,l),
(25,308,l),
(703,308,l),
(723,428,l)
);
}
);
width = 726;
},
{
anchors = (
{
name = m.uni0324_3;
position = "{352, 1}";
},
{
name = t.uni0308_1_3;
position = "{423, 665}";
},
{
name = t.uni0335_4;
position = "{389, 366}";
},
{
name = t.uni031B_4;
position = "{670, 682}";
},
{
name = m.uni0328_2;
position = "{544, 38}";
},
{
name = t.uni030C.alt_4;
position = "{722, 682}";
}
);
layerId = "E454AF73-A037-40C8-8E6D-4D661AF510B7";
shapes = (
{
closed = 1;
nodes = (
(429,-17,o),
(523,31,o),
(581,115,cs),
(610,157,o),
(627,206,o),
(634,261,cs),
(686,684,l),
(603,684,l),
(552,265,ls),
(543,184,o),
(500,119,o),
(434,84,cs),
(401,66,o),
(364,57,o),
(324,57,cs),
(248,57,o),
(191,92,o),
(167,154,c),
(154,185,o),
(150,220,o),
(155,261,cs),
(207,684,l),
(124,684,l),
(73,265,ls),
(60,160,o),
(97,69,o),
(177,20,cs),
(217,-5,o),
(265,-17,o),
(321,-17,cs)
);
},
{
closed = 1;
nodes = (
(42,401,l),
(29,325,l),
(686,325,l),
(699,401,l)
);
}
);
width = 704;
},
{
anchors = (
{
name = m.uni0324_3;
position = "{352, 1}";
},
{
name = t.uni0308_1_3;
position = "{423, 665}";
},
{
name = t.uni0335_4;
position = "{389, 366}";
},
{
name = t.uni031B_4;
position = "{670, 682}";
},
{
name = m.uni0328_2;
position = "{544, 38}";
},
{
name = t.uni030C.alt_4;
position = "{722, 682}";
}
);
layerId = "E7A4057C-21B9-4802-88F9-F6F08CC0F8D4";
shapes = (
{
closed = 1;
nodes = (
(408,-11,o),
(496,35,o),
(550,118,cs),
(577,159,o),
(593,207,o),
(600,262,cs),
(652,685,l),
(614,685,l),
(562,264,ls),
(550,171,o),
(500,95,o),
(427,55,cs),
(390,34,o),
(351,24,o),
(308,24,cs),
(224,24,o),
(160,65,o),
(130,137,cs),
(115,173,o),
(110,215,o),
(116,262,cs),
(168,685,l),
(130,685,l),
(78,264,ls),
(65,159,o),
(98,72,o),
(171,25,cs),
(208,1,o),
(252,-11,o),
(305,-11,cs)
);
},
{
closed = 1;
nodes = (
(11,380,l),
(3,343,l),
(693,344,l),
(699,380,l)
);
}
);
width = 675;
}
);
leftKerningGroup = U2;
rightKerningGroup = U;
unicode = 580;
},
{
glyphname = a;
layers = (
{
anchors = (
{
name = m.uni0324_3;
position = "{239, 0}";
},
{
name = t.uni0308_1_3;
position = "{311, 512}";
},
{
name = m.uni0328_2;
position = "{541, 50}";
}
);
layerId = "CF1FEFF6-0598-468F-902F-1EDAA234C103";
shapes = (
{
closed = 1;
nodes = (
(347,172,l),
(340,85,o),
(371,6,o),
(420,-39,c),
(540,49,l),
(519,74,o),
(509,112,o),
(512,161,c),
(512,164,l),
(551,474,l),
(502,495,o),
(449,511,o),
(391,522,c)
);
},
{
closed = 1;
nodes = (
(226,531,o),
(134,486,o),
(78,403,cs),
(50,362,o),
(33,313,o),
(27,258,cs),
(15,155,o),
(47,66,o),
(111,18,cs),
(143,-7,o),
(181,-19,o),
(225,-19,cs),
(294,-19,o),
(358,15,o),
(401,76,cs),
(422,107,o),
(436,143,o),
(443,184,c),
(355,217,l),
(349,189,o),
(337,167,o),
(318,151,cs),
(299,135,o),
(279,127,o),
(258,127,cs),
(229,127,o),
(206,147,o),
(197,184,cs),
(192,203,o),
(192,225,o),
(195,251,cs),
(202,306,o),
(226,347,o),
(263,368,cs),
(282,379,o),
(303,384,o),
(326,384,cs),
(344,384,o),
(362,381,o),
(380,375,cs),
(398,368,o),
(414,361,o),
(428,352,c),
(515,463,l),
(464,503,o),
(410,527,o),
(335,528,cs)
);
}
);
width = 587;
},
{
anchors = (
{
name = m.uni0324_3;
position = "{245, 0}";
},
{
name = t.uni0308_1_3;
position = "{330, 512}";
},
{
name = m.uni0328_2;
position = "{563, 62}";
}
);
layerId = "E454AF73-A037-40C8-8E6D-4D661AF510B7";
shapes = (
{
closed = 1;
nodes = (
(390,141,l),
(385,68,o),
(410,5,o),
(445,-27,c),
(502,19,l),
(478,50,o),
(469,84,o),
(472,136,c),
(472,139,l),
(514,473,l),
(495,484,o),
(469,493,o),
(435,502,c)
);
},
{
closed = 1;
nodes = (
(232,521,o),
(143,479,o),
(88,397,cs),
(61,356,o),
(44,307,o),
(37,250,cs),
(26,157,o),
(58,74,o),
(122,27,cs),
(154,4,o),
(191,-9,o),
(234,-10,cs),
(305,-11,o),
(370,23,o),
(411,80,cs),
(432,109,o),
(445,140,o),
(451,175,c),
(398,193,l),
(393,156,o),
(375,125,o),
(345,100,cs),
(314,75,o),
(280,63,o),
(242,64,cs),
(186,65,o),
(145,99,o),
(128,154,cs),
(119,181,o),
(117,212,o),
(121,247,cs),
(132,332,o),
(169,394,o),
(228,423,cs),
(257,438,o),
(291,445,o),
(329,444,cs),
(349,443,o),
(371,441,o),
(394,436,cs),
(417,431,o),
(434,426,o),
(444,420,c),
(488,484,l),
(456,499,o),
(398,517,o),
(339,518,cs)
);
}
);
width = 563;
},
{
anchors = (
{
name = m.uni0324_3;
position = "{245, 0}";
},
{
name = t.uni0308_1_3;
position = "{330, 512}";
},
{
name = m.uni0328_2;
position = "{563, 62}";
}
);
layerId = "E7A4057C-21B9-4802-88F9-F6F08CC0F8D4";
shapes = (
{
closed = 1;
nodes = (
(413,130,l),
(414,69,o),
(443,10,o),
(471,-11,c),
(495,13,l),
(470,40,o),
(454,76,o),
(451,127,c),
(451,131,l),
(492,472,l),
(484,476,o),
(472,481,o),
(456,486,c)
);
},
{
closed = 1;
nodes = (
(233,512,o),
(145,466,o),
(93,386,cs),
(66,346,o),
(50,300,o),
(44,247,cs),
(33,152,o),
(61,72,o),
(120,27,cs),
(149,4,o),
(184,-8,o),
(225,-9,cs),
(296,-12,o),
(358,18,o),
(401,71,cs),
(422,98,o),
(437,129,o),
(446,164,c),
(418,170,l),
(409,127,o),
(386,92,o),
(350,65,cs),
(314,38,o),
(273,25,o),
(228,26,cs),
(161,27,o),
(113,68,o),
(92,133,cs),
(81,165,o),
(78,201,o),
(83,240,cs),
(94,327,o),
(134,403,o),
(207,445,cs),
(243,466,o),
(286,475,o),
(335,474,cs),
(352,473,o),
(373,471,o),
(396,467,cs),
(419,463,o),
(438,458,o),
(453,451,c),
(477,477,l),
(442,494,o),
(383,508,o),
(338,509,cs)
);
}
);
width = 557;
}
);
leftKerningGroup = a2;
rightKerningGroup = a;
unicode = 97;
},
{
glyphname = ae;
layers = (
{
anchors = (
{
name = m.uni0324_3;
position = "{338, 0}";
},
{
name = t.uni0308_1_3;
position = "{427, 500}";
}
);
layerId = "CF1FEFF6-0598-468F-902F-1EDAA234C103";
shapes = (
{
closed = 1;
nodes = (
(213,-25,o),
(247,-16,o),
(278,3,cs),
(309,21,o),
(333,46,o),
(350,79,c),
(370,19,o),
(433,-19,o),
(521,-19,cs),
(600,-19,o),
(676,12,o),
(732,72,c),
(671,187,l),
(623,150,o),
(576,128,o),
(529,128,cs),
(496,128,o),
(467,153,o),
(472,182,c),
(484,180,o),
(509,179,o),
(546,179,cs),
(602,179,o),
(650,193,o),
(691,221,cs),
(732,248,o),
(755,288,o),
(762,341,cs),
(770,405,o),
(741,466,o),
(684,500,cs),
(655,517,o),
(622,525,o),
(585,525,cs),
(517,525,o),
(465,504,o),
(413,439,c),
(393,499,o),
(330,526,o),
(261,526,cs),
(226,526,o),
(188,519,o),
(147,505,cs),
(106,491,o),
(75,474,o),
(52,454,c),
(106,343,l),
(145,370,o),
(204,385,o),
(251,385,cs),
(299,385,o),
(320,366,o),
(313,337,cs),
(309,321,l),
(301,322,l),
(290,325,o),
(272,326,o),
(247,327,cs),
(191,328,o),
(140,316,o),
(95,291,cs),
(50,265,o),
(23,220,o),
(15,157,cs),
(6,88,o),
(37,29,o),
(90,-2,cs),
(117,-17,o),
(145,-25,o),
(176,-25,cs)
);
},
{
closed = 1;
nodes = (
(183,113,o),
(167,130,o),
(171,157,cs),
(175,189,o),
(201,211,o),
(252,211,cs),
(265,211,o),
(282,208,o),
(301,205,c),
(297,185,ls),
(293,162,o),
(278,139,o),
(254,124,c),
(241,117,o),
(227,113,o),
(212,113,cs)
);
},
{
closed = 1;
nodes = (
(527,301,o),
(513,300,o),
(500,299,c),
(485,299,o),
(475,299,o),
(468,298,c),
(479,331,o),
(501,358,o),
(529,374,c),
(543,381,o),
(557,385,o),
(572,385,cs),
(583,385,o),
(593,382,o),
(600,377,cs),
(607,372,o),
(610,364,o),
(609,354,cs),
(605,326,o),
(587,310,o),
(539,302,c)
);
}
);
width = 778;
},
{
anchors = (
{
name = m.uni0324_3;
position = "{332, 0}";
},
{
name = t.uni0308_1_3;
position = "{420, 490}";
}
);
layerId = "E454AF73-A037-40C8-8E6D-4D661AF510B7";
shapes = (
{
closed = 1;
nodes = (
(217,-10,o),
(254,1,o),
(287,24,cs),
(320,46,o),
(344,75,o),
(361,112,c),
(385,28,o),
(447,-10,o),
(536,-10,cs),
(605,-10,o),
(673,11,o),
(734,54,c),
(700,119,l),
(641,82,o),
(591,66,o),
(540,66,cs),
(460,66,o),
(419,114,o),
(419,202,c),
(442,199,o),
(479,198,o),
(528,198,cs),
(591,198,o),
(643,211,o),
(684,236,cs),
(725,261,o),
(749,299,o),
(755,350,cs),
(763,414,o),
(735,468,o),
(683,496,cs),
(657,510,o),
(627,517,o),
(594,517,cs),
(522,517,o),
(460,484,o),
(417,415,c),
(408,479,o),
(349,517,o),
(265,517,cs),
(231,517,o),
(197,511,o),
(162,500,cs),
(127,488,o),
(99,472,o),
(76,453,c),
(111,388,l),
(154,421,o),
(213,443,o),
(266,443,cs),
(333,443,o),
(362,406,o),
(351,339,cs),
(343,288,l),
(324,292,l),
(307,294,o),
(286,295,o),
(259,295,cs),
(188,295,o),
(133,283,o),
(94,258,cs),
(54,233,o),
(31,197,o),
(25,149,cs),
(17,85,o),
(44,36,o),
(92,10,c),
(116,-4,o),
(143,-10,o),
(174,-10,cs)
);
},
{
closed = 1;
nodes = (
(135,64,o),
(104,93,o),
(109,142,c),
(116,193,o),
(170,223,o),
(261,223,cs),
(297,223,o),
(318,221,o),
(337,216,c),
(333,186,ls),
(328,147,o),
(299,106,o),
(255,82,cs),
(233,70,o),
(209,64,o),
(183,64,cs)
);
},
{
closed = 1;
nodes = (
(501,272,o),
(484,272,o),
(465,273,cs),
(450,274,o),
(436,275,o),
(421,276,c),
(436,340,o),
(471,393,o),
(517,422,cs),
(540,436,o),
(563,443,o),
(588,443,cs),
(615,443,o),
(636,436,o),
(652,422,cs),
(668,407,o),
(674,386,o),
(671,358,cs),
(664,294,o),
(604,272,o),
(520,272,cs)
);
}
);
width = 791;
},
{
anchors = (
{
name = m.uni0324_3;
position = "{332, 0}";
},
{
name = t.uni0308_1_3;
position = "{420, 490}";
}
);
layerId = "E7A4057C-21B9-4802-88F9-F6F08CC0F8D4";
shapes = (
{
closed = 1;
nodes = (
(225,-9,o),
(265,5,o),
(300,34,cs),
(335,62,o),
(358,96,o),
(370,136,c),
(386,47,o),
(447,-9,o),
(550,-9,cs),
(607,-9,o),
(669,9,o),
(729,44,c),
(714,72,l),
(649,39,o),
(605,26,o),
(552,26,cs),
(445,26,o),
(395,94,o),
(400,215,c),
(434,208,o),
(477,205,o),
(528,205,cs),
(590,205,o),
(642,218,o),
(685,244,cs),
(728,270,o),
(752,308,o),
(758,359,cs),
(765,418,o),
(740,466,o),
(692,491,c),
(667,503,o),
(638,509,o),
(605,509,cs),
(525,509,o),
(451,457,o),
(410,372,c),
(409,467,o),
(365,509,o),
(272,509,cs),
(243,509,o),
(212,504,o),
(179,494,cs),
(146,483,o),
(116,470,o),
(89,453,c),
(105,425,l),
(153,454,o),
(219,474,o),
(274,474,cs),
(354,474,o),
(386,427,o),
(375,343,cs),
(366,275,l),
(315,284,ls),
(283,289,o),
(258,292,o),
(241,292,cs),
(177,292,o),
(128,280,o),
(93,256,cs),
(58,232,o),
(37,196,o),
(32,149,cs),
(25,85,o),
(48,37,o),
(96,11,c),
(119,-3,o),
(147,-9,o),
(180,-9,cs)
);
},
{
closed = 1;
nodes = (
(105,25,o),
(62,70,o),
(71,142,cs),
(80,221,o),
(135,259,o),
(239,259,cs),
(266,259,o),
(303,254,o),
(364,242,c),
(355,175,ls),
(348,128,o),
(314,79,o),
(261,48,cs),
(234,33,o),
(205,25,o),
(174,25,cs)
);
},
{
closed = 1;
nodes = (
(497,240,o),
(470,241,o),
(447,244,c),
(431,245,o),
(416,247,o),
(402,250,c),
(407,330,o),
(452,403,o),
(514,444,cs),
(545,464,o),
(577,474,o),
(610,474,cs),
(643,474,o),
(670,465,o),
(692,447,cs),
(714,428,o),
(723,401,o),
(718,364,cs),
(707,275,o),
(633,240,o),
(529,240,cs)
);
}
);
width = 792;
}
);
leftKerningGroup = ae;
rightKerningGroup = c;
unicode = 230;
},
{
glyphname = b;
layers = (
{
anchors = (
{
name = m.uni0324_3;
position = "{284, 0}";
},
{
name = t.uni0308_1_3;
position = "{193, 732}";
},
{
name = t.uni0335_4;
position = "{312, 250}";
}
);
layerId = "CF1FEFF6-0598-468F-902F-1EDAA234C103";
shapes = (
{
closed = 1;
nodes = (
(186,-13,l),
(139,-7,o),
(94,2,o),
(51,13,c),
(40,17,o),
(31,19,o),
(24,22,c),
(110,731,l),
(275,731,l)
);
},
{
closed = 1;
nodes = (
(166,-19,o),
(112,5,o),
(61,45,c),
(148,156,l),
(162,147,o),
(178,140,o),
(197,134,c),
(215,127,o),
(233,124,o),
(250,124,cs),
(273,124,o),
(294,129,o),
(313,140,cs),
(350,161,o),
(374,202,o),
(381,257,cs),
(384,283,o),
(384,305,o),
(379,324,cs),
(370,361,o),
(347,381,o),
(318,381,cs),
(297,381,o),
(278,373,o),
(259,357,cs),
(240,341,o),
(227,319,o),
(221,291,c),
(133,324,l),
(140,365,o),
(154,401,o),
(175,432,cs),
(218,493,o),
(282,527,o),
(351,527,cs),
(395,527,o),
(433,515,o),
(465,491,cs),
(529,442,o),
(561,353,o),
(549,250,cs),
(543,195,o),
(526,146,o),
(498,105,cs),
(442,22,o),
(350,-23,o),
(241,-20,cs)
);
}
);
width = 575;
},
{
anchors = (
{
name = m.uni0324_3;
position = "{337, 0}";
},
{
name = t.uni0308_1_3;
position = "{208, 734}";
},
{
name = t.uni0335_4;
position = "{354, 250}";
}
);
layerId = "E454AF73-A037-40C8-8E6D-4D661AF510B7";
shapes = (
{
closed = 1;
nodes = (
(121,4,l),
(110,6,o),
(89,13,o),
(58,25,cs),
(51,28,o),
(50,28,o),
(43,31,c),
(127,729,l),
(209,729,l)
);
},
{
closed = 1;
nodes = (
(159,-12,o),
(101,6,o),
(69,21,c),
(113,85,l),
(123,79,o),
(140,74,o),
(163,69,cs),
(186,64,o),
(208,62,o),
(228,61,cs),
(266,60,o),
(300,67,o),
(329,82,cs),
(388,111,o),
(425,173,o),
(436,258,cs),
(440,293,o),
(438,324,o),
(429,351,cs),
(412,406,o),
(371,440,o),
(315,441,cs),
(277,442,o),
(243,431,o),
(213,406,cs),
(182,381,o),
(164,349,o),
(159,312,c),
(106,330,l),
(112,365,o),
(125,396,o),
(146,425,cs),
(187,482,o),
(252,516,o),
(323,515,cs),
(366,514,o),
(403,501,o),
(435,478,cs),
(499,431,o),
(531,348,o),
(520,255,cs),
(513,198,o),
(496,150,o),
(469,109,cs),
(414,27,o),
(325,-16,o),
(218,-13,cs)
);
}
);
width = 556;
},
{
anchors = (
{
name = m.uni0324_3;
position = "{337, 0}";
},
{
name = t.uni0308_1_3;
position = "{208, 734}";
},
{
name = t.uni0335_4;
position = "{354, 250}";
}
);
layerId = "E7A4057C-21B9-4802-88F9-F6F08CC0F8D4";
shapes = (
{
closed = 1;
nodes = (
(85,13,l),
(83,14,o),
(74,17,o),
(57,22,cs),
(53,23,o),
(52,25,o),
(48,26,c),
(132,730,l),
(170,730,l)
);
},
{
closed = 1;
nodes = (
(158,-10,o),
(99,4,o),
(64,21,c),
(88,47,l),
(103,40,o),
(122,35,o),
(145,31,cs),
(168,27,o),
(189,25,o),
(206,24,cs),
(255,23,o),
(298,33,o),
(335,54,cs),
(407,96,o),
(447,171,o),
(458,258,cs),
(463,297,o),
(460,333,o),
(449,366,cs),
(428,430,o),
(380,471,o),
(313,472,cs),
(268,473,o),
(227,461,o),
(191,434,cs),
(155,407,o),
(132,371,o),
(123,328,c),
(95,334,l),
(104,369,o),
(119,400,o),
(140,427,cs),
(183,480,o),
(245,510,o),
(316,507,cs),
(357,506,o),
(392,494,o),
(421,471,cs),
(480,426,o),
(508,346,o),
(497,251,cs),
(491,198,o),
(475,152,o),
(449,112,cs),
(396,32,o),
(308,-14,o),
(203,-11,cs)
);
}
);
width = 541;
}
);
rightKerningGroup = b;
unicode = 98;
},
{
glyphname = c;
layers = (
{
anchors = (
{
name = m.uni0324_3;
position = "{253, -12}";
},
{
name = t.uni0308_1_3;
position = "{312, 512}";
}
);
layerId = "CF1FEFF6-0598-468F-902F-1EDAA234C103";
shapes = (
{
closed = 1;
nodes = (
(350,-27,o),
(418,-2,o),
(479,50,c),
(412,163,l),
(377,134,o),
(332,118,o),
(288,118,cs),
(245,118,o),
(214,144,o),
(201,184,cs),
(194,204,o),
(192,226,o),
(195,250,cs),
(200,301,o),
(225,341,o),
(261,364,cs),
(278,375,o),
(297,381,o),
(318,381,cs),
(353,381,o),
(378,363,o),
(393,336,c),
(502,429,l),
(487,458,o),
(463,482,o),
(429,499,cs),
(394,516,o),
(356,525,o),
(313,525,cs),
(216,525,o),
(130,480,o),
(77,401,cs),
(50,362,o),
(34,317,o),
(28,266,cs),
(15,153,o),
(51,61,o),
(129,11,cs),
(168,-15,o),
(214,-27,o),
(269,-27,cs)
);
}
);
width = 525;
},
{
anchors = (
{
name = m.uni0324_3;
position = "{244, -16}";
},
{
name = t.uni0308_1_3;
position = "{319, 514}";
}
);
layerId = "E454AF73-A037-40C8-8E6D-4D661AF510B7";
shapes = (
{
closed = 1;
nodes = (
(320,-12,o),
(388,6,o),
(439,47,c),
(404,106,l),
(357,77,o),
(315,61,o),
(264,62,cs),
(196,63,o),
(149,96,o),
(129,151,cs),
(119,178,o),
(116,210,o),
(121,247,cs),
(130,322,o),
(166,383,o),
(219,416,cs),
(246,432,o),
(275,440,o),
(307,440,cs),
(358,440,o),
(394,422,o),
(417,391,c),
(469,440,l),
(458,459,o),
(438,476,o),
(409,491,cs),
(380,506,o),
(349,514,o),
(317,514,cs),
(220,514,o),
(136,468,o),
(85,388,cs),
(59,348,o),
(43,302,o),
(37,251,cs),
(25,148,o),
(59,65,o),
(130,21,cs),
(165,-1,o),
(207,-12,o),
(255,-12,cs)
);
}
);
width = 494;
},
{
anchors = (
{
name = m.uni0324_3;
position = "{244, -16}";
},
{
name = t.uni0308_1_3;
position = "{319, 514}";
}
);
layerId = "E7A4057C-21B9-4802-88F9-F6F08CC0F8D4";
shapes = (
{
closed = 1;
nodes = (
(313,-11,o),
(376,9,o),
(429,49,c),
(412,77,l),
(367,45,o),
(311,25,o),
(260,24,cs),
(177,23,o),
(119,60,o),
(94,128,cs),
(81,162,o),
(78,202,o),
(84,248,cs),
(95,337,o),
(138,410,o),
(203,448,cs),
(235,467,o),
(270,476,o),
(309,476,cs),
(362,476,o),
(400,461,o),
(432,425,c),
(457,448,l),
(441,469,o),
(420,484,o),
(395,495,cs),
(369,506,o),
(339,511,o),
(306,511,cs),
(221,511,o),
(142,467,o),
(91,388,cs),
(66,349,o),
(50,303,o),
(44,252,cs),
(32,147,o),
(62,65,o),
(129,22,cs),
(162,0,o),
(203,-11,o),
(252,-11,cs)
);
}
);
width = 489;
}
);
leftKerningGroup = a2;
rightKerningGroup = c;
unicode = 99;
},
{
glyphname = d;
layers = (
{
anchors = (
{
name = m.uni0324_3;
position = "{239, 0}";
},
{
name = t.uni0308_1_3;
position = "{497, 732}";
},
{
name = t.uni0335_4;
position = "{456, 610}";
},
{
name = t.uni030C.alt_4;
position = "{538, 500}";
}
);
layerId = "CF1FEFF6-0598-468F-902F-1EDAA234C103";
shapes = (
{
closed = 1;
nodes = (
(416,732,l),
(582,732,l),
(513,165,l),
(513,162,ls),
(513,113,o),
(524,77,o),
(547,52,c),
(433,-43,l),
(382,0,o),
(347,76,o),
(348,163,c),
(347,163,l)
);
},
{
closed = 1;
nodes = (
(410,526,o),
(464,502,o),
(515,462,c),
(428,351,l),
(414,360,o),
(398,367,o),
(380,374,cs),
(362,380,o),
(344,383,o),
(326,383,cs),
(303,383,o),
(282,378,o),
(263,367,cs),
(226,346,o),
(202,305,o),
(195,250,cs),
(192,224,o),
(192,202,o),
(197,183,cs),
(206,146,o),
(229,126,o),
(258,126,cs),
(279,126,o),
(299,134,o),
(318,150,cs),
(337,166,o),
(349,188,o),
(355,216,c),
(443,183,l),
(436,142,o),
(422,106,o),
(401,75,cs),
(358,14,o),
(294,-20,o),
(225,-20,cs),
(181,-20,o),
(143,-8,o),
(111,17,cs),
(47,65,o),
(15,154,o),
(27,257,cs),
(33,312,o),
(50,361,o),
(78,402,cs),
(134,485,o),
(226,530,o),
(335,527,cs)
);
}
);
width = 593;
},
{
anchors = (
{
name = m.uni0324_3;
position = "{244, -10}";
},
{
name = t.uni0308_1_3;
position = "{495, 732}";
},
{
name = t.uni0335_4;
position = "{441, 614}";
},
{
name = t.uni030C.alt_4;
position = "{557, 500}";
}
);
layerId = "E454AF73-A037-40C8-8E6D-4D661AF510B7";
shapes = (
{
closed = 1;
nodes = (
(465,730,l),
(548,729,l),
(475,139,l),
(475,136,ls),
(475,84,o),
(485,49,o),
(512,21,c),
(458,-28,l),
(422,1,o),
(393,63,o),
(393,136,c),
(392,136,l)
);
},
{
closed = 1;
nodes = (
(398,517,o),
(456,499,o),
(488,484,c),
(444,420,l),
(434,426,o),
(417,431,o),
(394,436,cs),
(371,441,o),
(349,443,o),
(329,444,cs),
(291,445,o),
(257,438,o),
(228,423,cs),
(169,394,o),
(132,332,o),
(121,247,cs),
(117,212,o),
(119,181,o),
(128,154,cs),
(145,99,o),
(186,65,o),
(242,64,cs),
(280,63,o),
(314,75,o),
(345,100,cs),
(375,125,o),
(393,156,o),
(398,193,c),
(451,175,l),
(445,140,o),
(432,109,o),
(411,80,cs),
(370,23,o),
(305,-11,o),
(234,-10,cs),
(191,-9,o),
(154,4,o),
(122,27,cs),
(58,74,o),
(26,157,o),
(37,250,cs),
(44,307,o),
(61,356,o),
(88,397,cs),
(143,479,o),
(232,521,o),
(339,518,cs)
);
}
);
width = 573;
},
{
anchors = (
{
name = m.uni0324_3;
position = "{244, -10}";
},
{
name = t.uni0308_1_3;
position = "{495, 732}";
},
{
name = t.uni0335_4;
position = "{441, 614}";
},
{
name = t.uni030C.alt_4;
position = "{557, 500}";
}
);
layerId = "E7A4057C-21B9-4802-88F9-F6F08CC0F8D4";
shapes = (
{
closed = 1;
nodes = (
(486,729,l),
(524,729,l),
(451,132,l),
(451,128,l),
(454,77,o),
(470,41,o),
(495,14,c),
(471,-10,l),
(443,11,o),
(414,70,o),
(413,131,c),
(413,131,l)
);
},
{
closed = 1;
nodes = (
(382,504,o),
(441,490,o),
(476,473,c),
(452,447,l),
(437,454,o),
(418,459,o),
(395,463,cs),
(372,467,o),
(351,469,o),
(334,470,cs),
(285,471,o),
(242,462,o),
(206,441,cs),
(133,399,o),
(93,323,o),
(82,236,cs),
(77,197,o),
(80,161,o),
(91,129,cs),
(112,64,o),
(160,23,o),
(227,22,cs),
(272,21,o),
(313,34,o),
(349,61,cs),
(385,88,o),
(408,123,o),
(417,166,c),
(445,160,l),
(436,125,o),
(421,94,o),
(400,67,cs),
(357,14,o),
(295,-16,o),
(224,-13,cs),
(183,-12,o),
(148,0,o),
(119,23,cs),
(60,68,o),
(32,148,o),
(43,243,cs),
(49,296,o),
(65,342,o),
(92,382,cs),
(144,462,o),
(232,508,o),
(337,505,cs)
);
}
);
width = 557;
}
);
leftKerningGroup = a2;
rightKerningGroup = a;
unicode = 100;
},
{
glyphname = eth;
layers = (
{
layerId = "CF1FEFF6-0598-468F-902F-1EDAA234C103";
shapes = (
{
closed = 1;
nodes = (
(334,-24,o),
(419,22,o),
(472,102,cs),
(499,142,o),
(515,188,o),
(521,240,cs),
(533,340,o),
(522,435,o),
(488,525,cs),
(454,614,o),
(395,691,o),
(311,754,c),
(217,649,l),
(284,594,o),
(327,536,o),
(346,475,cs),
(365,413,o),
(369,339,o),
(358,254,cs),
(351,198,o),
(331,157,o),
(301,136,cs),
(286,125,o),
(268,120,o),
(249,120,cs),
(220,120,o),
(199,137,o),
(191,168,cs),
(187,183,o),
(186,202,o),
(188,223,cs),
(192,270,o),
(213,304,o),
(242,321,cs),
(256,329,o),
(271,333,o),
(288,333,cs),
(336,333,o),
(366,314,o),
(359,250,c),
(478,244,l),
(487,323,o),
(460,399,o),
(401,444,cs),
(371,466,o),
(335,477,o),
(293,477,cs),
(204,477,o),
(120,434,o),
(68,359,cs),
(41,321,o),
(25,278,o),
(20,230,cs),
(9,130,o),
(46,51,o),
(118,8,cs),
(153,-13,o),
(195,-24,o),
(243,-24,cs)
);
},
{
closed = 1;
nodes = (
(205,604,l),
(242,498,l),
(516,615,l),
(478,721,l)
);
}
);
width = 546;
},
{
layerId = "E454AF73-A037-40C8-8E6D-4D661AF510B7";
shapes = (
{
closed = 1;
nodes = (
(318,-14,o),
(395,28,o),
(445,108,cs),
(470,148,o),
(485,196,o),
(492,252,cs),
(505,359,o),
(495,453,o),
(462,535,cs),
(429,617,o),
(372,687,o),
(291,744,c),
(244,691,l),
(315,636,o),
(364,575,o),
(389,508,cs),
(414,441,o),
(420,358,o),
(408,260,cs),
(399,181,o),
(368,120,o),
(320,86,cs),
(295,69,o),
(267,60,o),
(235,60,cs),
(182,60,o),
(141,89,o),
(122,141,cs),
(113,167,o),
(110,198,o),
(114,233,cs),
(123,306,o),
(159,365,o),
(209,397,cs),
(234,412,o),
(260,420,o),
(288,420,cs),
(372,420,o),
(423,368,o),
(414,281,c),
(469,278,l),
(477,355,o),
(450,425,o),
(394,465,c),
(365,484,o),
(331,494,o),
(290,494,cs),
(205,494,o),
(126,445,o),
(76,368,cs),
(51,329,o),
(35,287,o),
(30,241,cs),
(19,146,o),
(54,64,o),
(119,20,cs),
(152,-3,o),
(190,-14,o),
(233,-14,cs)
);
},
{
closed = 1;
nodes = (
(218,600,l),
(242,532,l),
(509,647,l),
(484,715,l)
);
}
);
width = 525;
},
{
layerId = "E7A4057C-21B9-4802-88F9-F6F08CC0F8D4";
shapes = (
{
closed = 1;
nodes = (
(306,-10,o),
(379,32,o),
(426,105,cs),
(449,142,o),
(464,184,o),
(470,232,cs),
(484,347,o),
(476,445,o),
(446,528,cs),
(416,610,o),
(362,682,o),
(283,744,c),
(260,717,l),
(334,658,o),
(384,590,o),
(411,515,cs),
(438,440,o),
(444,347,o),
(430,236,cs),
(421,156,o),
(382,89,o),
(323,53,c),
(294,34,o),
(261,25,o),
(226,25,cs),
(159,25,o),
(108,60,o),
(85,122,cs),
(74,153,o),
(70,188,o),
(75,229,cs),
(84,313,o),
(126,383,o),
(186,420,cs),
(216,438,o),
(248,447,o),
(282,447,cs),
(387,447,o),
(447,390,o),
(436,277,c),
(472,276,l),
(476,356,o),
(446,420,o),
(387,456,cs),
(358,473,o),
(323,482,o),
(283,482,cs),
(199,482,o),
(125,439,o),
(79,364,cs),
(56,326,o),
(41,282,o),
(35,233,cs),
(23,134,o),
(53,59,o),
(115,20,cs),
(146,0,o),
(182,-10,o),
(225,-10,cs)
);
},
{
closed = 1;
nodes = (
(225,584,l),
(236,552,l),
(517,671,l),
(506,703,l)
);
}
);
width = 512;
}
);
leftKerningGroup = a2;
rightKerningGroup = D;
unicode = 240;
},
{
glyphname = e;
layers = (
{
anchors = (
{
name = m.uni0324_3;
position = "{265, -12}";
},
{
name = t.uni0308_1_3;
position = "{330, 512}";
},
{
name = m.uni0328_2;
position = "{495, 67}";
}
);
layerId = "CF1FEFF6-0598-468F-902F-1EDAA234C103";
shapes = (
{
closed = 1;
nodes = (
(194,298,l),
(218,295,o),
(263,295,o),
(286,299,c),
(337,306,o),
(360,321,o),
(365,352,cs),
(368,371,o),
(348,387,o),
(323,387,cs),
(306,387,o),
(290,381,o),
(275,370,cs),
(244,347,o),
(221,303,o),
(214,243,cs),
(210,212,o),
(214,183,o),
(225,158,cs),
(236,133,o),
(255,120,o),
(284,120,cs),
(332,120,o),
(392,146,o),
(425,178,c),
(496,64,l),
(431,5,o),
(354,-25,o),
(271,-24,cs),
(220,-23,o),
(177,-12,o),
(141,11,cs),
(68,56,o),
(33,142,o),
(46,254,cs),
(53,307,o),
(70,355,o),
(98,396,cs),
(153,479,o),
(240,525,o),
(336,524,cs),
(377,523,o),
(412,515,o),
(442,498,cs),
(501,465,o),
(531,406,o),
(523,337,cs),
(519,304,o),
(507,275,o),
(487,251,cs),
(446,202,o),
(377,175,o),
(289,175,c),
(274,176,o),
(258,176,o),
(243,176,cs),
(224,176,o),
(206,176,o),
(189,179,c)
);
}
);
width = 563;
},
{
anchors = (
{
name = m.uni0324_3;
position = "{256, -1}";
},
{
name = t.uni0308_1_3;
position = "{324, 512}";
},
{
name = m.uni0328_2;
position = "{504, 64}";
}
);
layerId = "E454AF73-A037-40C8-8E6D-4D661AF510B7";
shapes = (
{
closed = 1;
nodes = (
(129,271,l),
(158,267,o),
(194,264,o),
(221,264,cs),
(344,264,o),
(408,296,o),
(416,360,cs),
(423,409,o),
(388,443,o),
(331,443,cs),
(300,443,o),
(271,435,o),
(244,419,cs),
(188,387,o),
(150,326,o),
(142,250,cs),
(136,192,o),
(144,146,o),
(165,113,cs),
(186,80,o),
(222,63,o),
(274,63,cs),
(326,63,o),
(381,82,o),
(434,119,c),
(471,60,l),
(415,16,o),
(337,-11,o),
(268,-11,cs),
(220,-11,o),
(179,0,o),
(145,21,cs),
(77,64,o),
(45,144,o),
(57,247,cs),
(63,298,o),
(79,345,o),
(105,386,cs),
(157,468,o),
(240,517,o),
(332,517,cs),
(367,517,o),
(399,510,o),
(426,496,cs),
(480,467,o),
(507,413,o),
(500,352,cs),
(496,318,o),
(482,289,o),
(459,264,cs),
(411,214,o),
(327,186,o),
(219,190,c),
(201,192,o),
(183,194,o),
(165,195,cs),
(152,196,o),
(140,198,o),
(129,198,c)
);
}
);
width = 547;
},
{
anchors = (
{
name = m.uni0324_3;
position = "{256, -1}";
},
{
name = t.uni0308_1_3;
position = "{324, 512}";
},
{
name = m.uni0328_2;
position = "{504, 64}";
}
);
layerId = "E7A4057C-21B9-4802-88F9-F6F08CC0F8D4";
shapes = (
{
closed = 1;
nodes = (
(93,253,l),
(142,249,o),
(180,246,o),
(244,246,c),
(360,243,o),
(436,287,o),
(445,363,cs),
(453,428,o),
(407,473,o),
(334,473,cs),
(297,473,o),
(261,463,o),
(228,443,cs),
(161,402,o),
(113,328,o),
(104,245,cs),
(96,171,o),
(106,117,o),
(135,82,cs),
(164,47,o),
(208,29,o),
(267,29,cs),
(330,29,o),
(384,50,o),
(436,87,c),
(454,59,l),
(391,14,o),
(335,-6,o),
(266,-6,cs),
(218,-6,o),
(178,4,o),
(145,23,cs),
(80,62,o),
(51,138,o),
(63,242,cs),
(69,292,o),
(85,337,o),
(110,378,cs),
(161,459,o),
(242,508,o),
(333,508,cs),
(366,508,o),
(395,502,o),
(420,489,cs),
(468,464,o),
(492,417,o),
(485,360,cs),
(481,328,o),
(469,301,o),
(449,279,cs),
(408,234,o),
(336,210,o),
(244,210,cs),
(223,210,o),
(192,211,o),
(149,214,c),
(125,217,o),
(120,216,o),
(97,219,c)
);
}
);
width = 535;
}
);
leftKerningGroup = a2;
rightKerningGroup = b;
unicode = 101;
},
{
glyphname = schwa;
layers = (
{
anchors = (
{
name = m.uni0324_3;
position = "{233, -12}";
},
{
name = t.uni0308_1_3;
position = "{298, 511}";
},
{
name = m.uni0328_2;
position = "{68, 433}";
}
);
layerId = "CF1FEFF6-0598-468F-902F-1EDAA234C103";
shapes = (
{
closed = 1;
nodes = (
(369,202,l),
(345,205,o),
(300,205,o),
(277,201,c),
(226,194,o),
(203,179,o),
(198,148,cs),
(195,129,o),
(215,113,o),
(240,113,cs),
(257,113,o),
(273,119,o),
(288,130,cs),
(319,153,o),
(342,197,o),
(349,257,cs),
(353,288,o),
(350,317,o),
(339,342,cs),
(328,367,o),
(308,380,o),
(279,380,cs),
(231,380,o),
(171,354,o),
(138,322,c),
(67,436,l),
(132,495,o),
(209,525,o),
(292,524,cs),
(343,523,o),
(386,512,o),
(423,489,cs),
(495,444,o),
(530,358,o),
(517,246,cs),
(510,193,o),
(493,145,o),
(466,104,cs),
(410,21,o),
(323,-25,o),
(227,-24,cs),
(186,-23,o),
(151,-15,o),
(122,2,c),
(62,35,o),
(32,94,o),
(40,163,cs),
(44,196,o),
(56,225,o),
(77,250,cs),
(117,298,o),
(186,325,o),
(274,325,cs),
(289,325,o),
(305,325,o),
(320,324,c),
(339,324,o),
(357,324,o),
(374,321,c)
);
}
);
width = 563;
},
{
anchors = (
{
name = m.uni0324_3;
position = "{251, -12}";
},
{
name = t.uni0308_1_3;
position = "{319, 500}";
},
{
name = m.uni0328_2;
position = "{71, 436}";
}
);
layerId = "E454AF73-A037-40C8-8E6D-4D661AF510B7";
shapes = (
{
closed = 1;
nodes = (
(418,229,l),
(389,233,o),
(353,236,o),
(326,236,cs),
(205,236,o),
(139,204,o),
(131,140,cs),
(124,91,o),
(159,57,o),
(216,57,cs),
(247,57,o),
(276,65,o),
(304,81,cs),
(359,113,o),
(397,174,o),
(405,250,cs),
(411,308,o),
(404,354,o),
(383,387,cs),
(362,420,o),
(325,437,o),
(273,437,cs),
(221,437,o),
(166,418,o),
(113,381,c),
(76,440,l),
(132,484,o),
(210,511,o),
(279,511,cs),
(327,511,o),
(368,500,o),
(402,479,cs),
(470,436,o),
(502,356,o),
(490,253,cs),
(484,202,o),
(468,156,o),
(442,115,cs),
(390,33,o),
(307,-17,o),
(215,-17,cs),
(180,-17,o),
(149,-10,o),
(122,5,c),
(68,33,o),
(40,87,o),
(47,148,cs),
(51,182,o),
(65,212,o),
(89,237,cs),
(136,287,o),
(220,314,o),
(328,310,cs),
(346,309,o),
(364,307,o),
(382,305,cs),
(395,304,o),
(407,302,o),
(418,302,c)
);
}
);
width = 547;
},
{
anchors = (
{
name = m.uni0324_3;
position = "{251, -12}";
},
{
name = t.uni0308_1_3;
position = "{319, 500}";
},
{
name = m.uni0328_2;
position = "{71, 436}";
}
);
layerId = "E7A4057C-21B9-4802-88F9-F6F08CC0F8D4";
shapes = (
{
closed = 1;
nodes = (
(442,247,l),
(393,251,o),
(355,254,o),
(291,254,c),
(175,257,o),
(99,213,o),
(90,137,cs),
(82,72,o),
(128,27,o),
(201,27,cs),
(238,27,o),
(274,37,o),
(307,58,c),
(374,98,o),
(422,172,o),
(431,255,cs),
(439,329,o),
(429,384,o),
(400,419,cs),
(371,454,o),
(327,471,o),
(268,471,cs),
(205,471,o),
(151,450,o),
(99,413,c),
(81,441,l),
(144,486,o),
(200,506,o),
(269,506,cs),
(317,506,o),
(357,496,o),
(390,477,cs),
(455,438,o),
(484,362,o),
(472,258,cs),
(466,208,o),
(450,163,o),
(425,122,cs),
(374,41,o),
(293,-8,o),
(202,-8,cs),
(169,-8,o),
(140,-2,o),
(116,11,cs),
(67,36,o),
(43,83,o),
(50,140,cs),
(54,172,o),
(66,199,o),
(87,222,cs),
(127,266,o),
(199,290,o),
(291,290,cs),
(312,290,o),
(343,289,o),
(386,286,c),
(410,283,o),
(415,284,o),
(438,281,c)
);
}
);
width = 535;
}
);
leftKerningGroup = a2;
rightKerningGroup = c;
unicode = 601;
},
{
glyphname = f;
layers = (
{
anchors = (
{
name = m.uni0324_3;
position = "{139, 10}";
},
{
name = t.uni0308_1_3;
position = "{319, 728}";
}
);
layerId = "CF1FEFF6-0598-468F-902F-1EDAA234C103";
shapes = (
{
closed = 1;
nodes = (
(45,500,l),
(395,500,l),
(380,373,l),
(30,373,l)
);
},
{
closed = 1;
nodes = (
(113,565,ls),
(128,682,o),
(206,747,o),
(309,747,cs),
(366,747,o),
(414,727,o),
(453,686,c),
(366,575,l),
(357,585,o),
(345,590,o),
(332,590,cs),
(301,590,o),
(280,570,o),
(277,542,cs),
(178,-259,l),
(12,-259,l)
);
}
);
width = 379;
},
{
anchors = (
{
name = m.uni0324_3;
position = "{175, 12}";
},
{
name = t.uni0308_1_3;
position = "{348, 726}";
}
);
layerId = "E454AF73-A037-40C8-8E6D-4D661AF510B7";
shapes = (
{
closed = 1;
nodes = (
(47,500,l),
(352,500,l),
(343,426,l),
(38,426,l)
);
},
{
closed = 1;
nodes = (
(135,582,ls),
(148,687,o),
(208,741,o),
(299,741,cs),
(342,741,o),
(378,729,o),
(405,704,c),
(361,643,l),
(346,656,o),
(327,663,o),
(304,663,cs),
(259,663,o),
(225,642,o),
(217,574,cs),
(115,-260,l),
(32,-260,l)
);
}
);
width = 333;
},
{
anchors = (
{
name = m.uni0324_3;
position = "{175, 12}";
},
{
name = t.uni0308_1_3;
position = "{348, 726}";
}
);
layerId = "E7A4057C-21B9-4802-88F9-F6F08CC0F8D4";
shapes = (
{
closed = 1;
nodes = (
(43,500,l),
(305,500,l),
(301,466,l),
(39,466,l)
);
},
{
closed = 1;
nodes = (
(128,596,ls),
(140,692,o),
(193,741,o),
(277,741,cs),
(311,741,o),
(339,732,o),
(360,715,c),
(341,686,l),
(326,699,o),
(305,705,o),
(279,705,cs),
(215,705,o),
(175,667,o),
(166,594,cs),
(61,-260,l),
(23,-260,l)
);
}
);
width = 291;
}
);
leftKerningGroup = f2;
rightKerningGroup = f;
unicode = 102;
},
{
glyphname = g;
layers = (
{
anchors = (
{
name = m.uni0324_3;
position = "{372, -273}";
},
{
name = t.uni0308_1_3;
position = "{341, 512}";
}
);
layerId = "CF1FEFF6-0598-468F-902F-1EDAA234C103";
shapes = (
{
closed = 1;
nodes = (
(409,522,o),
(463,498,o),
(514,458,c),
(427,347,l),
(413,356,o),
(397,363,o),
(379,370,cs),
(361,376,o),
(343,379,o),
(325,379,cs),
(302,379,o),
(281,374,o),
(262,363,cs),
(225,342,o),
(201,301,o),
(194,246,cs),
(191,220,o),
(191,198,o),
(196,179,cs),
(205,142,o),
(228,122,o),
(257,122,cs),
(278,122,o),
(298,130,o),
(317,146,cs),
(336,162,o),
(348,184,o),
(354,212,c),
(442,179,l),
(435,138,o),
(421,102,o),
(400,71,cs),
(357,10,o),
(293,-24,o),
(224,-24,cs),
(180,-24,o),
(142,-12,o),
(110,13,cs),
(46,61,o),
(14,150,o),
(26,253,cs),
(32,308,o),
(49,357,o),
(77,398,cs),
(133,481,o),
(225,526,o),
(334,523,cs)
);
},
{
closed = 1;
nodes = (
(166,-289,o),
(92,-247,o),
(43,-184,c),
(149,-82,l),
(188,-123,o),
(225,-154,o),
(266,-154,cs),
(279,-154,o),
(291,-148,o),
(300,-135,cs),
(309,-122,o),
(315,-104,o),
(318,-82,cs),
(389,517,l),
(422,512,o),
(450,505,o),
(473,498,cs),
(496,490,o),
(521,480,o),
(550,468,c),
(483,-79,ls),
(476,-142,o),
(454,-193,o),
(417,-232,cs),
(380,-270,o),
(328,-289,o),
(262,-289,cs)
);
}
);
width = 574;
},
{
anchors = (
{
name = m.uni0324_3;
position = "{429, -280}";
},
{
name = t.uni0308_1_3;
position = "{402, 514}";
}
);
layerId = "E454AF73-A037-40C8-8E6D-4D661AF510B7";
shapes = (
{
closed = 1;
nodes = (
(398,515,o),
(456,497,o),
(488,482,c),
(444,418,l),
(434,424,o),
(417,429,o),
(394,434,cs),
(371,439,o),
(349,441,o),
(329,442,cs),
(291,443,o),
(257,436,o),
(228,421,cs),
(169,392,o),
(132,330,o),
(121,245,cs),
(117,210,o),
(119,179,o),
(128,152,cs),
(145,97,o),
(186,63,o),
(242,62,cs),
(280,61,o),
(314,73,o),
(345,98,cs),
(375,123,o),
(393,154,o),
(398,191,c),
(451,173,l),
(445,138,o),
(432,107,o),
(411,78,cs),
(370,21,o),
(305,-13,o),
(234,-12,cs),
(191,-11,o),
(154,2,o),
(122,25,cs),
(58,72,o),
(26,155,o),
(37,248,cs),
(44,305,o),
(61,354,o),
(88,395,cs),
(143,477,o),
(232,519,o),
(339,516,cs)
);
},
{
closed = 1;
nodes = (
(156,-273,o),
(93,-245,o),
(44,-186,c),
(95,-134,l),
(142,-181,o),
(181,-198,o),
(234,-198,cs),
(283,-198,o),
(316,-188,o),
(333,-169,cs),
(350,-150,o),
(360,-124,o),
(364,-92,cs),
(435,500,l),
(448,496,o),
(462,492,o),
(475,488,cs),
(488,483,o),
(502,478,o),
(515,473,c),
(444,-103,ls),
(437,-156,o),
(418,-197,o),
(387,-227,cs),
(355,-257,o),
(302,-272,o),
(229,-273,cs)
);
}
);
width = 556;
},
{
anchors = (
{
name = m.uni0324_3;
position = "{429, -280}";
},
{
name = t.uni0308_1_3;
position = "{402, 514}";
}
);
layerId = "E7A4057C-21B9-4802-88F9-F6F08CC0F8D4";
shapes = (
{
closed = 1;
nodes = (
(383,508,o),
(442,494,o),
(477,477,c),
(453,451,l),
(438,458,o),
(419,463,o),
(396,467,cs),
(373,471,o),
(352,473,o),
(335,474,cs),
(286,475,o),
(243,466,o),
(207,445,cs),
(134,403,o),
(94,327,o),
(83,240,cs),
(78,201,o),
(81,165,o),
(92,133,cs),
(113,68,o),
(161,27,o),
(228,26,cs),
(273,25,o),
(314,38,o),
(350,65,cs),
(386,92,o),
(409,127,o),
(418,170,c),
(446,164,l),
(437,129,o),
(422,98,o),
(401,71,cs),
(358,18,o),
(296,-12,o),
(225,-9,cs),
(184,-8,o),
(149,4,o),
(120,27,cs),
(61,72,o),
(33,152,o),
(44,247,cs),
(50,300,o),
(66,346,o),
(93,386,cs),
(145,466,o),
(233,512,o),
(338,509,cs)
);
},
{
closed = 1;
nodes = (
(172,-276,o),
(115,-251,o),
(67,-195,c),
(93,-170,l),
(133,-217,o),
(187,-242,o),
(243,-242,cs),
(285,-242,o),
(317,-232,o),
(340,-212,cs),
(363,-191,o),
(376,-162,o),
(381,-123,cs),
(455,486,l),
(461,484,o),
(467,482,o),
(473,480,cs),
(479,478,o),
(485,476,o),
(491,473,c),
(418,-133,ls),
(413,-178,o),
(395,-213,o),
(364,-238,cs),
(333,-263,o),
(292,-276,o),
(241,-276,cs)
);
}
);
width = 538;
}
);
leftKerningGroup = a2;
rightKerningGroup = g;
unicode = 103;
},
{
glyphname = h;
layers = (
{
anchors = (
{
name = m.uni0324_3;
position = "{268, 0}";
},
{
name = t.uni0308_1_3;
position = "{198, 731}";
},
{
name = t.uni0335_4;
position = "{206, 611}";
}
);
layerId = "CF1FEFF6-0598-468F-902F-1EDAA234C103";
shapes = (
{
closed = 1;
nodes = (
(115,731,l),
(280,731,l),
(190,0,l),
(25,0,l)
);
},
{
closed = 1;
nodes = (
(377,303,ls),
(384,346,o),
(368,375,o),
(325,375,cs),
(304,375,o),
(285,369,o),
(268,358,cs),
(251,347,o),
(237,331,o),
(228,311,c),
(167,378,l),
(192,424,o),
(223,460,o),
(261,486,cs),
(299,511,o),
(339,524,o),
(380,524,cs),
(417,524,o),
(450,515,o),
(477,496,cs),
(531,458,o),
(557,392,o),
(546,320,cs),
(501,0,l),
(334,0,l)
);
}
);
width = 594;
},
{
anchors = (
{
name = m.uni0324_3;
position = "{287, 0}";
},
{
name = t.uni0308_1_3;
position = "{215, 732}";
},
{
name = t.uni0335_4;
position = "{249, 605}";
}
);
layerId = "E454AF73-A037-40C8-8E6D-4D661AF510B7";
shapes = (
{
closed = 1;
nodes = (
(127,727,l),
(209,727,l),
(120,0,l),
(38,0,l)
);
},
{
closed = 1;
nodes = (
(426,307,ls),
(437,399,o),
(406,440,o),
(325,440,cs),
(294,440,o),
(263,428,o),
(231,405,cs),
(198,382,o),
(174,354,o),
(157,322,c),
(123,364,l),
(146,407,o),
(178,442,o),
(217,471,cs),
(256,500,o),
(296,514,o),
(337,514,cs),
(376,514,o),
(409,506,o),
(437,490,cs),
(492,458,o),
(519,397,o),
(510,321,cs),
(471,0,l),
(389,0,l)
);
}
);
width = 574;
},
{
anchors = (
{
name = m.uni0324_3;
position = "{287, 0}";
},
{
name = t.uni0308_1_3;
position = "{215, 732}";
},
{
name = t.uni0335_4;
position = "{249, 605}";
}
);
layerId = "E7A4057C-21B9-4802-88F9-F6F08CC0F8D4";
shapes = (
{
closed = 1;
nodes = (
(131,728,l),
(169,728,l),
(80,0,l),
(42,0,l)
);
},
{
closed = 1;
nodes = (
(432,307,ls),
(445,416,o),
(407,470,o),
(310,470,cs),
(275,470,o),
(241,459,o),
(206,436,cs),
(171,413,o),
(140,379,o),
(113,335,c),
(94,358,l),
(122,403,o),
(156,438,o),
(196,465,cs),
(235,491,o),
(276,504,o),
(317,504,cs),
(356,504,o),
(387,496,o),
(412,481,cs),
(461,450,o),
(480,392,o),
(471,312,cs),
(432,0,l),
(394,0,l)
);
}
);
width = 539;
}
);
rightKerningGroup = h;
unicode = 104;
},
{
glyphname = dotlessi;
layers = (
{
anchors = (
{
name = m.uni0324_3;
position = "{110, 0}";
},
{
name = t.uni0308_1_3;
position = "{171, 500}";
},
{
name = t.uni0335_4;
position = "{143, 269}";
},
{
name = m.uni0328_2;
position = "{192, 1}";
}
);
layerId = "CF1FEFF6-0598-468F-902F-1EDAA234C103";
shapes = (
{
closed = 1;
nodes = (
(87,499,l),
(26,1,l),
(192,1,l),
(253,500,l)
);
}
);
width = 279;
},
{
anchors = (
{
name = m.uni0324_3;
position = "{133, 0}";
},
{
name = t.uni0308_1_3;
position = "{188, 500}";
},
{
name = t.uni0335_4;
position = "{161, 269}";
},
{
name = m.uni0328_2;
position = "{230, 0}";
}
);
layerId = "E454AF73-A037-40C8-8E6D-4D661AF510B7";
shapes = (
{
closed = 1;
nodes = (
(99,501,l),
(37,0,l),
(119,0,l),
(180,500,l)
);
}
);
width = 218;
},
{
anchors = (
{
name = m.uni0324_3;
position = "{133, 0}";
},
{
name = t.uni0308_1_3;
position = "{188, 500}";
},
{
name = t.uni0335_4;
position = "{161, 269}";
},
{
name = m.uni0328_2;
position = "{230, 0}";
}
);
layerId = "E7A4057C-21B9-4802-88F9-F6F08CC0F8D4";
shapes = (
{
closed = 1;
nodes = (
(103,500,l),
(42,0,l),
(80,0,l),
(141,500,l)
);
}
);
width = 183;
}
);
leftKerningGroup = i;
unicode = 305;
},
{
glyphname = ij;
layers = (
{
anchors = (
{
name = m.uni0324_3;
position = "{429, -260}";
},
{
name = t.uni0308_1_3;
position = "{482, 732}";
},
{
name = t.uni0335_4;
position = "{136, 269}";
},
{
name = m.uni0328_2;
position = "{185, 1}";
}
);
layerId = "CF1FEFF6-0598-468F-902F-1EDAA234C103";
shapes = (
{
closed = 1;
nodes = (
(80,499,l),
(19,1,l),
(185,1,l),
(246,500,l)
);
},
{
closed = 1;
nodes = (
(198,541,o),
(221,550,o),
(241,567,cs),
(260,584,o),
(272,604,o),
(275,627,cs),
(278,656,o),
(271,680,o),
(253,700,cs),
(235,720,o),
(212,730,o),
(183,730,cs),
(159,730,o),
(138,721,o),
(119,704,cs),
(100,687,o),
(88,666,o),
(85,643,cs),
(82,616,o),
(89,592,o),
(106,572,cs),
(123,551,o),
(146,541,o),
(173,541,cs)
);
},
{
closed = 1;
nodes = (
(535,498,l),
(370,498,l),
(299,-85,ls),
(294,-128,o),
(279,-146,o),
(252,-146,cs),
(235,-146,o),
(227,-135,o),
(228,-122,c),
(87,-126,l),
(84,-186,o),
(112,-237,o),
(163,-266,cs),
(188,-281,o),
(218,-289,o),
(251,-290,cs),
(306,-293,o),
(353,-277,o),
(392,-242,cs),
(431,-207,o),
(455,-155,o),
(464,-84,cs)
);
},
{
closed = 1;
nodes = (
(488,541,o),
(511,550,o),
(531,567,cs),
(550,584,o),
(562,604,o),
(565,627,cs),
(568,656,o),
(561,680,o),
(543,700,cs),
(525,720,o),
(502,730,o),
(473,730,cs),
(449,730,o),
(428,721,o),
(409,704,cs),
(390,687,o),
(378,666,o),
(375,643,cs),
(372,616,o),
(379,592,o),
(396,572,cs),
(413,551,o),
(436,541,o),
(463,541,cs)
);
}
);
width = 560;
},
{
anchors = (
{
name = m.uni0324_3;
position = "{389, -260}";
},
{
name = t.uni0308_1_3;
position = "{527, 752}";
},
{
name = t.uni0335_4;
position = "{156, 269}";
},
{
name = m.uni0328_2;
position = "{225, 0}";
}
);
layerId = "E454AF73-A037-40C8-8E6D-4D661AF510B7";
shapes = (
{
closed = 1;
nodes = (
(101,501,l),
(39,0,l),
(121,0,l),
(182,500,l)
);
},
{
closed = 1;
nodes = (
(166,563,o),
(178,568,o),
(189,578,cs),
(200,587,o),
(207,598,o),
(208,611,cs),
(210,626,o),
(206,639,o),
(196,651,cs),
(186,662,o),
(174,668,o),
(159,668,cs),
(146,668,o),
(134,663,o),
(123,653,cs),
(112,643,o),
(105,632,o),
(104,619,cs),
(103,604,o),
(107,591,o),
(117,580,cs),
(126,569,o),
(138,563,o),
(153,563,cs)
);
},
{
closed = 1;
nodes = (
(391,500,l),
(310,500,l),
(234,-114,ls),
(229,-154,o),
(205,-175,o),
(173,-174,cs),
(148,-173,o),
(136,-158,o),
(133,-135,c),
(61,-141,l),
(61,-181,o),
(82,-214,o),
(115,-233,cs),
(131,-242,o),
(149,-247,o),
(169,-248,cs),
(202,-249,o),
(233,-239,o),
(262,-218,cs),
(291,-197,o),
(308,-164,o),
(315,-120,c)
);
},
{
closed = 1;
nodes = (
(374,563,o),
(386,568,o),
(397,578,cs),
(408,587,o),
(415,598,o),
(416,611,cs),
(418,626,o),
(414,639,o),
(404,651,cs),
(394,662,o),
(382,668,o),
(367,668,cs),
(354,668,o),
(342,663,o),
(331,653,cs),
(320,643,o),
(313,632,o),
(312,619,cs),
(311,604,o),
(315,591,o),
(325,580,cs),
(334,569,o),
(346,563,o),
(361,563,cs)
);
}
);
width = 426;
},
{
anchors = (
{
name = m.uni0324_3;
position = "{389, -260}";
},
{
name = t.uni0308_1_3;
position = "{527, 752}";
},
{
name = t.uni0335_4;
position = "{156, 269}";
},
{
name = m.uni0328_2;
position = "{225, 0}";
}
);
layerId = "E7A4057C-21B9-4802-88F9-F6F08CC0F8D4";
shapes = (
{
closed = 1;
nodes = (
(103,500,l),
(42,0,l),
(80,0,l),
(141,500,l)
);
},
{
closed = 1;
nodes = (
(142,579,o),
(151,582,o),
(158,588,cs),
(165,594,o),
(169,602,o),
(170,612,cs),
(171,623,o),
(168,631,o),
(162,638,cs),
(156,645,o),
(148,648,o),
(137,648,cs),
(128,648,o),
(120,645,o),
(113,639,cs),
(106,633,o),
(102,625,o),
(101,616,cs),
(100,605,o),
(102,596,o),
(108,589,cs),
(113,582,o),
(121,579,o),
(132,579,cs)
);
},
{
closed = 1;
nodes = (
(327,500,l),
(289,500,l),
(213,-123,l),
(208,-174,o),
(176,-200,o),
(133,-200,cs),
(97,-200,o),
(75,-174,o),
(76,-138,c),
(41,-141,l),
(40,-176,o),
(56,-206,o),
(85,-223,cs),
(99,-232,o),
(115,-236,o),
(134,-236,cs),
(163,-236,o),
(189,-226,o),
(212,-206,c),
(234,-185,o),
(247,-158,o),
(251,-125,cs)
);
},
{
closed = 1;
nodes = (
(327,579,o),
(336,582,o),
(343,588,cs),
(350,594,o),
(354,602,o),
(355,612,cs),
(356,623,o),
(353,631,o),
(347,638,cs),
(341,645,o),
(333,648,o),
(322,648,cs),
(313,648,o),
(305,645,o),
(298,639,cs),
(291,633,o),
(287,625,o),
(286,616,cs),
(285,605,o),
(287,596,o),
(293,589,cs),
(298,582,o),
(306,579,o),
(317,579,cs)
);
}
);
width = 370;
}
);
leftKerningGroup = i;
rightKerningGroup = g;
unicode = 307;
},
{
glyphname = dotlessj;
layers = (
{
anchors = (
{
name = m.uni0324_3;
position = "{67, -260}";
},
{
name = t.uni0308_1_3;
position = "{171, 500}";
}
);
layerId = "CF1FEFF6-0598-468F-902F-1EDAA234C103";
shapes = (
{
closed = 1;
nodes = (
(255,499,l),
(183,-93,ls),
(176,-151,o),
(158,-195,o),
(129,-225,c),
(99,-254,o),
(60,-269,o),
(12,-269,cs),
(-75,-269,o),
(-130,-220,o),
(-137,-147,c),
(-15,-128,l),
(-14,-132,o),
(-9,-135,o),
(-2,-135,cs),
(7,-135,o),
(14,-122,o),
(15,-110,cs),
(90,499,l)
);
}
);
width = 276;
},
{
anchors = (
{
name = m.uni0324_3;
position = "{85, -260}";
},
{
name = t.uni0308_1_3;
position = "{190, 500}";
}
);
layerId = "E454AF73-A037-40C8-8E6D-4D661AF510B7";
shapes = (
{
closed = 1;
nodes = (
(184,500,l),
(102,-168,ls),
(98,-200,o),
(85,-225,o),
(64,-242,cs),
(42,-259,o),
(19,-268,o),
(-5,-268,cs),
(-57,-268,o),
(-100,-232,o),
(-104,-184,c),
(-29,-173,l),
(-28,-185,o),
(-19,-192,o),
(-8,-192,cs),
(8,-192,o),
(18,-179,o),
(21,-163,c),
(102,500,l)
);
}
);
width = 221;
},
{
anchors = (
{
name = m.uni0324_3;
position = "{85, -260}";
},
{
name = t.uni0308_1_3;
position = "{190, 500}";
}
);
layerId = "E7A4057C-21B9-4802-88F9-F6F08CC0F8D4";
shapes = (
{
closed = 1;
nodes = (
(144,500,l),
(61,-176,ls),
(58,-202,o),
(48,-223,o),
(30,-240,cs),
(12,-256,o),
(-9,-264,o),
(-34,-264,cs),
(-73,-264,o),
(-104,-235,o),
(-109,-195,c),
(-74,-189,l),
(-71,-214,o),
(-54,-230,o),
(-33,-230,cs),
(-2,-230,o),
(20,-209,o),
(24,-174,cs),
(106,500,l)
);
}
);
width = 186;
}
);
leftKerningGroup = j;
rightKerningGroup = g;
unicode = 567;
},
{
glyphname = k;
layers = (
{
anchors = (
{
name = m.uni0324_3;
position = "{245, 0}";
},
{
name = t.uni0308_1_3;
position = "{203, 731}";
}
);
layerId = "CF1FEFF6-0598-468F-902F-1EDAA234C103";
shapes = (
{
closed = 1;
nodes = (
(115,731,l),
(281,731,l),
(191,-2,l),
(25,-2,l)
);
},
{
closed = 1;
nodes = (
(538,-1,l),
(347,-1,l),
(248,227,l),
(375,310,l)
);
},
{
closed = 1;
nodes = (
(378,500,l),
(579,500,l),
(127,30,l),
(154,265,l)
);
}
);
width = 571;
},
{
anchors = (
{
name = m.uni0324_3;
position = "{258, 7}";
},
{
name = t.uni0308_1_3;
position = "{225, 731}";
}
);
layerId = "E454AF73-A037-40C8-8E6D-4D661AF510B7";
shapes = (
{
closed = 1;
nodes = (
(127,727,l),
(210,727,l),
(121,-1,l),
(38,-1,l)
);
},
{
closed = 1;
nodes = (
(476,-1,l),
(383,-1,l),
(238,283,l),
(306,327,l)
);
},
{
closed = 1;
nodes = (
(406,500,l),
(513,500,l),
(122,144,l),
(134,254,l)
);
}
);
width = 518;
},
{
anchors = (
{
name = m.uni0324_3;
position = "{258, 7}";
},
{
name = t.uni0308_1_3;
position = "{225, 731}";
}
);
layerId = "E7A4057C-21B9-4802-88F9-F6F08CC0F8D4";
shapes = (
{
closed = 1;
nodes = (
(130,726,l),
(168,726,l),
(79,0,l),
(41,0,l)
);
},
{
closed = 1;
nodes = (
(441,0,l),
(397,0,l),
(236,308,l),
(272,327,l)
);
},
{
closed = 1;
nodes = (
(414,500,l),
(468,500,l),
(77,128,l),
(86,188,l)
);
}
);
width = 488;
}
);
unicode = 107;
},
{
glyphname = kgreenlandic;
layers = (
{
anchors = (
{
name = m.uni0324_3;
position = "{256, 0}";
},
{
name = t.uni0308_1_3;
position = "{317, 500}";
}
);
layerId = "CF1FEFF6-0598-468F-902F-1EDAA234C103";
shapes = (
{
closed = 1;
nodes = (
(523,108,l),
(500,112,o),
(485,137,o),
(469,169,c),
(462,184,l),
(450,205,o),
(439,222,o),
(428,235,cs),
(417,248,o),
(402,258,o),
(383,265,c),
(412,280,o),
(431,292,o),
(447,307,cs),
(460,318,o),
(468,335,o),
(473,347,c),
(474,348,o),
(475,351,o),
(477,356,cs),
(478,358,o),
(480,360,o),
(481,362,cs),
(488,373,o),
(490,377,o),
(498,377,cs),
(501,377,o),
(502,377,o),
(503,376,c),
(582,489,l),
(554,512,o),
(523,526,o),
(488,526,cs),
(445,526,o),
(410,505,o),
(385,475,cs),
(372,460,o),
(362,443,o),
(353,425,cs),
(350,420,o),
(348,414,o),
(345,409,cs),
(332,384,o),
(322,369,o),
(313,364,cs),
(306,359,o),
(299,354,o),
(294,349,c),
(277,336,o),
(270,331,o),
(250,331,cs),
(214,331,l),
(234,499,l),
(68,499,l),
(7,0,l),
(173,0,l),
(196,187,l),
(235,187,ls),
(288,187,o),
(318,169,o),
(331,137,cs),
(348,96,o),
(361,66,o),
(371,47,cs),
(380,28,o),
(393,11,o),
(410,-3,cs),
(427,-16,o),
(449,-27,o),
(478,-34,c)
);
}
);
width = 530;
},
{
anchors = (
{
name = m.uni0324_3;
position = "{564, 0}";
},
{
name = t.uni0308_1_3;
position = "{625, 500}";
}
);
layerId = "E454AF73-A037-40C8-8E6D-4D661AF510B7";
shapes = (
{
closed = 1;
nodes = (
(478,46,l),
(446,53,o),
(427,80,o),
(408,123,c),
(398,148,ls),
(387,177,o),
(375,200,o),
(363,215,cs),
(350,230,o),
(331,245,o),
(306,259,c),
(342,279,o),
(367,305,o),
(384,333,cs),
(391,346,o),
(393,349,o),
(400,364,cs),
(403,371,o),
(406,379,o),
(411,388,cs),
(414,393,o),
(418,401,o),
(422,410,cs),
(435,437,o),
(443,446,o),
(468,446,cs),
(482,446,o),
(492,442,o),
(499,435,c),
(534,503,l),
(518,512,o),
(488,519,o),
(461,519,cs),
(416,519,o),
(387,498,o),
(369,471,cs),
(360,457,o),
(350,439,o),
(339,416,cs),
(336,411,o),
(335,407,o),
(334,404,cs),
(326,384,o),
(316,365,o),
(304,350,cs),
(299,344,o),
(293,338,o),
(287,331,c),
(264,310,o),
(239,294,o),
(204,294,cs),
(146,294,l),
(171,500,l),
(88,500,l),
(27,-4,l),
(110,-4,l),
(137,218,l),
(193,218,ls),
(266,218,o),
(304,193,o),
(333,113,cs),
(342,88,o),
(351,68,o),
(360,51,cs),
(368,34,o),
(380,19,o),
(395,5,cs),
(410,-9,o),
(428,-19,o),
(451,-26,c)
);
}
);
width = 517;
},
{
anchors = (
{
name = m.uni0324_3;
position = "{564, 0}";
},
{
name = t.uni0308_1_3;
position = "{625, 500}";
}
);
layerId = "E7A4057C-21B9-4802-88F9-F6F08CC0F8D4";
shapes = (
{
closed = 1;
nodes = (
(449,18,l),
(414,29,o),
(388,66,o),
(367,118,c),
(355,151,ls),
(345,180,o),
(330,205,o),
(309,226,cs),
(288,247,o),
(266,258,o),
(245,260,c),
(286,280,o),
(307,296,o),
(323,320,cs),
(334,337,o),
(344,357,o),
(352,376,cs),
(357,389,o),
(361,399,o),
(363,406,cs),
(367,417,o),
(370,424,o),
(373,429,cs),
(388,457,o),
(406,473,o),
(434,473,cs),
(449,473,o),
(466,469,o),
(485,460,c),
(502,496,l),
(482,505,o),
(455,511,o),
(431,511,cs),
(396,511,o),
(370,495,o),
(351,468,cs),
(341,454,o),
(333,438,o),
(326,419,cs),
(324,413,o),
(322,407,o),
(319,400,cs),
(308,369,o),
(299,353,o),
(282,333,cs),
(275,325,o),
(268,318,o),
(260,312,cs),
(236,293,o),
(206,280,o),
(171,276,c),
(98,276,l),
(125,500,l),
(87,500,l),
(26,-4,l),
(64,-4,l),
(93,237,l),
(154,237,ls),
(242,237,o),
(298,214,o),
(319,145,cs),
(327,120,o),
(335,97,o),
(344,77,cs),
(353,56,o),
(365,37,o),
(380,18,cs),
(395,-1,o),
(413,-13,o),
(435,-20,c)
);
}
);
width = 495;
}
);
leftKerningGroup = i;
rightKerningGroup = fi;
unicode = 312;
},
{
glyphname = l;
layers = (
{
anchors = (
{
name = m.uni0324_3;
position = "{109, 0}";
},
{
name = t.uni0308_1_3;
position = "{198, 728}";
},
{
name = t.uni0335_4;
position = "{156, 399}";
},
{
name = t.uni030C.alt_4;
position = "{248, 471}";
}
);
layerId = "CF1FEFF6-0598-468F-902F-1EDAA234C103";
shapes = (
{
closed = 1;
nodes = (
(115,730,l),
(25,0,l),
(190,0,l),
(280,730,l)
);
}
);
width = 277;
},
{
anchors = (
{
name = m.uni0324_3;
position = "{129, -1}";
},
{
name = t.uni0308_1_3;
position = "{218, 728}";
},
{
name = t.uni0335_4;
position = "{175, 414}";
},
{
name = t.uni030C.alt_4;
position = "{286, 471}";
}
);
layerId = "E454AF73-A037-40C8-8E6D-4D661AF510B7";
shapes = (
{
closed = 1;
nodes = (
(127,727,l),
(38,-1,l),
(120,-1,l),
(210,727,l)
);
}
);
width = 219;
},
{
anchors = (
{
name = m.uni0324_3;
position = "{129, -1}";
},
{
name = t.uni0308_1_3;
position = "{218, 728}";
},
{
name = t.uni0335_4;
position = "{175, 414}";
},
{
name = t.uni030C.alt_4;
position = "{286, 471}";
}
);
layerId = "E7A4057C-21B9-4802-88F9-F6F08CC0F8D4";
shapes = (
{
closed = 1;
nodes = (
(131,727,l),
(42,1,l),
(80,1,l),
(169,727,l)
);
}
);
width = 183;
}
);
unicode = 108;
},
{
glyphname = m;
layers = (
{
anchors = (
{
name = m.uni0324_3;
position = "{428, 0}";
},
{
name = t.uni0308_1_3;
position = "{454, 500}";
}
);
layerId = "CF1FEFF6-0598-468F-902F-1EDAA234C103";
shapes = (
{
closed = 1;
nodes = (
(651,0,l),
(816,0,l),
(864,347,ls),
(875,431,o),
(837,483,o),
(786,506,cs),
(761,517,o),
(736,523,o),
(712,523,cs),
(668,523,o),
(631,515,o),
(601,500,cs),
(570,485,o),
(539,460,o),
(508,425,c),
(550,322,l),
(575,357,o),
(612,374,o),
(652,374,cs),
(687,374,o),
(699,356,o),
(692,309,cs)
);
},
{
closed = 1;
nodes = (
(75,330,l),
(34,0,l),
(200,0,l),
(241,332,l),
(240,332,l),
(247,417,o),
(216,487,o),
(165,534,c),
(46,444,l),
(69,419,o),
(78,382,o),
(75,333,c)
);
},
{
closed = 1;
nodes = (
(345,0,l),
(511,0,l),
(554,347,ls),
(565,431,o),
(526,483,o),
(475,506,cs),
(450,517,o),
(425,523,o),
(401,523,cs),
(357,523,o),
(320,515,o),
(290,500,cs),
(259,485,o),
(228,460,o),
(197,425,c),
(239,322,l),
(251,339,o),
(266,352,o),
(283,361,cs),
(300,370,o),
(317,374,o),
(336,374,cs),
(375,374,o),
(388,354,o),
(383,309,cs)
);
}
);
width = 909;
},
{
anchors = (
{
name = m.uni0324_3;
position = "{419, 4}";
},
{
name = t.uni0308_1_3;
position = "{467, 500}";
}
);
layerId = "E454AF73-A037-40C8-8E6D-4D661AF510B7";
shapes = (
{
closed = 1;
nodes = (
(669,0,l),
(750,0,l),
(794,338,ls),
(803,414,o),
(778,468,o),
(727,494,cs),
(702,507,o),
(671,513,o),
(636,513,cs),
(601,513,o),
(568,503,o),
(536,483,cs),
(503,463,o),
(475,435,o),
(450,398,c),
(477,335,l),
(518,404,o),
(570,439,o),
(634,439,cs),
(687,439,o),
(719,401,o),
(711,340,cs)
);
},
{
closed = 1;
nodes = (
(91,357,l),
(47,-1,l),
(130,-1,l),
(174,360,l),
(173,360,l),
(177,432,o),
(153,491,o),
(118,523,c),
(61,477,l),
(85,446,o),
(94,412,o),
(91,360,c)
);
},
{
closed = 1;
nodes = (
(357,0,l),
(439,0,l),
(483,356,ls),
(492,428,o),
(459,475,o),
(408,497,cs),
(383,508,o),
(356,513,o),
(328,513,cs),
(298,513,o),
(268,505,o),
(238,490,cs),
(207,474,o),
(181,450,o),
(158,419,c),
(170,340,l),
(182,369,o),
(202,392,o),
(231,411,cs),
(259,430,o),
(289,439,o),
(322,439,cs),
(379,439,o),
(406,400,o),
(397,328,cs)
);
}
);
width = 855;
},
{
anchors = (
{
name = m.uni0324_3;
position = "{419, 4}";
},
{
name = t.uni0308_1_3;
position = "{467, 500}";
}
);
layerId = "E7A4057C-21B9-4802-88F9-F6F08CC0F8D4";
shapes = (
{
closed = 1;
nodes = (
(707,0,l),
(745,0,l),
(788,341,ls),
(796,406,o),
(775,457,o),
(728,484,cs),
(705,497,o),
(676,504,o),
(643,504,cs),
(604,504,o),
(567,494,o),
(534,473,cs),
(501,452,o),
(472,422,o),
(449,385,c),
(455,349,l),
(503,428,o),
(564,469,o),
(641,469,cs),
(722,469,o),
(761,424,o),
(750,344,cs)
);
},
{
closed = 1;
nodes = (
(97,372,l),
(51,0,l),
(89,0,l),
(135,373,l),
(135,373,l),
(138,433,o),
(114,492,o),
(89,515,c),
(63,493,l),
(87,464,o),
(98,427,o),
(97,376,c)
);
},
{
closed = 1;
nodes = (
(380,0,l),
(418,0,l),
(463,365,ls),
(470,417,o),
(445,462,o),
(399,486,cs),
(376,498,o),
(349,504,o),
(319,504,cs),
(278,504,o),
(241,494,o),
(208,475,cs),
(175,456,o),
(148,429,o),
(127,394,c),
(131,353,l),
(146,386,o),
(171,413,o),
(206,436,cs),
(241,458,o),
(276,469,o),
(313,469,cs),
(394,469,o),
(431,416,o),
(420,328,cs)
);
}
);
width = 860;
}
);
leftKerningGroup = m;
rightKerningGroup = h;
unicode = 109;
},
{
glyphname = n;
layers = (
{
anchors = (
{
name = m.uni0324_3;
position = "{300, 0}";
},
{
name = t.uni0308_1_3;
position = "{364, 506}";
}
);
layerId = "CF1FEFF6-0598-468F-902F-1EDAA234C103";
shapes = (
{
closed = 1;
nodes = (
(75,333,l),
(78,382,o),
(69,419,o),
(46,444,c),
(165,534,l),
(216,487,o),
(247,417,o),
(240,332,c),
(241,332,l),
(200,0,l),
(34,0,l),
(75,330,l)
);
},
{
closed = 1;
nodes = (
(386,301,ls),
(393,344,o),
(377,373,o),
(334,373,cs),
(313,373,o),
(294,367,o),
(277,356,cs),
(260,345,o),
(246,329,o),
(237,309,c),
(176,376,l),
(201,422,o),
(232,458,o),
(270,484,cs),
(308,509,o),
(348,522,o),
(389,522,cs),
(426,522,o),
(459,513,o),
(486,494,cs),
(540,456,o),
(566,390,o),
(555,318,cs),
(509,0,l),
(340,1,l)
);
}
);
width = 603;
},
{
anchors = (
{
name = m.uni0324_3;
position = "{340, 0}";
},
{
name = t.uni0308_1_3;
position = "{399, 514}";
}
);
layerId = "E454AF73-A037-40C8-8E6D-4D661AF510B7";
shapes = (
{
closed = 1;
nodes = (
(91,360,l),
(94,412,o),
(85,446,o),
(61,477,c),
(118,523,l),
(153,491,o),
(177,432,o),
(173,360,c),
(174,360,l),
(130,-1,l),
(47,-1,l),
(91,357,l)
);
},
{
closed = 1;
nodes = (
(432,305,ls),
(443,397,o),
(412,438,o),
(331,438,cs),
(300,438,o),
(269,426,o),
(237,403,cs),
(204,380,o),
(180,352,o),
(163,320,c),
(129,362,l),
(152,405,o),
(184,440,o),
(223,469,cs),
(262,498,o),
(302,512,o),
(343,512,cs),
(382,512,o),
(415,504,o),
(443,488,cs),
(498,456,o),
(525,395,o),
(516,319,cs),
(476,0,l),
(394,0,l)
);
}
);
width = 580;
},
{
anchors = (
{
name = m.uni0324_3;
position = "{340, 0}";
},
{
name = t.uni0308_1_3;
position = "{399, 514}";
}
);
layerId = "E7A4057C-21B9-4802-88F9-F6F08CC0F8D4";
shapes = (
{
closed = 1;
nodes = (
(97,376,l),
(98,427,o),
(87,464,o),
(63,493,c),
(89,515,l),
(114,492,o),
(138,433,o),
(135,373,c),
(135,373,l),
(89,0,l),
(51,0,l),
(97,372,l)
);
},
{
closed = 1;
nodes = (
(441,307,ls),
(454,416,o),
(416,470,o),
(319,470,cs),
(284,470,o),
(250,459,o),
(215,436,cs),
(180,413,o),
(149,379,o),
(122,335,c),
(103,358,l),
(131,403,o),
(165,438,o),
(205,465,cs),
(244,491,o),
(285,504,o),
(326,504,cs),
(365,504,o),
(396,496,o),
(421,481,cs),
(470,450,o),
(489,392,o),
(480,312,cs),
(442,0,l),
(404,0,l)
);
}
);
width = 548;
}
);
rightKerningGroup = h;
unicode = 110;
},
{
glyphname = nj;
layers = (
{
anchors = (
{
name = m.uni0324_3;
position = "{752, -260}";
},
{
name = t.uni0308_1_3;
position = "{801, 732}";
}
);
layerId = "CF1FEFF6-0598-468F-902F-1EDAA234C103";
shapes = (
{
closed = 1;
nodes = (
(858,498,l),
(693,498,l),
(622,-85,ls),
(617,-128,o),
(602,-146,o),
(575,-146,cs),
(558,-146,o),
(550,-135,o),
(551,-122,c),
(410,-126,l),
(407,-186,o),
(435,-237,o),
(486,-266,cs),
(511,-281,o),
(541,-289,o),
(574,-290,cs),
(629,-293,o),
(676,-277,o),
(715,-242,cs),
(754,-207,o),
(778,-155,o),
(787,-84,cs)
);
},
{
closed = 1;
nodes = (
(807,541,o),
(830,550,o),
(850,567,cs),
(869,584,o),
(881,604,o),
(884,627,cs),
(887,656,o),
(880,680,o),
(862,700,cs),
(844,720,o),
(821,730,o),
(792,730,cs),
(768,730,o),
(747,721,o),
(728,704,cs),
(709,687,o),
(697,666,o),
(694,643,cs),
(691,616,o),
(698,592,o),
(715,572,cs),
(732,551,o),
(755,541,o),
(782,541,cs)
);
},
{
closed = 1;
nodes = (
(75,330,l),
(34,0,l),
(200,0,l),
(241,332,l),
(240,332,l),
(247,417,o),
(216,487,o),
(165,534,c),
(46,444,l),
(69,419,o),
(78,382,o),
(75,333,c)
);
},
{
closed = 1;
nodes = (
(340,1,l),
(509,0,l),
(555,318,ls),
(566,390,o),
(540,456,o),
(486,494,cs),
(459,513,o),
(426,522,o),
(389,522,cs),
(348,522,o),
(308,509,o),
(270,484,cs),
(232,458,o),
(201,422,o),
(176,376,c),
(237,309,l),
(246,329,o),
(260,345,o),
(277,356,cs),
(294,367,o),
(313,373,o),
(334,373,cs),
(377,373,o),
(393,344,o),
(386,301,cs)
);
}
);
width = 879;
},
{
anchors = (
{
name = m.uni0324_3;
position = "{720, -260}";
},
{
name = t.uni0308_1_3;
position = "{856, 752}";
}
);
layerId = "E454AF73-A037-40C8-8E6D-4D661AF510B7";
shapes = (
{
closed = 1;
nodes = (
(764,500,l),
(683,500,l),
(607,-114,ls),
(602,-154,o),
(578,-175,o),
(546,-174,cs),
(521,-173,o),
(509,-158,o),
(506,-135,c),
(434,-141,l),
(434,-181,o),
(455,-214,o),
(488,-233,cs),
(504,-242,o),
(522,-247,o),
(542,-248,cs),
(575,-249,o),
(606,-239,o),
(635,-218,cs),
(664,-197,o),
(681,-164,o),
(688,-120,c)
);
},
{
closed = 1;
nodes = (
(749,563,o),
(761,568,o),
(772,578,cs),
(783,587,o),
(790,598,o),
(791,611,cs),
(793,626,o),
(789,639,o),
(779,651,cs),
(769,662,o),
(757,668,o),
(742,668,cs),
(729,668,o),
(717,663,o),
(706,653,cs),
(695,643,o),
(688,632,o),
(687,619,cs),
(686,604,o),
(690,591,o),
(700,580,cs),
(709,569,o),
(721,563,o),
(736,563,cs)
);
},
{
closed = 1;
nodes = (
(91,357,l),
(47,-1,l),
(130,-1,l),
(174,360,l),
(173,360,l),
(177,432,o),
(153,491,o),
(118,523,c),
(61,477,l),
(85,446,o),
(94,412,o),
(91,360,c)
);
},
{
closed = 1;
nodes = (
(394,0,l),
(476,0,l),
(516,319,ls),
(525,395,o),
(498,456,o),
(443,488,cs),
(415,504,o),
(382,512,o),
(343,512,cs),
(302,512,o),
(262,498,o),
(223,469,cs),
(184,440,o),
(152,405,o),
(129,362,c),
(163,320,l),
(180,352,o),
(204,380,o),
(237,403,cs),
(269,426,o),
(300,438,o),
(331,438,cs),
(412,438,o),
(443,397,o),
(432,305,cs)
);
}
);
width = 801;
},
{
anchors = (
{
name = m.uni0324_3;
position = "{720, -260}";
},
{
name = t.uni0308_1_3;
position = "{856, 752}";
}
);
layerId = "E7A4057C-21B9-4802-88F9-F6F08CC0F8D4";
shapes = (
{
closed = 1;
nodes = (
(692,500,l),
(654,500,l),
(578,-123,l),
(573,-174,o),
(541,-200,o),
(498,-200,cs),
(462,-200,o),
(440,-174,o),
(441,-138,c),
(406,-141,l),
(405,-176,o),
(421,-206,o),
(450,-223,cs),
(464,-232,o),
(480,-236,o),
(499,-236,cs),
(528,-236,o),
(554,-226,o),
(577,-206,c),
(599,-185,o),
(612,-158,o),
(616,-125,cs)
);
},
{
closed = 1;
nodes = (
(692,579,o),
(701,582,o),
(708,588,cs),
(715,594,o),
(719,602,o),
(720,612,cs),
(721,623,o),
(718,631,o),
(712,638,cs),
(706,645,o),
(698,648,o),
(687,648,cs),
(678,648,o),
(670,645,o),
(663,639,cs),
(656,633,o),
(652,625,o),
(651,616,cs),
(650,605,o),
(652,596,o),
(658,589,cs),
(663,582,o),
(671,579,o),
(682,579,cs)
);
},
{
closed = 1;
nodes = (
(97,372,l),
(51,0,l),
(89,0,l),
(135,373,l),
(135,373,l),
(138,433,o),
(114,492,o),
(89,515,c),
(63,493,l),
(87,464,o),
(98,427,o),
(97,376,c)
);
},
{
closed = 1;
nodes = (
(404,0,l),
(442,0,l),
(480,312,ls),
(489,392,o),
(470,450,o),
(421,481,cs),
(396,496,o),
(365,504,o),
(326,504,cs),
(285,504,o),
(244,491,o),
(205,465,cs),
(165,438,o),
(131,403,o),
(103,358,c),
(122,335,l),
(149,379,o),
(180,413,o),
(215,436,cs),
(250,459,o),
(284,470,o),
(319,470,cs),
(416,470,o),
(454,416,o),
(441,307,cs)
);
}
);
width = 735;
}
);
rightKerningGroup = h;
unicode = 460;
},
{
glyphname = o;
layers = (
{
anchors = (
{
name = m.uni0324_3;
position = "{255, -12}";
},
{
name = t.uni0308_1_3;
position = "{324, 512}";
},
{
name = t.uni0335_4;
position = "{294, 251}";
},
{
name = t.uni031B_4;
position = "{416, 504}";
},
{
name = m.uni0328_2;
position = "{395, 12}";
},
{
name = t.uni030C.alt_4;
position = "{610, 500}";
}
);
layerId = "CF1FEFF6-0598-468F-902F-1EDAA234C103";
shapes = (
{
closed = 1;
nodes = (
(363,-23,o),
(452,26,o),
(508,111,cs),
(536,154,o),
(553,203,o),
(560,259,cs),
(572,355,o),
(531,441,o),
(456,489,cs),
(418,513,o),
(375,525,o),
(327,525,cs),
(222,525,o),
(132,476,o),
(77,391,cs),
(49,348,o),
(32,299,o),
(25,243,cs),
(13,147,o),
(52,61,o),
(128,13,cs),
(166,-11,o),
(210,-23,o),
(260,-23,cs)
);
},
{
closed = 1;
nodes = (
(238,122,o),
(210,144,o),
(199,181,cs),
(194,200,o),
(192,220,o),
(195,243,cs),
(202,294,o),
(224,338,o),
(256,362,cs),
(272,374,o),
(289,380,o),
(307,380,cs),
(347,380,o),
(374,358,o),
(386,322,c),
(391,303,o),
(393,282,o),
(390,259,c),
(385,208,o),
(361,164,o),
(329,140,cs),
(312,128,o),
(295,122,o),
(277,122,cs)
);
}
);
width = 585;
},
{
anchors = (
{
name = m.uni0324_3;
position = "{263, -6}";
},
{
name = t.uni0308_1_3;
position = "{331, 511}";
},
{
name = t.uni0335_4;
position = "{303, 254}";
},
{
name = t.uni031B_4;
position = "{422, 519}";
},
{
name = m.uni0328_2;
position = "{394, 4}";
},
{
name = t.uni030C.alt_4;
position = "{634, 500}";
}
);
layerId = "E454AF73-A037-40C8-8E6D-4D661AF510B7";
shapes = (
{
closed = 1;
nodes = (
(349,-20,o),
(433,28,o),
(485,111,cs),
(511,152,o),
(527,200,o),
(534,253,cs),
(546,352,o),
(512,436,o),
(442,483,cs),
(407,506,o),
(366,518,o),
(319,518,cs),
(222,518,o),
(137,470,o),
(85,387,cs),
(59,346,o),
(43,298,o),
(36,245,cs),
(24,146,o),
(59,62,o),
(129,15,cs),
(164,-8,o),
(204,-20,o),
(250,-20,cs)
);
},
{
closed = 1;
nodes = (
(197,54,o),
(150,89,o),
(130,146,cs),
(120,175,o),
(117,208,o),
(122,245,cs),
(131,321,o),
(168,385,o),
(221,419,cs),
(248,436,o),
(277,444,o),
(308,444,cs),
(373,444,o),
(420,409,o),
(440,352,cs),
(450,323,o),
(453,290,o),
(448,253,cs),
(439,176,o),
(402,114,o),
(349,80,cs),
(322,63,o),
(293,54,o),
(262,54,cs)
);
}
);
width = 571;
},
{
anchors = (
{
name = m.uni0324_3;
position = "{263, -6}";
},
{
name = t.uni0308_1_3;
position = "{331, 511}";
},
{
name = t.uni0335_4;
position = "{303, 254}";
},
{
name = t.uni031B_4;
position = "{422, 519}";
},
{
name = m.uni0328_2;
position = "{394, 4}";
},
{
name = t.uni030C.alt_4;
position = "{634, 500}";
}
);
layerId = "E7A4057C-21B9-4802-88F9-F6F08CC0F8D4";
shapes = (
{
closed = 1;
nodes = (
(337,-18,o),
(417,28,o),
(466,108,cs),
(490,148,o),
(505,194,o),
(511,247,cs),
(523,348,o),
(491,430,o),
(426,475,cs),
(393,497,o),
(354,508,o),
(309,508,cs),
(217,508,o),
(137,462,o),
(89,382,cs),
(64,342,o),
(49,296,o),
(43,243,cs),
(31,142,o),
(63,60,o),
(128,16,cs),
(161,-7,o),
(200,-18,o),
(245,-18,cs)
);
},
{
closed = 1;
nodes = (
(172,17,o),
(116,56,o),
(93,125,cs),
(81,159,o),
(78,198,o),
(83,243,cs),
(94,334,o),
(137,407,o),
(200,445,cs),
(231,464,o),
(266,473,o),
(304,473,cs),
(381,473,o),
(437,434,o),
(461,366,cs),
(473,331,o),
(476,292,o),
(471,247,cs),
(460,156,o),
(417,84,o),
(354,46,cs),
(322,27,o),
(287,17,o),
(248,17,cs)
);
}
);
width = 555;
}
);
leftKerningGroup = a2;
rightKerningGroup = b;
unicode = 111;
},
{
glyphname = oe;
layers = (
{
anchors = (
{
name = m.uni0324_3;
position = "{431, 0}";
},
{
name = t.uni0308_1_3;
position = "{489, 500}";
}
);
layerId = "CF1FEFF6-0598-468F-902F-1EDAA234C103";
shapes = (
{
closed = 1;
nodes = (
(326,-23,o),
(390,0,o),
(443,44,c),
(480,7,o),
(535,-19,o),
(604,-19,cs),
(695,-19,o),
(769,12,o),
(826,79,c),
(761,188,l),
(718,152,o),
(662,127,o),
(621,127,cs),
(578,127,o),
(550,150,o),
(555,179,c),
(578,176,o),
(603,174,o),
(630,174,cs),
(691,174,o),
(743,188,o),
(785,217,cs),
(827,245,o),
(851,285,o),
(857,337,cs),
(865,401,o),
(834,461,o),
(774,495,cs),
(743,512,o),
(708,520,o),
(668,520,cs),
(593,520,o),
(532,495,o),
(481,443,c),
(442,490,o),
(384,517,o),
(317,517,cs),
(212,517,o),
(125,467,o),
(74,384,cs),
(48,342,o),
(32,295,o),
(25,243,cs),
(13,151,o),
(49,63,o),
(121,14,cs),
(156,-11,o),
(198,-23,o),
(246,-23,cs)
);
},
{
closed = 1;
nodes = (
(231,122,o),
(207,147,o),
(197,184,cs),
(192,203,o),
(191,222,o),
(194,242,cs),
(199,281,o),
(212,312,o),
(231,337,cs),
(250,361,o),
(274,373,o),
(301,373,cs),
(329,373,o),
(350,361,o),
(365,338,cs),
(380,315,o),
(385,286,o),
(381,251,cs),
(376,202,o),
(352,162,o),
(320,139,c),
(303,128,o),
(285,122,o),
(266,122,cs)
);
},
{
closed = 1;
nodes = (
(600,294,o),
(576,293,o),
(551,293,c),
(560,325,o),
(582,353,o),
(609,369,cs),
(622,376,o),
(635,380,o),
(648,380,cs),
(683,380,o),
(701,366,o),
(700,343,c),
(697,318,o),
(671,302,o),
(622,297,c)
);
}
);
width = 871;
},
{
anchors = (
{
name = m.uni0324_3;
position = "{429, -6}";
},
{
name = t.uni0308_1_3;
position = "{483, 462}";
}
);
layerId = "E454AF73-A037-40C8-8E6D-4D661AF510B7";
shapes = (
{
closed = 1;
nodes = (
(335,-10,o),
(411,25,o),
(463,97,c),
(490,30,o),
(554,-10,o),
(650,-10,cs),
(718,-10,o),
(788,12,o),
(847,59,c),
(813,119,l),
(760,80,o),
(714,64,o),
(658,64,cs),
(569,64,o),
(526,107,o),
(525,198,c),
(548,196,o),
(584,195,o),
(631,195,cs),
(694,195,o),
(750,208,o),
(797,233,cs),
(844,258,o),
(871,297,o),
(878,351,cs),
(886,418,o),
(853,470,o),
(797,497,cs),
(769,510,o),
(738,517,o),
(703,517,cs),
(618,517,o),
(548,474,o),
(500,402,c),
(468,473,o),
(399,515,o),
(311,515,cs),
(216,515,o),
(135,467,o),
(85,388,cs),
(60,349,o),
(44,304,o),
(38,255,cs),
(26,155,o),
(61,71,o),
(130,25,cs),
(165,2,o),
(205,-10,o),
(252,-10,cs)
);
},
{
closed = 1;
nodes = (
(195,64,o),
(151,99,o),
(131,156,cs),
(121,185,o),
(118,216,o),
(122,251,cs),
(128,307,o),
(148,353,o),
(182,388,cs),
(216,423,o),
(258,441,o),
(308,441,cs),
(358,441,o),
(395,425,o),
(420,392,cs),
(444,359,o),
(453,314,o),
(446,259,cs),
(437,186,o),
(402,124,o),
(347,90,cs),
(320,73,o),
(289,64,o),
(254,64,cs)
);
},
{
closed = 1;
nodes = (
(585,269,o),
(549,270,o),
(526,272,c),
(537,328,o),
(570,384,o),
(621,418,cs),
(646,435,o),
(674,443,o),
(704,443,cs),
(760,443,o),
(801,415,o),
(794,360,cs),
(786,297,o),
(729,269,o),
(632,269,cs)
);
}
);
width = 903;
},
{
anchors = (
{
name = m.uni0324_3;
position = "{429, -6}";
},
{
name = t.uni0308_1_3;
position = "{483, 462}";
}
);
layerId = "E7A4057C-21B9-4802-88F9-F6F08CC0F8D4";
shapes = (
{
closed = 1;
nodes = (
(339,-9,o),
(418,39,o),
(467,143,c),
(480,47,o),
(543,-9,o),
(658,-9,cs),
(726,-9,o),
(788,9,o),
(848,44,c),
(832,71,l),
(777,39,o),
(723,26,o),
(656,26,cs),
(547,26,o),
(494,89,o),
(499,213,c),
(529,211,o),
(575,210,o),
(636,210,cs),
(701,210,o),
(755,221,o),
(800,244,cs),
(844,266,o),
(869,302,o),
(875,353,cs),
(882,408,o),
(852,456,o),
(800,484,c),
(774,497,o),
(745,504,o),
(712,504,cs),
(611,504,o),
(534,443,o),
(494,343,c),
(474,447,o),
(403,504,o),
(300,504,cs),
(209,504,o),
(134,458,o),
(88,379,cs),
(65,340,o),
(50,295,o),
(43,245,cs),
(31,152,o),
(62,70,o),
(124,25,cs),
(155,2,o),
(192,-9,o),
(235,-9,cs)
);
},
{
closed = 1;
nodes = (
(167,26,o),
(115,66,o),
(93,133,cs),
(82,166,o),
(78,203,o),
(83,244,cs),
(91,310,o),
(115,364,o),
(154,406,cs),
(193,448,o),
(241,469,o),
(298,469,cs),
(355,469,o),
(399,450,o),
(430,411,cs),
(460,372,o),
(471,318,o),
(462,249,cs),
(451,165,o),
(411,95,o),
(347,56,cs),
(314,36,o),
(278,26,o),
(239,26,cs)
);
},
{
closed = 1;
nodes = (
(575,241,o),
(529,242,o),
(500,244,c),
(507,331,o),
(549,401,o),
(612,440,cs),
(643,459,o),
(677,469,o),
(714,469,cs),
(793,469,o),
(843,421,o),
(835,353,cs),
(827,277,o),
(748,241,o),
(636,241,cs)
);
}
);
width = 911;
}
);
leftKerningGroup = a2;
rightKerningGroup = c;
unicode = 339;
},
{
glyphname = p;
layers = (
{
anchors = (
{
name = m.uni0324_3;
position = "{323, -12}";
},
{
name = t.uni0308_1_3;
position = "{336, 512}";
}
);
layerId = "CF1FEFF6-0598-468F-902F-1EDAA234C103";
shapes = (
{
closed = 1;
nodes = (
(78,345,l),
(81,394,o),
(70,431,o),
(47,456,c),
(165,547,l),
(216,502,o),
(249,434,o),
(244,349,c),
(245,349,l),
(170,-260,l),
(4,-260,l),
(78,342,l)
);
},
{
closed = 1;
nodes = (
(182,-19,o),
(128,5,o),
(77,45,c),
(164,156,l),
(178,147,o),
(194,140,o),
(213,134,c),
(231,127,o),
(249,124,o),
(266,124,cs),
(289,124,o),
(310,129,o),
(329,140,cs),
(366,161,o),
(390,202,o),
(397,257,cs),
(400,283,o),
(400,305,o),
(395,324,cs),
(386,361,o),
(363,381,o),
(334,381,cs),
(313,381,o),
(294,373,o),
(275,357,cs),
(256,341,o),
(243,319,o),
(237,291,c),
(149,324,l),
(156,365,o),
(170,401,o),
(191,432,cs),
(234,493,o),
(298,527,o),
(367,527,cs),
(411,527,o),
(449,515,o),
(481,491,cs),
(545,442,o),
(577,353,o),
(565,250,cs),
(559,195,o),
(542,146,o),
(514,105,cs),
(458,22,o),
(366,-23,o),
(257,-20,cs)
);
}
);
width = 591;
},
{
anchors = (
{
name = m.uni0324_3;
position = "{350, -17}";
},
{
name = t.uni0308_1_3;
position = "{384, 519}";
}
);
layerId = "E454AF73-A037-40C8-8E6D-4D661AF510B7";
shapes = (
{
closed = 1;
nodes = (
(88,355,l),
(92,406,o),
(84,441,o),
(60,472,c),
(117,517,l),
(152,485,o),
(175,425,o),
(170,353,c),
(171,353,l),
(95,-260,l),
(13,-260,l),
(88,352,l)
);
},
{
closed = 1;
nodes = (
(166,-14,o),
(108,4,o),
(76,19,c),
(120,83,l),
(130,77,o),
(147,72,o),
(170,67,cs),
(193,62,o),
(215,60,o),
(235,59,cs),
(273,58,o),
(307,65,o),
(336,80,cs),
(395,109,o),
(432,171,o),
(443,256,cs),
(447,291,o),
(445,322,o),
(436,349,cs),
(419,404,o),
(378,438,o),
(322,439,cs),
(284,440,o),
(250,429,o),
(220,404,cs),
(189,379,o),
(171,347,o),
(166,310,c),
(113,328,l),
(119,363,o),
(132,394,o),
(153,423,cs),
(194,480,o),
(259,514,o),
(330,513,cs),
(373,512,o),
(410,499,o),
(442,476,cs),
(506,429,o),
(538,346,o),
(527,253,cs),
(520,196,o),
(503,148,o),
(476,107,cs),
(421,25,o),
(332,-18,o),
(225,-15,cs)
);
}
);
width = 564;
},
{
anchors = (
{
name = m.uni0324_3;
position = "{350, -17}";
},
{
name = t.uni0308_1_3;
position = "{384, 519}";
}
);
layerId = "E7A4057C-21B9-4802-88F9-F6F08CC0F8D4";
shapes = (
{
closed = 1;
nodes = (
(96,368,l),
(97,419,o),
(86,456,o),
(62,485,c),
(88,507,l),
(113,484,o),
(137,425,o),
(134,365,c),
(134,365,l),
(57,-260,l),
(19,-260,l),
(96,364,l)
);
},
{
closed = 1;
nodes = (
(165,-8,o),
(106,6,o),
(71,23,c),
(95,49,l),
(110,42,o),
(129,37,o),
(152,33,cs),
(175,29,o),
(196,27,o),
(213,26,cs),
(262,25,o),
(305,35,o),
(342,56,cs),
(414,98,o),
(454,173,o),
(465,260,cs),
(470,299,o),
(467,335,o),
(456,368,cs),
(435,432,o),
(387,473,o),
(320,474,cs),
(275,475,o),
(234,463,o),
(198,436,cs),
(162,409,o),
(139,373,o),
(130,330,c),
(102,336,l),
(111,371,o),
(126,402,o),
(147,429,cs),
(190,482,o),
(252,512,o),
(323,509,cs),
(364,508,o),
(399,496,o),
(428,473,cs),
(487,428,o),
(515,348,o),
(504,253,cs),
(498,200,o),
(482,154,o),
(456,114,cs),
(403,34,o),
(315,-12,o),
(210,-9,cs)
);
}
);
width = 548;
}
);
leftKerningGroup = m;
rightKerningGroup = b;
unicode = 112;
},
{
glyphname = thorn;
layers = (
{
anchors = (
{
name = m.uni0324_3;
position = "{292, 0}";
},
{
name = t.uni0308_1_3;
position = "{292, 500}";
}
);
layerId = "CF1FEFF6-0598-468F-902F-1EDAA234C103";
shapes = (
{
closed = 1;
nodes = (
(110,731,l),
(-9,-260,l),
(153,-260,l),
(227,390,l),
(238,480,l),
(257,559,l),
(277,731,l)
);
},
{
closed = 1;
nodes = (
(344,-23,o),
(436,22,o),
(492,105,cs),
(520,146,o),
(537,195,o),
(543,250,cs),
(555,353,o),
(523,442,o),
(459,491,cs),
(427,515,o),
(389,527,o),
(345,527,cs),
(276,527,o),
(212,493,o),
(169,432,cs),
(148,401,o),
(134,365,o),
(127,324,c),
(215,291,l),
(221,319,o),
(234,341,o),
(253,357,cs),
(272,373,o),
(291,381,o),
(312,381,cs),
(341,381,o),
(364,361,o),
(373,324,cs),
(378,305,o),
(378,283,o),
(375,257,cs),
(368,202,o),
(344,161,o),
(307,140,cs),
(288,129,o),
(267,124,o),
(244,124,cs),
(227,124,o),
(209,127,o),
(191,134,c),
(172,140,o),
(156,147,o),
(142,156,c),
(55,45,l),
(106,5,o),
(160,-19,o),
(235,-20,cs)
);
}
);
width = 569;
},
{
anchors = (
{
name = m.uni0324_3;
position = "{359, 0}";
},
{
name = t.uni0308_1_3;
position = "{336, 500}";
}
);
layerId = "E454AF73-A037-40C8-8E6D-4D661AF510B7";
shapes = (
{
closed = 1;
nodes = (
(127,727,l),
(6,-260,l),
(89,-260,l),
(163,346,l),
(172,450,l),
(182,502,l),
(210,727,l)
);
},
{
closed = 1;
nodes = (
(325,-14,o),
(414,29,o),
(469,111,cs),
(496,152,o),
(513,200,o),
(520,257,cs),
(531,350,o),
(499,433,o),
(435,480,cs),
(403,503,o),
(366,516,o),
(323,517,cs),
(252,518,o),
(187,484,o),
(146,427,cs),
(125,398,o),
(112,367,o),
(106,332,c),
(159,314,l),
(164,351,o),
(182,383,o),
(213,408,cs),
(243,433,o),
(277,444,o),
(315,443,cs),
(371,442,o),
(412,408,o),
(429,353,cs),
(438,326,o),
(440,295,o),
(436,260,cs),
(425,175,o),
(388,113,o),
(329,84,cs),
(300,69,o),
(266,62,o),
(228,63,cs),
(208,64,o),
(186,66,o),
(163,71,cs),
(140,76,o),
(123,81,o),
(113,87,c),
(69,23,l),
(101,8,o),
(159,-10,o),
(218,-11,cs)
);
}
);
width = 556;
},
{
anchors = (
{
name = m.uni0324_3;
position = "{359, 0}";
},
{
name = t.uni0308_1_3;
position = "{336, 500}";
}
);
layerId = "E7A4057C-21B9-4802-88F9-F6F08CC0F8D4";
shapes = (
{
closed = 1;
nodes = (
(132,727,l),
(10,-260,l),
(48,-260,l),
(123,346,l),
(122,387,l),
(140,483,l),
(170,727,l)
);
},
{
closed = 1;
nodes = (
(307,-12,o),
(395,34,o),
(448,114,cs),
(474,154,o),
(490,200,o),
(496,253,cs),
(507,348,o),
(479,428,o),
(420,473,cs),
(391,496,o),
(356,508,o),
(315,509,cs),
(244,512,o),
(182,482,o),
(139,429,cs),
(118,402,o),
(103,371,o),
(94,336,c),
(122,330,l),
(131,373,o),
(154,409,o),
(190,436,cs),
(226,463,o),
(267,475,o),
(312,474,cs),
(379,473,o),
(427,432,o),
(448,368,cs),
(459,335,o),
(462,299,o),
(457,260,cs),
(446,173,o),
(406,98,o),
(334,56,cs),
(297,35,o),
(254,25,o),
(205,26,cs),
(188,27,o),
(167,29,o),
(144,33,cs),
(121,37,o),
(102,42,o),
(87,49,c),
(63,23,l),
(98,6,o),
(157,-8,o),
(202,-9,cs)
);
}
);
width = 540;
}
);
rightKerningGroup = b;
unicode = 254;
},
{
glyphname = q;
layers = (
{
anchors = (
{
name = m.uni0324_3;
position = "{233, -10}";
},
{
name = t.uni0308_1_3;
position = "{253, 510}";
}
);
layerId = "CF1FEFF6-0598-468F-902F-1EDAA234C103";
shapes = (
{
closed = 1;
nodes = (
(376,394,l),
(295,-268,l),
(461,-268,l),
(552,469,l),
(529,480,l),
(476,501,o),
(434,513,o),
(404,517,c)
);
},
{
closed = 1;
nodes = (
(226,530,o),
(134,485,o),
(78,402,cs),
(50,361,o),
(33,312,o),
(27,257,cs),
(15,154,o),
(47,65,o),
(111,17,cs),
(143,-8,o),
(181,-20,o),
(225,-20,cs),
(294,-20,o),
(358,14,o),
(401,75,cs),
(422,106,o),
(436,142,o),
(443,183,c),
(355,216,l),
(349,188,o),
(337,166,o),
(318,150,cs),
(299,134,o),
(279,126,o),
(258,126,cs),
(229,126,o),
(206,146,o),
(197,183,cs),
(192,202,o),
(192,224,o),
(195,250,cs),
(202,305,o),
(226,346,o),
(263,367,cs),
(282,378,o),
(303,383,o),
(326,383,cs),
(344,383,o),
(362,380,o),
(380,374,cs),
(398,367,o),
(414,360,o),
(428,351,c),
(515,462,l),
(464,502,o),
(410,526,o),
(335,527,cs)
);
}
);
width = 576;
},
{
anchors = (
{
name = m.uni0324_3;
position = "{156, -16}";
},
{
name = t.uni0308_1_3;
position = "{207, 516}";
}
);
layerId = "E454AF73-A037-40C8-8E6D-4D661AF510B7";
shapes = (
{
closed = 1;
nodes = (
(429,444,l),
(343,-260,l),
(426,-260,l),
(515,476,l),
(501,481,ls),
(470,492,o),
(449,499,o),
(437,501,c)
);
},
{
closed = 1;
nodes = (
(232,521,o),
(143,479,o),
(88,397,cs),
(61,356,o),
(44,307,o),
(37,250,cs),
(26,157,o),
(58,74,o),
(122,27,cs),
(154,4,o),
(191,-9,o),
(234,-10,cs),
(305,-11,o),
(370,23,o),
(411,80,cs),
(432,109,o),
(445,140,o),
(451,175,c),
(398,193,l),
(393,156,o),
(375,125,o),
(345,100,cs),
(314,75,o),
(280,63,o),
(242,64,cs),
(186,65,o),
(145,99,o),
(128,154,cs),
(119,181,o),
(117,212,o),
(121,247,cs),
(132,332,o),
(169,394,o),
(228,423,cs),
(257,438,o),
(291,445,o),
(329,444,cs),
(349,443,o),
(371,441,o),
(394,436,cs),
(417,431,o),
(434,426,o),
(444,420,c),
(488,484,l),
(456,499,o),
(398,517,o),
(339,518,cs)
);
}
);
width = 557;
},
{
anchors = (
{
name = m.uni0324_3;
position = "{156, -16}";
},
{
name = t.uni0308_1_3;
position = "{207, 516}";
}
);
layerId = "E7A4057C-21B9-4802-88F9-F6F08CC0F8D4";
shapes = (
{
closed = 1;
nodes = (
(453,468,l),
(363,-260,l),
(401,-260,l),
(491,465,l),
(483,469,l),
(471,476,o),
(461,480,o),
(453,482,c)
);
},
{
closed = 1;
nodes = (
(232,508,o),
(144,462,o),
(92,382,cs),
(65,342,o),
(49,296,o),
(43,243,cs),
(32,148,o),
(60,68,o),
(119,23,cs),
(148,0,o),
(183,-12,o),
(224,-13,cs),
(295,-16,o),
(357,14,o),
(400,67,cs),
(421,94,o),
(436,125,o),
(445,160,c),
(417,166,l),
(408,123,o),
(385,88,o),
(349,61,cs),
(313,34,o),
(272,21,o),
(227,22,cs),
(160,23,o),
(112,64,o),
(91,129,cs),
(80,161,o),
(77,197,o),
(82,236,cs),
(93,323,o),
(133,399,o),
(206,441,cs),
(242,462,o),
(285,471,o),
(334,470,cs),
(351,469,o),
(372,467,o),
(395,463,cs),
(418,459,o),
(437,454,o),
(452,447,c),
(476,473,l),
(441,490,o),
(382,504,o),
(337,505,cs)
);
}
);
width = 538;
}
);
leftKerningGroup = a2;
rightKerningGroup = g;
unicode = 113;
},
{
glyphname = r;
layers = (
{
anchors = (
{
name = m.uni0324_3;
position = "{118, 0}";
},
{
name = t.uni0308_1_3;
position = "{303, 515}";
}
);
layerId = "CF1FEFF6-0598-468F-902F-1EDAA234C103";
shapes = (
{
closed = 1;
nodes = (
(76,345,l),
(79,394,o),
(70,431,o),
(47,456,c),
(166,546,l),
(217,501,o),
(248,429,o),
(241,344,c),
(242,344,l),
(200,0,l),
(34,0,l),
(76,342,l)
);
},
{
closed = 1;
nodes = (
(180,405,l),
(197,431,o),
(216,453,o),
(235,472,cs),
(254,491,o),
(274,504,o),
(295,511,cs),
(347,530,o),
(404,529,o),
(435,516,c),
(396,366,l),
(374,374,o),
(356,378,o),
(343,378,cs),
(324,378,o),
(308,375,o),
(293,368,cs),
(264,355,o),
(245,332,o),
(238,312,c)
);
}
);
width = 408;
},
{
anchors = (
{
name = m.uni0324_3;
position = "{138, 1}";
},
{
name = t.uni0308_1_3;
position = "{342, 517}";
}
);
layerId = "E454AF73-A037-40C8-8E6D-4D661AF510B7";
shapes = (
{
closed = 1;
nodes = (
(101,358,l),
(98,410,o),
(88,444,o),
(60,472,c),
(112,523,l),
(149,495,o),
(180,434,o),
(183,361,c),
(184,361,l),
(140,0,l),
(57,0,l),
(101,355,l)
);
},
{
closed = 1;
nodes = (
(146,370,l),
(167,408,o),
(193,440,o),
(226,466,cs),
(258,491,o),
(289,507,o),
(320,512,cs),
(337,515,o),
(366,515,o),
(391,510,c),
(374,433,l),
(361,437,o),
(346,438,o),
(327,436,cs),
(309,435,o),
(291,429,o),
(272,418,cs),
(234,397,o),
(199,363,o),
(180,324,c)
);
}
);
width = 366;
},
{
anchors = (
{
name = m.uni0324_3;
position = "{138, 1}";
},
{
name = t.uni0308_1_3;
position = "{342, 517}";
}
);
layerId = "E7A4057C-21B9-4802-88F9-F6F08CC0F8D4";
shapes = (
{
closed = 1;
nodes = (
(106,373,l),
(103,424,o),
(87,460,o),
(62,487,c),
(86,511,l),
(114,490,o),
(143,431,o),
(144,370,c),
(144,370,l),
(99,0,l),
(61,0,l),
(106,369,l)
);
},
{
closed = 1;
nodes = (
(122,359,l),
(143,399,o),
(172,433,o),
(211,462,cs),
(249,490,o),
(291,504,o),
(338,504,cs),
(349,504,o),
(357,503,o),
(362,502,c),
(355,464,l),
(347,465,o),
(337,466,o),
(325,466,cs),
(302,466,o),
(279,460,o),
(254,448,cs),
(204,423,o),
(159,379,o),
(139,334,c)
);
}
);
width = 343;
}
);
leftKerningGroup = m;
rightKerningGroup = r;
unicode = 114;
},
{
glyphname = s;
layers = (
{
anchors = (
{
name = m.uni0324_3;
position = "{208, -16}";
},
{
name = t.uni0308_1_3;
position = "{272, 515}";
}
);
layerId = "CF1FEFF6-0598-468F-902F-1EDAA234C103";
shapes = (
{
closed = 1;
nodes = (
(116,-27,o),
(42,14,o),
(-7,77,c),
(99,179,l),
(138,138,o),
(177,120,o),
(218,120,cs),
(237,120,o),
(251,123,o),
(261,128,cs),
(271,133,o),
(277,140,o),
(278,149,cs),
(279,158,o),
(275,166,o),
(266,173,cs),
(249,188,o),
(223,198,o),
(183,210,cs),
(161,217,o),
(140,227,o),
(119,242,cs),
(78,271,o),
(47,319,o),
(55,376,cs),
(62,426,o),
(84,465,o),
(123,493,cs),
(161,520,o),
(209,534,o),
(267,534,cs),
(346,534,o),
(420,508,o),
(463,468,c),
(378,355,l),
(338,384,o),
(301,395,o),
(268,395,cs),
(245,395,o),
(228,385,o),
(227,366,cs),
(226,351,o),
(241,344,o),
(288,324,cs),
(301,319,o),
(311,314,o),
(318,311,cs),
(349,298,o),
(374,284,o),
(393,271,cs),
(432,243,o),
(455,201,o),
(447,134,cs),
(443,99,o),
(430,70,o),
(408,45,cs),
(363,-6,o),
(292,-33,o),
(212,-30,cs)
);
}
);
width = 482;
},
{
anchors = (
{
name = m.uni0324_3;
position = "{219, -20}";
},
{
name = t.uni0308_1_3;
position = "{283, 523}";
}
);
layerId = "E454AF73-A037-40C8-8E6D-4D661AF510B7";
shapes = (
{
closed = 1;
nodes = (
(113,-18,o),
(50,10,o),
(1,69,c),
(52,121,l),
(99,74,o),
(138,57,o),
(191,57,cs),
(224,57,o),
(252,64,o),
(273,77,cs),
(294,90,o),
(306,111,o),
(309,138,c),
(310,156,o),
(307,171,o),
(300,182,cs),
(284,204,o),
(264,212,o),
(205,236,cs),
(171,250,o),
(144,263,o),
(124,276,cs),
(83,301,o),
(60,338,o),
(69,390,cs),
(76,430,o),
(96,462,o),
(131,485,cs),
(166,508,o),
(205,519,o),
(250,519,cs),
(306,519,o),
(366,498,o),
(395,470,c),
(352,409,l),
(328,428,o),
(284,445,o),
(245,445,cs),
(198,445,o),
(156,424,o),
(152,381,cs),
(149,350,o),
(166,334,o),
(206,317,cs),
(217,312,o),
(227,308,o),
(238,303,cs),
(274,288,o),
(303,274,o),
(325,261,cs),
(369,236,o),
(402,190,o),
(390,125,cs),
(384,94,o),
(371,68,o),
(352,47,cs),
(312,4,o),
(251,-18,o),
(186,-18,cs)
);
}
);
width = 434;
},
{
anchors = (
{
name = m.uni0324_3;
position = "{219, -20}";
},
{
name = t.uni0308_1_3;
position = "{283, 523}";
}
);
layerId = "E7A4057C-21B9-4802-88F9-F6F08CC0F8D4";
shapes = (
{
closed = 1;
nodes = (
(110,-12,o),
(53,13,o),
(5,69,c),
(31,94,l),
(71,47,o),
(125,22,o),
(181,22,cs),
(220,22,o),
(254,32,o),
(283,52,cs),
(312,71,o),
(328,96,o),
(331,127,c),
(334,149,o),
(330,168,o),
(320,184,cs),
(300,215,o),
(265,234,o),
(202,258,cs),
(171,270,o),
(146,281,o),
(127,292,cs),
(89,313,o),
(66,344,o),
(71,391,c),
(76,428,o),
(94,457,o),
(127,479,cs),
(160,501,o),
(200,512,o),
(249,512,cs),
(296,512,o),
(339,497,o),
(371,473,c),
(350,444,l),
(321,464,o),
(283,476,o),
(248,476,cs),
(172,476,o),
(121,448,o),
(112,393,cs),
(105,352,o),
(125,331,o),
(174,308,cs),
(189,301,o),
(203,295,o),
(217,290,cs),
(256,275,o),
(286,260,o),
(309,247,c),
(353,220,o),
(377,183,o),
(369,126,cs),
(366,101,o),
(356,79,o),
(339,58,cs),
(305,16,o),
(247,-12,o),
(179,-12,cs)
);
}
);
width = 416;
}
);
leftKerningGroup = s;
unicode = 115;
},
{
glyphname = germandbls;
layers = (
{
anchors = (
{
name = m.uni0324_3;
position = "{248, -5}";
},
{
name = t.uni0308_1_3;
position = "{351, 744}";
}
);
layerId = "CF1FEFF6-0598-468F-902F-1EDAA234C103";
shapes = (
{
closed = 1;
nodes = (
(465,-14,o),
(528,20,o),
(565,77,cs),
(584,105,o),
(595,137,o),
(599,174,cs),
(604,215,o),
(598,249,o),
(581,278,cs),
(564,306,o),
(533,335,o),
(488,365,cs),
(478,372,o),
(468,379,o),
(458,386,cs),
(433,405,o),
(425,410,o),
(424,399,cs),
(423,386,o),
(430,383,o),
(445,390,c),
(456,394,o),
(468,402,o),
(483,413,cs),
(536,450,o),
(566,499,o),
(573,551,cs),
(585,636,o),
(552,699,o),
(480,732,cs),
(444,748,o),
(400,756,o),
(347,756,cs),
(258,756,o),
(179,713,o),
(131,640,cs),
(106,603,o),
(91,562,o),
(85,515,cs),
(21,2,l),
(187,2,l),
(250,507,ls),
(258,567,o),
(289,597,o),
(352,597,cs),
(384,597,o),
(410,583,o),
(409,564,c),
(406,543,o),
(394,521,o),
(354,494,cs),
(343,486,o),
(335,479,o),
(330,474,cs),
(307,451,o),
(300,429,o),
(296,401,cs),
(293,382,o),
(300,360,o),
(315,338,cs),
(322,327,o),
(331,316,o),
(342,305,cs),
(353,294,o),
(365,285,o),
(378,276,cs),
(426,244,o),
(436,218,o),
(432,190,cs),
(429,167,o),
(421,150,o),
(406,141,cs),
(399,136,o),
(390,134,o),
(379,133,cs),
(358,132,o),
(318,144,o),
(305,161,c),
(201,52,l),
(249,8,o),
(315,-16,o),
(388,-15,cs)
);
}
);
width = 629;
},
{
anchors = (
{
name = m.uni0324_3;
position = "{276, -6}";
},
{
name = t.uni0308_1_3;
position = "{378, 749}";
}
);
layerId = "E454AF73-A037-40C8-8E6D-4D661AF510B7";
shapes = (
{
closed = 1;
nodes = (
(391,-17,o),
(447,14,o),
(483,67,cs),
(501,94,o),
(512,124,o),
(516,159,cs),
(521,198,o),
(515,232,o),
(498,260,cs),
(481,288,o),
(458,313,o),
(429,335,cs),
(410,350,o),
(391,364,o),
(372,379,c),
(357,388,o),
(350,395,o),
(351,396,c),
(352,400,o),
(362,406,o),
(374,415,cs),
(385,422,o),
(397,431,o),
(413,442,cs),
(457,473,o),
(492,518,o),
(499,571,cs),
(507,634,o),
(474,687,o),
(416,716,cs),
(387,730,o),
(355,737,o),
(320,737,cs),
(247,737,o),
(183,703,o),
(143,644,cs),
(122,614,o),
(110,580,o),
(105,542,cs),
(37,0,l),
(120,0,l),
(187,538,l),
(198,615,o),
(245,663,o),
(318,663,cs),
(385,663,o),
(422,632,o),
(415,579,cs),
(412,556,o),
(393,527,o),
(361,502,c),
(356,499,o),
(351,495,o),
(346,491,cs),
(303,459,o),
(279,437,o),
(275,402,cs),
(271,369,o),
(283,346,o),
(302,331,cs),
(311,324,o),
(324,315,o),
(341,305,c),
(354,296,o),
(369,288,o),
(382,277,cs),
(422,246,o),
(437,211,o),
(432,159,c),
(428,127,o),
(410,93,o),
(381,73,cs),
(366,62,o),
(350,57,o),
(333,57,cs),
(301,57,o),
(255,76,o),
(230,99,c),
(177,43,l),
(217,6,o),
(274,-17,o),
(331,-17,cs)
);
}
);
width = 557;
},
{
anchors = (
{
name = m.uni0324_3;
position = "{276, -6}";
},
{
name = t.uni0308_1_3;
position = "{378, 749}";
}
);
layerId = "E7A4057C-21B9-4802-88F9-F6F08CC0F8D4";
shapes = (
{
closed = 1;
nodes = (
(349,-7,o),
(401,21,o),
(436,70,cs),
(453,94,o),
(464,122,o),
(468,154,cs),
(473,190,o),
(467,222,o),
(452,250,c),
(436,277,o),
(414,302,o),
(387,325,cs),
(364,344,o),
(344,360,o),
(327,372,cs),
(306,388,o),
(302,392,o),
(303,400,cs),
(304,409,o),
(308,414,o),
(328,429,cs),
(339,438,o),
(355,451,o),
(374,468,cs),
(421,509,o),
(445,546,o),
(450,586,cs),
(457,639,o),
(434,687,o),
(385,713,cs),
(360,726,o),
(330,732,o),
(294,732,cs),
(227,732,o),
(172,702,o),
(140,646,cs),
(123,618,o),
(113,585,o),
(110,546,c),
(42,0,l),
(80,0,l),
(148,544,l),
(157,645,o),
(211,697,o),
(294,697,cs),
(370,697,o),
(422,657,o),
(413,588,cs),
(409,560,o),
(387,526,o),
(350,493,cs),
(347,490,o),
(337,482,o),
(322,470,cs),
(289,443,o),
(275,429,o),
(271,404,cs),
(268,384,o),
(280,367,o),
(297,352,cs),
(305,345,o),
(317,335,o),
(332,324,cs),
(344,316,o),
(356,306,o),
(368,297,cs),
(412,261,o),
(436,213,o),
(428,153,cs),
(423,109,o),
(394,68,o),
(358,45,c),
(339,34,o),
(320,28,o),
(301,28,cs),
(253,28,o),
(206,46,o),
(179,77,c),
(153,53,l),
(186,16,o),
(241,-7,o),
(297,-7,cs)
);
}
);
width = 515;
}
);
rightKerningGroup = B;
unicode = 223;
},
{
glyphname = longs;
layers = (
{
anchors = (
{
name = m.uni0324_3;
position = "{115, 0}";
},
{
name = t.uni0308_1_3;
position = "{176, 500}";
}
);
layerId = "CF1FEFF6-0598-468F-902F-1EDAA234C103";
shapes = (
{
closed = 1;
nodes = (
(-4,-200,l),
(162,-200,l),
(245,475,ls),
(252,527,o),
(273,555,o),
(308,555,cs),
(339,555,o),
(355,542,o),
(356,509,c),
(487,601,l),
(476,633,o),
(454,659,o),
(419,680,cs),
(384,701,o),
(344,711,o),
(298,711,cs),
(181,711,o),
(98,627,o),
(81,490,cs)
);
}
);
width = 279;
},
{
anchors = (
{
name = m.uni0324_3;
position = "{136, 0}";
},
{
name = t.uni0308_1_3;
position = "{197, 500}";
}
);
layerId = "E454AF73-A037-40C8-8E6D-4D661AF510B7";
shapes = (
{
closed = 1;
nodes = (
(13,-200,l),
(96,-200,l),
(181,492,ls),
(192,579,o),
(230,627,o),
(287,627,cs),
(322,627,o),
(342,615,o),
(353,590,c),
(414,641,l),
(403,661,o),
(387,677,o),
(366,688,cs),
(344,699,o),
(318,704,o),
(287,704,cs),
(184,704,o),
(116,631,o),
(100,502,cs)
);
}
);
width = 224;
},
{
anchors = (
{
name = m.uni0324_3;
position = "{136, 0}";
},
{
name = t.uni0308_1_3;
position = "{197, 500}";
}
);
layerId = "E7A4057C-21B9-4802-88F9-F6F08CC0F8D4";
shapes = (
{
closed = 1;
nodes = (
(16,-212,l),
(54,-212,l),
(145,527,ls),
(156,616,o),
(204,668,o),
(276,668,cs),
(309,668,o),
(334,658,o),
(350,637,c),
(381,663,l),
(370,676,o),
(355,686,o),
(338,693,cs),
(321,700,o),
(300,703,o),
(275,703,cs),
(184,703,o),
(120,635,o),
(107,526,cs)
);
}
);
width = 187;
}
);
unicode = 383;
},
{
glyphname = t;
layers = (
{
anchors = (
{
name = m.uni0324_3;
position = "{226, -10}";
},
{
name = t.uni0308_1_3;
position = "{211, 640}";
},
{
name = t.uni0335_4;
position = "{181, 263}";
},
{
name = t.uni030C.alt_4;
position = "{393, 480}";
}
);
layerId = "CF1FEFF6-0598-468F-902F-1EDAA234C103";
shapes = (
{
closed = 1;
nodes = (
(295,-22,o),
(350,2,o),
(390,37,c),
(329,157,l),
(310,142,o),
(289,135,o),
(266,135,cs),
(241,135,o),
(232,148,o),
(235,175,cs),
(292,643,l),
(126,642,l),
(68,168,ls),
(61,109,o),
(72,62,o),
(103,29,cs),
(134,-5,o),
(176,-22,o),
(231,-22,cs)
);
},
{
closed = 1;
nodes = (
(45,500,l),
(30,373,l),
(392,373,l),
(407,500,l)
);
}
);
width = 427;
},
{
anchors = (
{
name = m.uni0324_3;
position = "{231, -11}";
},
{
name = t.uni0308_1_3;
position = "{229, 639}";
},
{
name = t.uni0335_4;
position = "{203, 262}";
},
{
name = t.uni030C.alt_4;
position = "{425, 480}";
}
);
layerId = "E454AF73-A037-40C8-8E6D-4D661AF510B7";
shapes = (
{
closed = 1;
nodes = (
(251,-14,o),
(286,0,o),
(313,21,c),
(279,86,l),
(260,71,o),
(238,64,o),
(213,64,cs),
(174,64,o),
(147,82,o),
(155,149,cs),
(216,641,l),
(133,641,l),
(72,149,ls),
(65,96,o),
(74,56,o),
(98,28,cs),
(121,0,o),
(157,-14,o),
(204,-14,cs)
);
},
{
closed = 1;
nodes = (
(47,500,l),
(38,426,l),
(331,426,l),
(340,500,l)
);
}
);
width = 356;
},
{
anchors = (
{
name = m.uni0324_3;
position = "{231, -11}";
},
{
name = t.uni0308_1_3;
position = "{229, 639}";
},
{
name = t.uni0335_4;
position = "{203, 262}";
},
{
name = t.uni030C.alt_4;
position = "{425, 480}";
}
);
layerId = "E7A4057C-21B9-4802-88F9-F6F08CC0F8D4";
shapes = (
{
closed = 1;
nodes = (
(225,-13,o),
(254,-6,o),
(279,11,c),
(264,44,l),
(244,30,o),
(221,23,o),
(196,23,cs),
(135,23,o),
(104,59,o),
(113,132,cs),
(176,641,l),
(138,641,l),
(75,134,ls),
(69,86,o),
(76,50,o),
(97,25,cs),
(118,-1,o),
(149,-13,o),
(192,-13,cs)
);
},
{
closed = 1;
nodes = (
(43,500,l),
(39,466,l),
(304,466,l),
(308,500,l)
);
}
);
width = 324;
}
);
leftKerningGroup = t2;
rightKerningGroup = t;
unicode = 116;
},
{
glyphname = u;
layers = (
{
anchors = (
{
name = m.uni0324_3;
position = "{238, 11}";
},
{
name = t.uni0308_1_3;
position = "{333, 500}";
},
{
name = t.uni0335_4;
position = "{276, 277}";
},
{
name = t.uni031B_4;
position = "{475, 500}";
},
{
name = m.uni0328_2;
position = "{547, 57}";
},
{
name = t.uni030C.alt_4;
position = "{532, 500}";
}
);
layerId = "CF1FEFF6-0598-468F-902F-1EDAA234C103";
shapes = (
{
closed = 1;
nodes = (
(528,167,l),
(525,118,o),
(534,81,o),
(557,56,c),
(438,-34,l),
(387,13,o),
(356,83,o),
(363,168,c),
(362,168,l),
(403,500,l),
(569,500,l),
(528,170,l)
);
},
{
closed = 1;
nodes = (
(217,199,ls),
(210,156,o),
(226,127,o),
(269,127,cs),
(290,127,o),
(309,133,o),
(326,144,cs),
(343,155,o),
(357,171,o),
(366,191,c),
(427,124,l),
(402,78,o),
(371,42,o),
(333,17,cs),
(295,-9,o),
(255,-22,o),
(214,-22,cs),
(177,-22,o),
(145,-13,o),
(118,7,cs),
(64,45,o),
(37,110,o),
(48,182,cs),
(91,500,l),
(263,500,l)
);
}
);
width = 603;
},
{
anchors = (
{
name = m.uni0324_3;
position = "{238, 11}";
},
{
name = t.uni0308_1_3;
position = "{390, 500}";
},
{
name = t.uni0335_4;
position = "{274, 283}";
},
{
name = t.uni031B_4;
position = "{488, 500}";
},
{
name = m.uni0328_2;
position = "{588, 62}";
},
{
name = t.uni030C.alt_4;
position = "{579, 523}";
}
);
layerId = "E454AF73-A037-40C8-8E6D-4D661AF510B7";
shapes = (
{
closed = 1;
nodes = (
(492,140,l),
(489,88,o),
(498,54,o),
(522,23,c),
(465,-23,l),
(430,9,o),
(406,68,o),
(410,140,c),
(409,140,l),
(453,501,l),
(536,501,l),
(492,143,l)
);
},
{
closed = 1;
nodes = (
(148,195,ls),
(137,103,o),
(168,62,o),
(249,62,cs),
(280,62,o),
(311,74,o),
(344,97,cs),
(376,120,o),
(400,148,o),
(417,180,c),
(451,138,l),
(428,95,o),
(396,60,o),
(357,31,cs),
(318,2,o),
(278,-12,o),
(237,-12,cs),
(198,-12,o),
(165,-4,o),
(138,12,cs),
(82,44,o),
(55,105,o),
(64,181,cs),
(104,500,l),
(189,500,l)
);
}
);
width = 583;
},
{
anchors = (
{
name = m.uni0324_3;
position = "{238, 11}";
},
{
name = t.uni0308_1_3;
position = "{350, 500}";
},
{
name = t.uni0335_4;
position = "{274, 283}";
},
{
name = t.uni031B_4;
position = "{488, 500}";
},
{
name = m.uni0328_2;
position = "{588, 62}";
},
{
name = t.uni030C.alt_4;
position = "{579, 523}";
}
);
layerId = "E7A4057C-21B9-4802-88F9-F6F08CC0F8D4";
shapes = (
{
closed = 1;
nodes = (
(454,124,l),
(453,73,o),
(464,36,o),
(488,7,c),
(462,-15,l),
(437,8,o),
(413,67,o),
(416,127,c),
(416,127,l),
(462,500,l),
(500,500,l),
(454,128,l)
);
},
{
closed = 1;
nodes = (
(107,188,ls),
(94,79,o),
(132,25,o),
(229,25,cs),
(264,25,o),
(299,37,o),
(334,60,cs),
(369,83,o),
(399,116,o),
(426,160,c),
(445,137,l),
(417,92,o),
(383,57,o),
(344,31,cs),
(304,4,o),
(263,-9,o),
(222,-9,cs),
(183,-9,o),
(152,-1,o),
(127,14,cs),
(78,45,o),
(59,103,o),
(68,183,cs),
(107,500,l),
(147,500,l)
);
}
);
width = 551;
}
);
leftKerningGroup = u;
rightKerningGroup = a;
unicode = 117;
},
{
glyphname = v;
layers = (
{
anchors = (
{
name = m.uni0324_3;
position = "{255, 0}";
},
{
name = t.uni0308_1_3;
position = "{315, 500}";
}
);
layerId = "CF1FEFF6-0598-468F-902F-1EDAA234C103";
shapes = (
{
closed = 1;
nodes = (
(34,499,l),
(175,1,l),
(345,1,l),
(590,499,l),
(409,499,l),
(258,142,l),
(293,143,l),
(199,499,l)
);
}
);
width = 563;
},
{
anchors = (
{
name = m.uni0324_3;
position = "{265, 0}";
},
{
name = t.uni0308_1_3;
position = "{325, 500}";
}
);
layerId = "E454AF73-A037-40C8-8E6D-4D661AF510B7";
shapes = (
{
closed = 1;
nodes = (
(38,508,l),
(188,-1,l),
(261,-1,l),
(525,508,l),
(438,508,l),
(215,68,l),
(248,67,l),
(116,508,l)
);
}
);
width = 498;
},
{
anchors = (
{
name = m.uni0324_3;
position = "{269, 0}";
},
{
name = t.uni0308_1_3;
position = "{329, 500}";
}
);
layerId = "E7A4057C-21B9-4802-88F9-F6F08CC0F8D4";
shapes = (
{
closed = 1;
nodes = (
(46,495,l),
(188,0,l),
(231,0,l),
(487,495,l),
(446,495,l),
(204,25,l),
(218,25,l),
(85,495,l)
);
}
);
width = 474;
}
);
leftKerningGroup = v2;
rightKerningGroup = v;
unicode = 118;
},
{
glyphname = w;
layers = (
{
anchors = (
{
name = m.uni0324_3;
position = "{393, 0}";
},
{
name = t.uni0308_1_3;
position = "{424, 500}";
}
);
layerId = "CF1FEFF6-0598-468F-902F-1EDAA234C103";
shapes = (
{
closed = 1;
nodes = (
(35,500,l),
(152,0,l),
(297,0,l),
(377,187,l),
(401,269,l),
(405,187,l),
(432,0,l),
(583,0,l),
(814,499,l),
(635,499,l),
(555,304,l),
(534,230,l),
(531,304,l),
(496,500,l),
(359,500,l),
(278,303,l),
(255,230,l),
(248,303,l),
(212,500,l)
);
}
);
width = 788;
},
{
anchors = (
{
name = m.uni0324_3;
position = "{385, 0}";
},
{
name = t.uni0308_1_3;
position = "{408, 490}";
}
);
layerId = "E454AF73-A037-40C8-8E6D-4D661AF510B7";
shapes = (
{
closed = 1;
nodes = (
(44,500,l),
(149,0,l),
(223,0,l),
(373,335,l),
(392,391,l),
(397,335,l),
(464,0,l),
(538,0,l),
(764,502,l),
(681,502,l),
(534,166,l),
(516,118,l),
(508,166,l),
(440,502,l),
(367,502,l),
(221,168,l),
(202,118,l),
(195,168,l),
(127,500,l)
);
}
);
width = 745;
},
{
anchors = (
{
name = m.uni0324_3;
position = "{380, 0}";
},
{
name = t.uni0308_1_3;
position = "{403, 490}";
}
);
layerId = "E7A4057C-21B9-4802-88F9-F6F08CC0F8D4";
shapes = (
{
closed = 1;
nodes = (
(49,500,l),
(147,0,l),
(192,0,l),
(373,405,l),
(394,461,l),
(402,405,l),
(483,0,l),
(527,0,l),
(749,500,l),
(711,500,l),
(530,93,l),
(508,40,l),
(502,93,l),
(421,500,l),
(377,500,l),
(196,94,l),
(175,40,l),
(167,94,l),
(85,500,l)
);
}
);
width = 737;
}
);
leftKerningGroup = v2;
rightKerningGroup = v;
unicode = 119;
},
{
glyphname = x;
rightMetricsKey = "=18";
layers = (
{
anchors = (
{
name = m.uni0324_3;
position = "{246, 0}";
},
{
name = t.uni0308_1_3;
position = "{305, 500}";
}
);
layerId = "CF1FEFF6-0598-468F-902F-1EDAA234C103";
shapes = (
{
closed = 1;
nodes = (
(339,0,l),
(236,198,l),
(310,200,l),
(180,0,l),
(-24,0,l),
(220,322,l),
(197,202,l),
(52,501,l),
(258,501,l),
(320,322,l),
(257,322,l),
(357,501,l),
(559,501,l),
(339,202,l),
(349,318,l),
(559,0,l)
);
}
);
width = 597;
},
{
anchors = (
{
name = m.uni0324_3;
position = "{262, 0}";
},
{
name = t.uni0308_1_3;
position = "{321, 497}";
}
);
layerId = "E454AF73-A037-40C8-8E6D-4D661AF510B7";
shapes = (
{
closed = 1;
nodes = (
(329,0,l),
(210,222,l),
(240,221,l),
(82,0,l),
(-16,0,l),
(198,287,l),
(195,230,l),
(44,500,l),
(143,500,l),
(252,293,l),
(214,293,l),
(368,500,l),
(467,500,l),
(256,232,l),
(269,285,l),
(430,0,l)
);
}
);
width = 472;
},
{
anchors = (
{
name = m.uni0324_3;
position = "{262, 0}";
},
{
name = t.uni0308_1_3;
position = "{321, 497}";
}
);
layerId = "E7A4057C-21B9-4802-88F9-F6F08CC0F8D4";
shapes = (
{
closed = 1;
nodes = (
(331,0,l),
(200,245,l),
(217,245,l),
(35,0,l),
(-13,0,l),
(194,273,l),
(193,247,l),
(51,500,l),
(95,500,l),
(221,272,l),
(203,272,l),
(372,500,l),
(420,500,l),
(227,247,l),
(225,274,l),
(377,0,l)
);
}
);
width = 425;
}
);
leftKerningGroup = x;
unicode = 120;
},
{
glyphname = y;
layers = (
{
anchors = (
{
name = m.uni0324_3;
position = "{89, -256}";
},
{
name = t.uni0308_1_3;
position = "{327, 500}";
}
);
layerId = "CF1FEFF6-0598-468F-902F-1EDAA234C103";
shapes = (
{
closed = 1;
nodes = (
(34,499,l),
(189,1,l),
(354,1,l),
(597,499,l),
(423,499,l),
(267,142,l),
(307,143,l),
(208,500,l)
);
},
{
closed = 1;
nodes = (
(157,-257,o),
(206,-240,o),
(243,-205,cs),
(280,-170,o),
(313,-117,o),
(342,-46,cs),
(415,129,l),
(270,177,l),
(176,-17,ls),
(148,-76,o),
(124,-110,o),
(103,-110,cs),
(95,-110,o),
(89,-107,o),
(81,-98,c),
(-47,-175,l),
(-19,-227,o),
(34,-255,o),
(95,-256,cs)
);
}
);
width = 570;
},
{
anchors = (
{
name = m.uni0324_3;
position = "{80, -255}";
},
{
name = t.uni0308_1_3;
position = "{311, 500}";
}
);
layerId = "E454AF73-A037-40C8-8E6D-4D661AF510B7";
shapes = (
{
closed = 1;
nodes = (
(39,508,l),
(182,5,l),
(265,-1,l),
(529,508,l),
(440,508,l),
(217,68,l),
(241,67,l),
(124,508,l)
);
},
{
closed = 1;
nodes = (
(95,-259,o),
(121,-249,o),
(142,-228,cs),
(162,-207,o),
(182,-175,o),
(203,-132,cs),
(286,44,l),
(216,70,l),
(133,-102,ls),
(105,-161,o),
(83,-186,o),
(64,-186,cs),
(53,-186,o),
(47,-182,o),
(39,-170,c),
(-31,-208,l),
(-14,-240,o),
(22,-259,o),
(62,-259,cs)
);
}
);
width = 503;
},
{
anchors = (
{
name = m.uni0324_3;
position = "{80, -255}";
},
{
name = t.uni0308_1_3;
position = "{311, 500}";
}
);
layerId = "E7A4057C-21B9-4802-88F9-F6F08CC0F8D4";
shapes = (
{
closed = 1;
nodes = (
(46,495,l),
(192,0,l),
(231,0,l),
(487,495,l),
(446,495,l),
(204,25,l),
(223,25,l),
(85,495,l)
);
},
{
closed = 1;
nodes = (
(71,-260,o),
(94,-250,o),
(111,-231,cs),
(128,-212,o),
(145,-183,o),
(163,-145,cs),
(246,29,l),
(212,42,l),
(130,-132,ls),
(97,-204,o),
(78,-226,o),
(43,-226,cs),
(26,-226,o),
(10,-217,o),
(1,-200,c),
(-31,-220,l),
(-18,-245,o),
(11,-260,o),
(42,-260,cs)
);
}
);
width = 474;
}
);
leftKerningGroup = v2;
rightKerningGroup = v;
unicode = 121;
},
{
glyphname = z;
layers = (
{
anchors = (
{
name = m.uni0324_3;
position = "{216, 0}";
},
{
name = t.uni0308_1_3;
position = "{276, 498}";
},
{
name = t.uni0335_4;
position = "{248, 250}";
}
);
layerId = "CF1FEFF6-0598-468F-902F-1EDAA234C103";
shapes = (
{
closed = 1;
nodes = (
(10,68,l),
(213,332,l),
(245,353,l),
(170,353,l),
(62,353,l),
(80,500,l),
(496,500,l),
(489,433,l),
(291,175,l),
(257,147,l),
(309,148,l),
(469,148,l),
(451,0,l),
(3,0,l)
);
}
);
width = 511;
},
{
anchors = (
{
name = m.uni0324_3;
position = "{230, 0}";
},
{
name = t.uni0308_1_3;
position = "{277, 497}";
},
{
name = t.uni0335_4;
position = "{262, 250}";
}
);
layerId = "E454AF73-A037-40C8-8E6D-4D661AF510B7";
shapes = (
{
closed = 1;
nodes = (
(0,35,l),
(268,377,l),
(312,424,l),
(275,424,l),
(73,424,l),
(82,500,l),
(444,500,l),
(437,470,l),
(155,109,l),
(124,76,l),
(152,76,l),
(406,76,l),
(396,0,l),
(-4,0,l)
);
}
);
width = 449;
},
{
anchors = (
{
name = m.uni0324_3;
position = "{230, 0}";
},
{
name = t.uni0308_1_3;
position = "{277, 497}";
},
{
name = t.uni0335_4;
position = "{262, 250}";
}
);
layerId = "E7A4057C-21B9-4802-88F9-F6F08CC0F8D4";
shapes = (
{
closed = 1;
nodes = (
(-6,7,l),
(334,438,l),
(360,465,l),
(336,464,l),
(86,464,l),
(90,500,l),
(426,500,l),
(429,499,l),
(77,55,l),
(58,34,l),
(75,36,l),
(377,36,l),
(373,0,l),
(-7,0,l)
);
}
);
width = 425;
}
);
leftKerningGroup = z;
unicode = 122;
},
{
glyphname = saltillo;
layers = (
{
layerId = "CF1FEFF6-0598-468F-902F-1EDAA234C103";
shapes = (
{
closed = 1;
nodes = (
(107,734,l),
(76,360,l),
(208,360,l),
(269,734,l)
);
}
);
width = 268;
},
{
layerId = "E454AF73-A037-40C8-8E6D-4D661AF510B7";
shapes = (
{
closed = 1;
nodes = (
(118,726,l),
(92,427,l),
(152,427,l),
(200,726,l)
);
}
);
width = 212;
},
{
layerId = "E7A4057C-21B9-4802-88F9-F6F08CC0F8D4";
shapes = (
{
closed = 1;
nodes = (
(139,728,l),
(110,446,l),
(146,446,l),
(184,728,l)
);
}
);
width = 209;
}
);
leftKerningGroup = degree2;
rightKerningGroup = degree;
unicode = 42892;
},
{
glyphname = nhookleft;
layers = (
{
anchors = (
{
name = m.uni0324_3;
position = "{300, 0}";
},
{
name = t.uni0308_1_3;
position = "{364, 506}";
}
);
layerId = "CF1FEFF6-0598-468F-902F-1EDAA234C103";
shapes = (
{
closed = 1;
nodes = (
(79,-227,o),
(129,-203,o),
(161,-160,c),
(176,-138,o),
(186,-113,o),
(189,-85,cs),
(225,215,l),
(59,215,l),
(27,-48,l),
(24,-64,o),
(21,-74,o),
(10,-74,cs),
(2,-74,o),
(-5,-71,o),
(-6,-63,c),
(-117,-131,l),
(-108,-156,o),
(-90,-179,o),
(-63,-198,cs),
(-36,-217,o),
(-5,-227,o),
(28,-227,cs)
);
},
{
alignment = -1;
ref = n;
}
);
width = 603;
},
{
anchors = (
{
name = m.uni0324_3;
position = "{340, 0}";
},
{
name = t.uni0308_1_3;
position = "{399, 514}";
}
);
layerId = "E454AF73-A037-40C8-8E6D-4D661AF510B7";
shapes = (
{
closed = 1;
nodes = (
(47,-191,o),
(80,-172,o),
(100,-143,cs),
(110,-128,o),
(116,-112,o),
(118,-94,cs),
(144,121,l),
(61,121,l),
(37,-80,ls),
(34,-103,o),
(22,-114,o),
(5,-114,cs),
(-6,-114,o),
(-15,-109,o),
(-18,-97,c),
(-82,-135,l),
(-75,-152,o),
(-63,-166,o),
(-46,-176,cs),
(-29,-186,o),
(-11,-191,o),
(8,-191,cs)
);
},
{
alignment = -1;
ref = n;
}
);
width = 580;
},
{
anchors = (
{
name = m.uni0324_3;
position = "{340, 0}";
},
{
name = t.uni0308_1_3;
position = "{399, 514}";
}
);
layerId = "E7A4057C-21B9-4802-88F9-F6F08CC0F8D4";
shapes = (
{
closed = 1;
nodes = (
(14,-208,o),
(41,-193,o),
(58,-169,c),
(66,-156,o),
(71,-142,o),
(73,-126,cs),
(95,49,l),
(57,49,l),
(35,-124,ls),
(31,-155,o),
(13,-172,o),
(-16,-172,cs),
(-27,-172,o),
(-37,-167,o),
(-44,-158,c),
(-76,-178,l),
(-69,-188,o),
(-60,-196,o),
(-51,-201,cs),
(-42,-206,o),
(-31,-208,o),
(-18,-208,cs)
);
},
{
alignment = -1;
ref = n;
}
);
width = 548;
}
);
rightKerningGroup = h;
unicode = 626;
},
{
glyphname = eng;
layers = (
{
anchors = (
{
name = m.uni0324_3;
position = "{300, 0}";
},
{
name = t.uni0308_1_3;
position = "{364, 506}";
}
);
layerId = "CF1FEFF6-0598-468F-902F-1EDAA234C103";
shapes = (
{
closed = 1;
nodes = (
(75,330,l),
(34,0,l),
(200,0,l),
(241,332,l),
(240,332,l),
(247,417,o),
(216,487,o),
(165,534,c),
(46,444,l),
(69,419,o),
(78,382,o),
(75,333,c)
);
},
{
closed = 1;
nodes = (
(382,164,l),
(548,164,l),
(565,318,ls),
(573,390,o),
(547,457,o),
(495,494,cs),
(468,513,o),
(436,522,o),
(399,522,cs),
(358,522,o),
(320,510,o),
(283,486,cs),
(246,462,o),
(217,431,o),
(198,393,c),
(247,309,l),
(256,329,o),
(270,345,o),
(287,356,cs),
(304,367,o),
(323,373,o),
(344,373,cs),
(387,373,o),
(401,345,o),
(397,301,c)
);
},
{
closed = 1;
nodes = (
(408,-229,o),
(458,-205,o),
(490,-162,c),
(505,-140,o),
(515,-115,o),
(518,-87,cs),
(554,213,l),
(388,213,l),
(356,-50,l),
(353,-66,o),
(350,-76,o),
(339,-76,cs),
(331,-76,o),
(324,-73,o),
(323,-65,c),
(212,-133,l),
(221,-158,o),
(239,-181,o),
(266,-200,cs),
(293,-219,o),
(324,-229,o),
(357,-229,cs)
);
}
);
width = 610;
},
{
anchors = (
{
name = m.uni0324_3;
position = "{319, 0}";
},
{
name = t.uni0308_1_3;
position = "{372, 504}";
}
);
layerId = "E454AF73-A037-40C8-8E6D-4D661AF510B7";
shapes = (
{
closed = 1;
nodes = (
(91,357,l),
(47,-1,l),
(130,-1,l),
(174,360,l),
(173,360,l),
(177,432,o),
(153,491,o),
(118,523,c),
(61,477,l),
(85,446,o),
(94,412,o),
(91,360,c)
);
},
{
closed = 1;
nodes = (
(410,95,l),
(493,95,l),
(519,319,ls),
(527,395,o),
(501,456,o),
(446,488,cs),
(418,504,o),
(385,512,o),
(346,512,cs),
(306,512,o),
(267,499,o),
(229,473,cs),
(190,446,o),
(161,414,o),
(141,376,c),
(169,325,l),
(187,357,o),
(211,384,o),
(242,406,cs),
(273,427,o),
(303,438,o),
(334,438,cs),
(415,438,o),
(446,397,o),
(435,305,cs)
);
},
{
closed = 1;
nodes = (
(397,-208,o),
(430,-189,o),
(450,-160,cs),
(460,-145,o),
(466,-129,o),
(468,-111,cs),
(494,104,l),
(411,104,l),
(387,-97,ls),
(384,-120,o),
(372,-131,o),
(355,-131,cs),
(344,-131,o),
(335,-126,o),
(332,-114,c),
(268,-152,l),
(275,-169,o),
(287,-183,o),
(304,-193,cs),
(321,-203,o),
(339,-208,o),
(358,-208,cs)
);
}
);
width = 580;
},
{
anchors = (
{
name = m.uni0324_3;
position = "{319, 0}";
},
{
name = t.uni0308_1_3;
position = "{372, 504}";
}
);
layerId = "E7A4057C-21B9-4802-88F9-F6F08CC0F8D4";
shapes = (
{
closed = 1;
nodes = (
(97,372,l),
(51,0,l),
(89,0,l),
(135,373,l),
(135,373,l),
(138,433,o),
(114,492,o),
(89,515,c),
(63,493,l),
(87,464,o),
(98,427,o),
(97,376,c)
);
},
{
closed = 1;
nodes = (
(413,53,l),
(451,53,l),
(485,312,ls),
(496,391,o),
(475,450,o),
(426,481,cs),
(401,496,o),
(370,504,o),
(331,504,cs),
(290,504,o),
(250,492,o),
(213,468,cs),
(175,444,o),
(142,410,o),
(115,365,c),
(128,336,l),
(155,379,o),
(185,413,o),
(220,436,cs),
(255,459,o),
(289,470,o),
(324,470,cs),
(421,470,o),
(461,415,o),
(446,307,cs)
);
},
{
closed = 1;
nodes = (
(370,-204,o),
(397,-189,o),
(414,-165,c),
(422,-152,o),
(427,-138,o),
(429,-122,cs),
(451,53,l),
(413,53,l),
(391,-120,ls),
(387,-151,o),
(369,-168,o),
(340,-168,cs),
(329,-168,o),
(319,-163,o),
(312,-154,c),
(280,-174,l),
(287,-184,o),
(296,-192,o),
(305,-197,cs),
(314,-202,o),
(325,-204,o),
(338,-204,cs)
);
}
);
width = 550;
}
);
leftKerningGroup = m;
rightKerningGroup = h;
unicode = 331;
},
{
glyphname = ubar;
layers = (
{
anchors = (
{
name = m.uni0324_3;
position = "{238, 11}";
},
{
name = t.uni0308_1_3;
position = "{313, 500}";
},
{
name = t.uni0335_4;
position = "{276, 277}";
},
{
name = t.uni031B_4;
position = "{475, 500}";
},
{
name = m.uni0328_2;
position = "{547, 57}";
},
{
name = t.uni030C.alt_4;
position = "{532, 500}";
}
);
layerId = "CF1FEFF6-0598-468F-902F-1EDAA234C103";
shapes = (
{
closed = 1;
nodes = (
(-2,339,l),
(-19,219,l),
(554,219,l),
(571,339,l)
);
},
{
alignment = -1;
ref = u;
}
);
width = 603;
},
{
anchors = (
{
name = m.uni0324_3;
position = "{238, 11}";
},
{
name = t.uni0308_1_3;
position = "{350, 500}";
},
{
name = t.uni0335_4;
position = "{274, 283}";
},
{
name = t.uni031B_4;
position = "{488, 500}";
},
{
name = m.uni0328_2;
position = "{588, 62}";
},
{
name = t.uni030C.alt_4;
position = "{579, 523}";
}
);
layerId = "E454AF73-A037-40C8-8E6D-4D661AF510B7";
shapes = (
{
closed = 1;
nodes = (
(12,316,l),
(1,240,l),
(498,240,l),
(509,316,l)
);
},
{
alignment = -1;
ref = u;
}
);
width = 583;
},
{
anchors = (
{
name = m.uni0324_3;
position = "{238, 11}";
},
{
name = t.uni0308_1_3;
position = "{350, 500}";
},
{
name = t.uni0335_4;
position = "{274, 283}";
},
{
name = t.uni031B_4;
position = "{488, 500}";
},
{
name = m.uni0328_2;
position = "{588, 62}";
},
{
name = t.uni030C.alt_4;
position = "{579, 523}";
}
);
layerId = "E7A4057C-21B9-4802-88F9-F6F08CC0F8D4";
shapes = (
{
closed = 1;
nodes = (
(-12,289,l),
(-18,252,l),
(532,253,l),
(537,289,l)
);
},
{
alignment = -1;
ref = u;
}
);
width = 551;
}
);
leftKerningGroup = u;
rightKerningGroup = a;
unicode = 649;
},
{
glyphname = f_f;
layers = (
{
layerId = "CF1FEFF6-0598-468F-902F-1EDAA234C103";
shapes = (
{
closed = 1;
nodes = (
(50,-259,l),
(215,-259,l),
(313,540,ls),
(316,565,o),
(339,590,o),
(370,590,cs),
(379,590,o),
(387,588,o),
(394,580,c),
(511,661,l),
(487,712,o),
(423,747,o),
(348,747,cs),
(240,747,o),
(164,672,o),
(149,548,cs)
);
},
{
closed = 1;
nodes = (
(45,500,l),
(29,373,l),
(755,373,l),
(771,500,l)
);
},
{
closed = 1;
nodes = (
(390,-259,l),
(556,-259,l),
(655,542,ls),
(658,570,o),
(679,590,o),
(710,590,cs),
(723,590,o),
(735,585,o),
(744,575,c),
(831,686,l),
(792,727,o),
(744,747,o),
(687,747,cs),
(584,747,o),
(506,682,o),
(491,565,cs)
);
}
);
width = 757;
},
{
layerId = "E454AF73-A037-40C8-8E6D-4D661AF510B7";
shapes = (
{
closed = 1;
nodes = (
(22,-260,l),
(105,-259,l),
(204,555,ls),
(213,627,o),
(251,669,o),
(308,669,cs),
(337,669,o),
(356,659,o),
(365,639,c),
(427,685,l),
(412,718,o),
(363,743,o),
(304,743,cs),
(203,743,o),
(136,676,o),
(123,559,cs)
);
},
{
closed = 1;
nodes = (
(46,498,l),
(37,424,l),
(602,424,l),
(611,498,l)
);
},
{
closed = 1;
nodes = (
(300,-260,l),
(383,-260,l),
(485,574,ls),
(493,642,o),
(527,663,o),
(572,663,cs),
(595,663,o),
(614,656,o),
(629,643,c),
(673,704,l),
(646,729,o),
(610,741,o),
(567,741,cs),
(476,741,o),
(416,687,o),
(403,582,cs)
);
}
);
width = 601;
},
{
layerId = "E7A4057C-21B9-4802-88F9-F6F08CC0F8D4";
shapes = (
{
closed = 1;
nodes = (
(32,-259,l),
(70,-259,l),
(171,567,ls),
(180,651,o),
(231,705,o),
(296,705,cs),
(331,705,o),
(355,690,o),
(367,671,c),
(392,694,l),
(373,721,o),
(345,739,o),
(297,739,cs),
(206,739,o),
(146,677,o),
(133,570,cs)
);
},
{
closed = 1;
nodes = (
(42,497,l),
(38,463,l),
(564,463,l),
(568,497,l)
);
},
{
closed = 1;
nodes = (
(271,-260,l),
(309,-260,l),
(414,594,ls),
(423,667,o),
(463,705,o),
(527,705,cs),
(553,705,o),
(574,699,o),
(589,686,c),
(608,715,l),
(587,732,o),
(559,741,o),
(525,741,cs),
(441,741,o),
(388,692,o),
(376,596,cs)
);
}
);
width = 539;
}
);
leftKerningGroup = f2;
rightKerningGroup = f;
unicode = 64256;
},
{
glyphname = f_f_i;
layers = (
{
layerId = "CF1FEFF6-0598-468F-902F-1EDAA234C103";
shapes = (
{
closed = 1;
nodes = (
(369,-258,l),
(534,-258,l),
(632,540,ls),
(635,565,o),
(658,590,o),
(689,590,cs),
(696,590,o),
(701,589,o),
(703,588,c),
(777,718,l),
(743,737,o),
(706,747,o),
(667,747,cs),
(559,747,o),
(483,672,o),
(468,548,cs)
);
},
{
closed = 1;
nodes = (
(45,500,l),
(29,373,l),
(809,373,l),
(825,500,l)
);
},
{
closed = 1;
nodes = (
(793,499,l),
(732,1,l),
(898,1,l),
(959,500,l)
);
},
{
closed = 1;
nodes = (
(911,541,o),
(934,550,o),
(954,567,cs),
(973,584,o),
(985,604,o),
(988,627,cs),
(991,656,o),
(984,680,o),
(966,700,cs),
(948,720,o),
(925,730,o),
(896,730,cs),
(872,730,o),
(851,721,o),
(832,704,cs),
(813,687,o),
(801,666,o),
(798,643,cs),
(795,616,o),
(802,592,o),
(819,572,cs),
(836,551,o),
(859,541,o),
(886,541,cs)
);
},
{
closed = 1;
nodes = (
(23,-259,l),
(189,-259,l),
(288,542,ls),
(291,570,o),
(312,590,o),
(343,590,cs),
(356,590,o),
(368,585,o),
(377,575,c),
(464,686,l),
(425,727,o),
(377,747,o),
(320,747,cs),
(217,747,o),
(139,682,o),
(124,565,cs)
);
}
);
width = 985;
},
{
layerId = "E454AF73-A037-40C8-8E6D-4D661AF510B7";
shapes = (
{
closed = 1;
nodes = (
(305,-259,l),
(387,-259,l),
(486,555,ls),
(495,627,o),
(533,669,o),
(590,669,cs),
(606,669,o),
(619,666,o),
(629,660,c),
(677,720,l),
(652,735,o),
(621,743,o),
(586,743,cs),
(485,743,o),
(418,676,o),
(405,559,cs)
);
},
{
closed = 1;
nodes = (
(47,500,l),
(38,426,l),
(703,426,l),
(712,500,l)
);
},
{
closed = 1;
nodes = (
(664,501,l),
(602,0,l),
(684,0,l),
(745,500,l)
);
},
{
closed = 1;
nodes = (
(729,563,o),
(741,568,o),
(752,578,cs),
(763,587,o),
(770,598,o),
(771,611,cs),
(773,626,o),
(769,639,o),
(759,651,cs),
(749,662,o),
(737,668,o),
(722,668,cs),
(709,668,o),
(697,663,o),
(686,653,cs),
(675,643,o),
(668,632,o),
(667,619,cs),
(666,604,o),
(670,591,o),
(680,580,cs),
(689,569,o),
(701,563,o),
(716,563,cs)
);
},
{
closed = 1;
nodes = (
(28,-260,l),
(111,-260,l),
(213,574,ls),
(221,642,o),
(255,663,o),
(300,663,cs),
(323,663,o),
(342,656,o),
(357,643,c),
(401,704,l),
(374,729,o),
(338,741,o),
(295,741,cs),
(204,741,o),
(144,687,o),
(131,582,cs)
);
}
);
width = 783;
},
{
layerId = "E7A4057C-21B9-4802-88F9-F6F08CC0F8D4";
shapes = (
{
closed = 1;
nodes = (
(272,-259,l),
(310,-259,l),
(411,567,ls),
(420,651,o),
(471,705,o),
(536,705,cs),
(554,705,o),
(569,701,o),
(582,693,c),
(602,724,l),
(584,734,o),
(562,739,o),
(537,739,cs),
(446,739,o),
(386,677,o),
(373,570,cs)
);
},
{
closed = 1;
nodes = (
(43,500,l),
(39,466,l),
(631,466,l),
(635,500,l)
);
},
{
closed = 1;
nodes = (
(616,500,l),
(555,0,l),
(593,0,l),
(654,500,l)
);
},
{
closed = 1;
nodes = (
(655,579,o),
(664,582,o),
(671,588,cs),
(678,594,o),
(682,602,o),
(683,612,cs),
(684,623,o),
(681,631,o),
(675,638,cs),
(669,645,o),
(661,648,o),
(650,648,cs),
(641,648,o),
(633,645,o),
(626,639,cs),
(619,633,o),
(615,625,o),
(614,616,cs),
(613,605,o),
(615,596,o),
(621,589,cs),
(626,582,o),
(634,579,o),
(645,579,cs)
);
},
{
closed = 1;
nodes = (
(30,-260,l),
(68,-260,l),
(173,594,ls),
(182,667,o),
(222,705,o),
(286,705,cs),
(312,705,o),
(333,699,o),
(348,686,c),
(367,715,l),
(346,732,o),
(318,741,o),
(284,741,cs),
(200,741,o),
(147,692,o),
(135,596,cs)
);
}
);
width = 696;
}
);
leftKerningGroup = f2;
rightKerningGroup = h;
unicode = 64259;
},
{
glyphname = f_f_l;
layers = (
{
layerId = "CF1FEFF6-0598-468F-902F-1EDAA234C103";
shapes = (
{
closed = 1;
nodes = (
(35,420,l),
(19,293,l),
(679,293,l),
(695,420,l)
);
},
{
closed = 1;
nodes = (
(19,-259,l),
(185,-259,l),
(284,542,ls),
(287,570,o),
(308,590,o),
(339,590,cs),
(352,590,o),
(364,585,o),
(373,575,c),
(460,686,l),
(421,727,o),
(373,747,o),
(316,747,cs),
(213,747,o),
(135,682,o),
(120,565,cs)
);
},
{
closed = 1;
nodes = (
(787,711,l),
(699,0,l),
(865,0,l),
(952,711,l)
);
},
{
closed = 1;
nodes = (
(359,-259,l),
(525,-259,l),
(622,531,l),
(625,549,o),
(634,563,o),
(649,574,cs),
(664,585,o),
(681,590,o),
(698,590,cs),
(709,590,o),
(722,586,o),
(737,578,cs),
(752,569,o),
(762,556,o),
(766,539,c),
(812,692,l),
(780,725,o),
(740,747,o),
(675,747,cs),
(607,747,o),
(542,719,o),
(499,664,cs),
(478,637,o),
(465,604,o),
(460,565,cs)
);
}
);
width = 952;
},
{
layerId = "E454AF73-A037-40C8-8E6D-4D661AF510B7";
shapes = (
{
closed = 1;
nodes = (
(37,420,l),
(28,344,l),
(544,344,l),
(553,420,l)
);
},
{
closed = 1;
nodes = (
(34,-260,l),
(117,-260,l),
(219,574,ls),
(227,642,o),
(261,663,o),
(306,663,cs),
(329,663,o),
(348,656,o),
(363,643,c),
(407,704,l),
(380,729,o),
(344,741,o),
(301,741,cs),
(210,741,o),
(150,687,o),
(137,582,cs)
);
},
{
closed = 1;
nodes = (
(675,710,l),
(586,0,l),
(668,0,l),
(757,710,l)
);
},
{
closed = 1;
nodes = (
(294,-260,l),
(377,-260,l),
(479,574,ls),
(483,607,o),
(495,630,o),
(516,643,cs),
(536,656,o),
(556,663,o),
(577,663,cs),
(595,663,o),
(613,659,o),
(632,651,cs),
(651,642,o),
(662,632,o),
(665,619,c),
(683,703,l),
(659,724,o),
(625,741,o),
(581,741,cs),
(520,741,o),
(465,717,o),
(430,670,cs),
(412,646,o),
(401,617,o),
(397,582,cs)
);
}
);
width = 769;
},
{
layerId = "E7A4057C-21B9-4802-88F9-F6F08CC0F8D4";
shapes = (
{
closed = 1;
nodes = (
(33,420,l),
(29,386,l),
(515,386,l),
(519,420,l)
);
},
{
closed = 1;
nodes = (
(22,-260,l),
(60,-260,l),
(165,594,ls),
(174,667,o),
(214,705,o),
(278,705,cs),
(304,705,o),
(325,699,o),
(340,686,c),
(359,715,l),
(338,732,o),
(310,741,o),
(276,741,cs),
(192,741,o),
(139,692,o),
(127,596,cs)
);
},
{
closed = 1;
nodes = (
(639,710,l),
(554,0,l),
(592,0,l),
(677,710,l)
);
},
{
closed = 1;
nodes = (
(272,-259,l),
(310,-259,l),
(413,585,ls),
(418,622,o),
(432,652,o),
(455,673,cs),
(478,694,o),
(505,704,o),
(538,704,cs),
(565,704,o),
(587,700,o),
(602,693,cs),
(617,685,o),
(628,675,o),
(634,663,c),
(648,704,l),
(617,727,o),
(593,739,o),
(538,739,cs),
(483,739,o),
(435,716,o),
(404,670,cs),
(389,647,o),
(379,619,o),
(375,586,cs)
);
}
);
width = 695;
}
);
leftKerningGroup = f2;
rightKerningGroup = h;
unicode = 64260;
},
{
glyphname = fi;
layers = (
{
layerId = "CF1FEFF6-0598-468F-902F-1EDAA234C103";
shapes = (
{
closed = 1;
nodes = (
(45,500,l),
(29,373,l),
(449,373,l),
(465,500,l)
);
},
{
closed = 1;
nodes = (
(453,499,l),
(392,1,l),
(558,1,l),
(619,500,l)
);
},
{
closed = 1;
nodes = (
(571,541,o),
(594,550,o),
(614,567,cs),
(633,584,o),
(645,604,o),
(648,627,cs),
(651,656,o),
(644,680,o),
(626,700,cs),
(608,720,o),
(585,730,o),
(556,730,cs),
(532,730,o),
(511,721,o),
(492,704,cs),
(473,687,o),
(461,666,o),
(458,643,cs),
(455,616,o),
(462,592,o),
(479,572,cs),
(496,551,o),
(519,541,o),
(546,541,cs)
);
},
{
closed = 1;
nodes = (
(13,-259,l),
(179,-259,l),
(278,542,ls),
(281,570,o),
(302,590,o),
(333,590,cs),
(346,590,o),
(358,585,o),
(367,575,c),
(454,686,l),
(415,727,o),
(367,747,o),
(310,747,cs),
(207,747,o),
(129,682,o),
(114,565,cs)
);
}
);
width = 645;
},
{
layerId = "E454AF73-A037-40C8-8E6D-4D661AF510B7";
shapes = (
{
closed = 1;
nodes = (
(47,500,l),
(38,426,l),
(413,426,l),
(422,500,l)
);
},
{
closed = 1;
nodes = (
(394,501,l),
(332,0,l),
(414,0,l),
(475,500,l)
);
},
{
closed = 1;
nodes = (
(459,563,o),
(471,568,o),
(482,578,cs),
(493,587,o),
(500,598,o),
(501,611,cs),
(503,626,o),
(499,639,o),
(489,651,cs),
(479,662,o),
(467,668,o),
(452,668,cs),
(439,668,o),
(427,663,o),
(416,653,cs),
(405,643,o),
(398,632,o),
(397,619,cs),
(396,604,o),
(400,591,o),
(410,580,cs),
(419,569,o),
(431,563,o),
(446,563,cs)
);
},
{
closed = 1;
nodes = (
(18,-260,l),
(101,-260,l),
(203,574,ls),
(211,642,o),
(245,663,o),
(290,663,cs),
(313,663,o),
(332,656,o),
(347,643,c),
(391,704,l),
(364,729,o),
(328,741,o),
(285,741,cs),
(194,741,o),
(134,687,o),
(121,582,cs)
);
}
);
width = 513;
},
{
layerId = "E7A4057C-21B9-4802-88F9-F6F08CC0F8D4";
shapes = (
{
closed = 1;
nodes = (
(43,500,l),
(39,466,l),
(391,466,l),
(395,500,l)
);
},
{
closed = 1;
nodes = (
(386,500,l),
(325,0,l),
(363,0,l),
(424,500,l)
);
},
{
closed = 1;
nodes = (
(425,579,o),
(434,582,o),
(441,588,cs),
(448,594,o),
(452,602,o),
(453,612,cs),
(454,623,o),
(451,631,o),
(445,638,cs),
(439,645,o),
(431,648,o),
(420,648,cs),
(411,648,o),
(403,645,o),
(396,639,cs),
(389,633,o),
(385,625,o),
(384,616,cs),
(383,605,o),
(385,596,o),
(391,589,cs),
(396,582,o),
(404,579,o),
(415,579,cs)
);
},
{
closed = 1;
nodes = (
(20,-260,l),
(58,-260,l),
(163,594,ls),
(172,667,o),
(212,705,o),
(276,705,cs),
(302,705,o),
(323,699,o),
(338,686,c),
(357,715,l),
(336,732,o),
(308,741,o),
(274,741,cs),
(190,741,o),
(137,692,o),
(125,596,cs)
);
}
);
width = 466;
}
);
leftKerningGroup = f2;
rightKerningGroup = fi;
unicode = 64257;
},
{
glyphname = fl;
layers = (
{
layerId = "CF1FEFF6-0598-468F-902F-1EDAA234C103";
shapes = (
{
closed = 1;
nodes = (
(35,420,l),
(19,293,l),
(339,293,l),
(355,420,l)
);
},
{
closed = 1;
nodes = (
(467,711,l),
(379,0,l),
(545,0,l),
(632,711,l)
);
},
{
closed = 1;
nodes = (
(19,-259,l),
(185,-259,l),
(281,516,ls),
(284,540,o),
(294,558,o),
(313,571,cs),
(331,584,o),
(349,590,o),
(368,590,cs),
(380,590,o),
(406,584,o),
(427,569,cs),
(437,561,o),
(443,551,o),
(446,539,c),
(492,692,l),
(461,724,o),
(412,747,o),
(345,747,cs),
(276,747,o),
(207,718,o),
(161,659,cs),
(138,629,o),
(123,592,o),
(118,549,cs)
);
}
);
width = 632;
},
{
layerId = "E454AF73-A037-40C8-8E6D-4D661AF510B7";
shapes = (
{
closed = 1;
nodes = (
(37,420,l),
(28,344,l),
(284,344,l),
(293,420,l)
);
},
{
closed = 1;
nodes = (
(421,710,l),
(332,0,l),
(414,0,l),
(503,710,l)
);
},
{
closed = 1;
nodes = (
(14,-260,l),
(97,-260,l),
(196,550,ls),
(201,593,o),
(216,622,o),
(239,639,cs),
(262,655,o),
(284,663,o),
(307,663,cs),
(330,663,o),
(364,652,o),
(388,635,c),
(399,626,o),
(406,617,o),
(408,606,c),
(429,703,l),
(408,723,o),
(356,741,o),
(311,741,cs),
(248,741,o),
(190,716,o),
(151,661,cs),
(132,634,o),
(119,599,o),
(114,557,cs)
);
}
);
width = 515;
},
{
layerId = "E7A4057C-21B9-4802-88F9-F6F08CC0F8D4";
shapes = (
{
closed = 1;
nodes = (
(33,420,l),
(29,386,l),
(265,386,l),
(269,420,l)
);
},
{
closed = 1;
nodes = (
(409,710,l),
(320,0,l),
(358,0,l),
(447,710,l)
);
},
{
closed = 1;
nodes = (
(22,-259,l),
(60,-259,l),
(160,561,ls),
(166,609,o),
(181,645,o),
(204,669,cs),
(227,692,o),
(255,704,o),
(288,704,cs),
(325,704,o),
(361,695,o),
(383,683,cs),
(394,677,o),
(401,670,o),
(404,663,c),
(418,704,l),
(393,723,o),
(345,739,o),
(288,739,cs),
(232,739,o),
(184,714,o),
(153,662,cs),
(137,635,o),
(127,602,o),
(122,562,cs)
);
}
);
width = 463;
}
);
unicode = 64258;
},
